<svg width="700" height="700" viewBox="0 0 700 700" fill="none" xmlns="http://www.w3.org/2000/svg">
<path d="M292.39 417.56C292.726 416.275 292.316 414.908 291.327 414.021C290.55 413.154 289.843 412.228 289.214 411.247L288.206 410.861V410.857C287.824 413.462 287.824 416.107 288.199 418.712C288.601 421.818 289.351 424.857 289.898 427.931V427.935C290.226 429.638 289.64 431.392 288.347 432.552C287.581 433.068 286.741 433.459 285.855 433.708L286.191 435.568L285.925 436.677C285.722 437.169 285.257 437.502 284.726 437.537C284.199 437.513 283.714 437.232 283.437 436.779L283.101 436.08V436.084C282.39 433.556 282.48 430.873 283.347 428.396C283.667 427.689 283.687 426.88 283.398 426.158C283.265 425.658 283.288 425.13 283.46 424.642C283.913 423.142 284.046 421.564 283.851 420.009C283.792 418.834 283.8 417.658 283.878 416.486C283.796 415.052 284.214 413.63 285.054 412.466C284.402 411.298 283.98 410.013 283.812 408.685C283.507 406.123 283.347 403.541 283.339 400.959C283.198 398.353 283.32 395.74 283.706 393.162C284.312 389.037 284.601 384.873 285.077 380.724H285.073C285.202 379.56 285.429 378.407 285.757 377.282C285.956 376.528 286.331 375.833 286.859 375.259C287.824 374.032 288.452 372.575 288.687 371.032C288.519 367.626 289.503 364.314 289.484 360.911L289.546 359.739C289.159 356.634 289.515 353.478 290.589 350.536C290.925 349.275 291.093 347.978 291.093 346.673C291.093 344.196 290.929 341.716 290.784 339.239L290.355 337.782V337.786C289.659 336.962 289.593 335.775 290.195 334.876C290.574 334.196 290.906 333.489 291.187 332.759C291.347 332.048 291.445 331.321 291.476 330.595L289.421 328.579H289.425C288.757 327.931 288.437 327.005 288.558 326.083C288.675 325.157 289.257 324.357 290.105 323.966L290.374 323.72V323.724C289.527 322.071 289.534 320.11 290.398 318.462C290.777 317.782 291.339 317.224 292.019 316.845C293.367 315.903 293.433 315.923 292.722 314.528C291.839 313.204 291.667 311.532 292.253 310.056L292.413 309.314C292.031 307.927 292.277 306.439 293.085 305.247C293.452 304.282 293.652 303.259 293.667 302.224L293.206 301.681C292.445 301.384 291.335 301.782 291.23 302.415C290.671 305.763 289.191 308.868 288.671 312.243C288.331 313.626 287.87 314.982 287.296 316.29C286.917 317.114 286.656 317.985 286.523 318.884C286.491 320.571 286.062 322.228 285.257 323.712C284.64 325.177 284.601 326.821 285.14 328.318C285.468 329.849 285.593 331.415 285.511 332.978C285.624 334.431 285.116 335.861 284.109 336.911C283.562 337.493 283.316 338.294 283.437 339.083L283.706 341.415C284.281 345.286 284.492 349.189 284.73 353.087V353.083C284.866 354.263 284.605 355.458 283.988 356.474C283.089 357.908 282.343 359.435 281.769 361.029L281.011 361.868L279.964 361.814L279.292 360.9C278.804 359.146 278.476 357.349 278.308 355.536C278.241 353.712 277.839 351.915 277.124 350.236C276.331 348.583 275.941 346.767 275.984 344.935L275.878 343.771L275.882 343.767C275.277 341.497 275.081 339.142 275.296 336.802C275.198 335.505 274.972 334.224 274.616 332.974C274.374 331.919 274.831 330.829 275.757 330.267L277.195 330.314L279.097 332.837L279.737 331.775C279.87 331.138 279.929 330.486 279.909 329.837C279.784 328.521 280.257 327.216 281.195 326.286C281.718 325.689 282.015 324.927 282.038 324.134C282.702 320.943 283.546 317.794 284.566 314.697C284.808 313.954 285.116 313.24 285.491 312.556L285.999 311.521C285.921 309.579 287.222 308.103 287.651 306.349H287.648C288.167 304.322 288.956 302.376 290.003 300.564C291.046 298.443 291.355 296.036 290.886 293.72C290.808 293.153 290.308 292.888 289.835 292.654C288.851 292.169 288.761 291.267 288.745 290.325L288.632 290.458L290.112 290.134C290.976 290.489 291.968 290.243 292.558 289.521C293.523 288.482 294.589 287.532 295.62 286.56L295.987 286.509L296.425 287.013L295.331 291.157C294.874 292.388 294.816 293.728 295.167 294.989L295.753 295.361L296.292 294.982C297.109 291.157 298.155 287.384 299.429 283.689L300.089 282.275C300.937 280.794 301.335 279.099 301.237 277.4C301.23 276.345 301.546 275.314 302.151 274.45C303.132 273.064 303.874 271.525 304.347 269.892L304.702 269.204H304.706C306.23 267.235 307.148 264.864 307.351 262.384C307.698 260.45 308.257 258.583 308.769 256.696C309.288 254.642 310.698 252.931 312.616 252.028L313.714 252.025C314.175 252.302 314.405 252.841 314.288 253.364L314.007 254.497C313.562 255.997 312.96 257.446 312.214 258.821L311.718 259.88C310.612 263.755 309.187 267.536 308.351 271.489L307.155 276.434C306.655 278.298 306.628 278.29 304.855 280.094V280.091C305.327 282.091 305.21 284.188 304.511 286.122C304.136 287.137 304.636 288.176 304.745 289.208C304.874 290.407 304.812 291.547 303.491 292.208C302.839 292.669 302.421 293.387 302.343 294.18C301.987 296.102 301.284 297.946 300.269 299.622C300.007 300.075 299.882 300.594 299.917 301.114C300.03 304.52 299.206 307.887 297.527 310.848C296.98 311.891 296.628 313.024 296.495 314.192C296.312 316.274 295.89 318.329 295.245 320.317C295.089 320.817 295.031 321.341 295.07 321.864C295.156 323.821 294.909 325.782 294.335 327.657C294.167 328.419 294.101 329.2 294.136 329.981C294.156 330.891 294.101 331.805 293.976 332.712C293.628 335.559 293.718 338.446 294.253 341.266C294.273 341.677 294.613 342.001 295.023 342.009C295.546 342.005 296.027 341.727 296.288 341.278L296.476 340.524L296.363 335.052C296.288 333.134 296.691 332.454 298.421 331.762L298.425 331.766C298.769 331.567 299.187 331.54 299.558 331.696C299.925 331.848 300.202 332.165 300.304 332.552C300.538 333.688 300.956 334.454 302.191 334.716C303.101 334.95 303.816 335.657 304.066 336.563C304.831 338.091 305.101 339.817 304.839 341.505C304.702 342.032 304.421 342.407 303.8 342.36C303.323 341.634 303.659 340.837 303.597 340.079L303.316 338.97L302.706 338.583L302.054 338.821C301.765 339.403 301.569 340.024 301.48 340.665C301.413 341.837 301.417 343.013 301.499 344.181L301.941 350.036C301.956 351.087 302.304 352.102 302.933 352.942C303.319 353.458 303.515 354.095 303.484 354.743C303.261 357.485 303.429 360.224 303.472 362.962L303.347 364.11L302.503 365.36C302.054 365.712 301.523 365.481 301.097 365.11L300.784 365.013L299.921 365.778L299.925 365.774C299.71 365.923 299.445 365.974 299.191 365.927C298.937 365.876 298.71 365.724 298.57 365.509L298.261 364.809C298.101 363.009 297.378 361.306 296.202 359.931L295.691 360.337V360.341C295.546 363.075 295.675 365.817 296.085 368.528C296.171 369.434 296.159 370.348 296.042 371.255C295.952 372.294 295.913 373.333 295.929 374.376C295.921 375.024 296.148 375.653 296.573 376.142C297.855 377.114 297.917 378.618 298.402 379.798V379.802C299.929 380.876 301.605 381.72 303.378 382.306C305.804 383.446 308.652 383.212 310.863 381.692C313.624 379.915 316.952 379.227 320.195 379.77C322.155 379.86 324.085 380.251 325.925 380.927C326.663 381.173 327.421 381.36 328.191 381.485L332.378 382.477C335.023 383.177 337.667 383.884 340.296 384.653V384.657C342.941 385.43 345.73 385.559 348.437 385.024C350.281 384.7 352.183 384.86 353.948 385.489L354.804 386.653C355.601 388.192 357.097 389.243 358.816 389.473C360.363 389.704 361.917 389.856 363.48 389.927C364.542 389.966 365.566 389.501 366.234 388.669L366.726 388.075C368.491 385.434 371.316 383.692 374.468 383.302C375.738 383.016 377.042 382.872 378.324 382.641H378.327C379.101 382.552 379.867 382.384 380.609 382.141C382.55 381.368 384.609 380.915 386.695 380.79L387.859 380.618C388.804 380.505 389.554 379.778 389.702 378.837C390.085 377.048 390.175 375.208 389.956 373.391C389.714 371.977 389.62 370.54 389.355 369.134V369.138C388.945 366.958 388.765 364.743 388.816 362.528C388.82 361.747 388.745 360.966 388.593 360.196C387.71 355.579 387.234 350.895 387.163 346.196C387.152 344.888 386.906 343.591 386.437 342.368C385.937 341.02 385.699 339.591 385.73 338.149C385.636 334.766 385.261 331.395 384.616 328.071C384.089 324.462 383.527 320.868 382.761 317.301C382.347 316.161 382.648 314.883 383.523 314.047C383.995 313.567 384.163 312.868 383.956 312.227C383.038 307.633 381.804 303.114 380.55 298.602C380.058 296.172 379.327 293.797 378.366 291.512L378.073 290.786C376.21 286.907 375.109 282.704 374.827 278.407C374.386 275.442 374.155 272.442 373.679 269.485H373.675C373.433 267.805 373.406 266.106 373.605 264.422L373.972 259.356C374.05 257.926 374.12 256.493 374.105 255.059C374.171 253.497 374.077 251.93 373.816 250.383C373.449 248.598 373.214 246.786 373.113 244.965C372.941 242.883 372.456 240.836 371.679 238.899C370.671 236.356 369.695 233.793 368.906 231.172V231.168C368.406 229.411 368.07 227.61 367.902 225.789C367.749 224.231 367.406 222.7 366.874 221.231C366.472 220.141 366.304 218.965 365.98 217.84L365.394 217.547L364.941 218.043L364.894 223.125L364.542 224.618L363.921 224.957L363.273 224.641L362.824 223.586H362.82C362.175 219.992 362.14 216.317 362.722 212.711C362.843 211.676 362.804 210.629 362.609 209.606C362.367 207.543 361.917 205.508 361.265 203.532C360.663 202.071 360.577 200.442 361.023 198.922C361.577 197.035 361.511 195.02 360.831 193.172C359.878 190.336 359.128 187.43 358.367 184.535H358.37C358.183 183.649 358.081 182.746 358.062 181.84C358.027 181.348 358.675 180.922 359.183 181.012C359.843 181.082 360.433 181.446 360.8 182C361.863 183.649 362.597 185.485 362.968 187.407L365.07 200.524L365.257 202.074L365.253 202.078C365.847 207.797 367.269 213.398 369.476 218.707L370.191 220.938L371.191 224.711L371.707 226.985V226.988C371.91 229.074 372.511 231.098 373.476 232.957C374.562 235.184 375.312 237.563 375.703 240.012C376.695 244.336 377.195 248.758 377.199 253.192C377.183 253.844 377.23 254.501 377.335 255.145C377.585 256.829 377.476 258.543 377.027 260.184C376.574 262.356 376.32 264.563 376.269 266.782C376.238 267.563 376.289 268.344 376.421 269.118L377.257 275.712L377.253 275.715C377.636 280.137 378.648 284.485 380.261 288.617C381.355 291.274 382.23 294.012 382.875 296.809C383.832 300.867 384.816 304.926 385.898 308.954C386.957 313.13 387.5 317.423 387.507 321.731C387.5 325.903 387.992 330.063 388.964 334.122L389.281 335.661L390.726 348.083L390.863 349.638L393.23 360.736V360.732C393.402 361.228 393.511 361.74 393.55 362.259C393.593 364.997 393.972 367.72 394.683 370.365C395.027 373.087 394.976 375.849 394.527 378.556C394.468 380.29 393.585 381.892 392.156 382.868C390.886 384.747 388.644 385.716 386.406 385.353C384.05 385.232 381.695 385.568 379.468 386.337C378.359 386.74 377.191 386.939 376.011 386.923C374.429 386.876 372.89 387.462 371.738 388.548L370.296 389.868C368.23 392.111 365.32 393.376 362.273 393.365C361.941 393.333 361.609 393.454 361.375 393.693C361.136 393.931 361.019 394.263 361.054 394.595L361.269 397.322C361.609 399.775 361.531 402.271 361.046 404.701C360.879 406.247 360.593 407.779 360.195 409.279L359.316 410.533L357.886 410.845L357.441 409.806C357.332 409.29 357.355 408.759 357.507 408.255C358.07 406.525 358.308 404.7 358.207 402.88C358.207 399.747 358.386 396.618 358.738 393.505L358.117 392.517L355.308 397.138V397.142C355.503 398.388 355.949 399.583 356.609 400.657L356.918 402.161C356.984 402.685 356.437 403.239 355.968 403.122L354.875 402.739H354.878C354.257 402.497 353.55 402.65 353.085 403.13L352.226 403.935L352.23 403.931C351.605 404.427 351.289 405.216 351.398 406.005L351.23 407.142L350.335 407.763L349.195 407.603H349.191C348.3 407.372 347.355 407.521 346.574 408.009C344.929 408.689 343.578 409.927 342.757 411.505L340.093 411.318C339.285 411.306 338.566 411.837 338.335 412.611C337.8 413.821 337.824 415.208 338.41 416.396L338.914 417.865C338.968 418.376 338.886 418.896 338.683 419.368L337.57 420.966C336.749 423.415 335.164 425.536 333.042 427.013C334.234 428.677 335.761 430.068 337.523 431.099C338.269 430.853 338.89 430.333 339.265 429.646L340.152 428.388L341.554 428.49L342.402 430.22C342.605 430.72 342.449 431.298 342.015 431.622L341.382 432.079H341.378C340.683 432.494 340.339 433.306 340.519 434.095L340.484 434.853C340.148 435.357 339.628 435.318 339.109 435.365L337.207 435.72C334.585 436.673 334.48 436.896 334.855 439.704V439.708C334.898 440.224 334.898 440.74 334.855 441.251C334.804 441.505 334.652 441.728 334.429 441.857C334.207 441.99 333.941 442.017 333.695 441.939L333.015 441.568C332.121 441.029 331.863 439.665 330.738 439.544V439.548C329.843 439.564 328.961 439.693 328.101 439.931L327.714 439.947L327.132 440.38C326.894 441.845 325.066 441.415 324.574 442.576C324.382 443.025 324.531 443.83 324.945 443.927C329.121 444.943 333.246 446.173 337.488 446.896L339.367 447.064C339.675 446.462 339.273 446.361 338.98 446.216C338.722 446.134 338.511 445.951 338.394 445.705C338.277 445.462 338.261 445.181 338.355 444.927L347.722 442.232C348.718 440.978 348.949 439.283 348.324 437.81C347.867 436.748 347.918 435.494 347.168 434.564C346.355 434.521 346.039 435.169 345.547 435.552C344.91 436.048 344.496 436.111 344.148 435.81C343.562 435.298 343.164 434.212 343.476 433.716L344.89 431.869C346.433 430.322 346.886 428.595 344.277 427.208L342.351 425.865C341.457 425.267 341.015 424.189 341.23 423.134C341.3 421.982 341.496 420.845 341.816 419.736C342.297 418.615 343.738 418.486 344.679 417.806L345.511 416.861L343.91 414.81L343.859 413.95L344.746 411.368C344.918 410.892 345.711 410.622 346.031 410.935C347.379 412.165 348.472 413.642 349.254 415.29C349.636 416.021 349.441 416.915 348.793 417.419C348.234 417.763 347.812 418.29 347.594 418.908L347.586 419.275L348.086 419.783L348.465 419.775V419.779C352.062 419.138 355.719 418.872 359.371 418.974C359.968 419.033 360.562 418.826 360.992 418.404C361.425 417.986 361.644 417.396 361.601 416.798L361.574 415.63L361.585 414.845C361.664 414.185 362.113 413.626 362.746 413.415L367.324 412.38C368.101 412.138 368.945 412.454 369.367 413.15C369.711 413.716 370.324 414.064 370.988 414.06L372.554 414.154C372.949 414.204 373.347 414.087 373.652 413.833C373.953 413.575 374.136 413.204 374.152 412.81V412.025C373.929 409.782 374.773 407.568 376.429 406.04C378.16 404.267 380.136 402.751 382.3 401.536C384.742 399.868 387.933 399.763 390.48 401.267L393.55 402.993C394.886 403.814 396.054 404.884 396.992 406.146C398.222 407.825 399.597 409.392 400.918 411.005L401.254 411.157L401.898 410.767V410.763C402.476 409.829 403.625 409.427 404.66 409.794C407.449 410.489 410.046 411.798 412.265 413.626C413.117 414.435 414.015 415.189 414.953 415.888C415.597 416.372 416.441 416.497 417.195 416.212L417.921 415.915H417.918C419.996 415.009 422.39 415.2 424.293 416.427C426.343 417.443 427.613 419.556 427.558 421.841C427.527 422.884 427.437 423.923 427.289 424.954C427.207 425.743 427.398 426.532 427.832 427.197L429.941 430.493H429.945C430.32 431.021 430.554 431.638 430.625 432.286C430.734 434.115 430.343 435.943 429.492 437.564L428.933 438.087L427.832 438.154L427.363 437.595H427.359C427.257 437.087 427.226 436.568 427.269 436.048C427.351 434.341 426.968 432.646 426.16 431.142C425.711 429.958 424.804 429.009 423.64 428.509C422.48 428.013 421.164 428.009 420 428.501C419.14 428.802 418.32 429.197 417.547 429.677C417.066 429.908 416.699 430.326 416.535 430.833C416.367 431.341 416.418 431.896 416.672 432.365L418.629 436.2C419.277 437.357 419.394 438.736 418.945 439.986C418.726 440.447 418.382 440.833 417.949 441.107C417.492 441.411 416.882 441.341 416.507 440.943L416.113 439.935C416.652 438.154 416.148 436.22 414.816 434.927C413.586 433.06 411.718 431.7 409.558 431.107C408.812 430.9 408.05 430.767 407.277 430.704C406.371 430.72 405.465 430.591 404.601 430.314C404.05 430.107 403.437 430.146 402.914 430.419C402.394 430.697 402.015 431.181 401.879 431.755L401.515 434.06C401.445 434.474 401.191 434.818 400.746 434.767L399.73 434.357L398.996 432.583L398.453 432.271L397.914 432.747L397.625 435.048C397.55 435.533 396.793 435.736 396.347 435.458C395.773 435.122 395.41 434.521 395.383 433.857C395.394 433.337 395.441 432.822 395.519 432.31V431.255L395.07 431.044C394.047 431.376 392.933 430.919 392.433 429.966C391.676 428.857 391.625 427.411 392.297 426.251C392.898 425.369 393.883 424.826 394.953 424.794C395.746 424.63 396.554 424.997 396.949 425.708L397.465 426.759L398.109 427.376C399.172 426.97 400.254 426.638 401.359 426.376C404.414 425.841 403.871 424.607 402.617 422.638C401.851 421.576 400.804 420.747 399.597 420.244C398.984 420.017 398.3 420.052 397.711 420.341C396.953 420.611 396.105 420.372 395.597 419.74C395.203 419.204 394.582 418.884 393.918 418.876C392.75 418.708 391.562 418.927 390.527 419.494L389.941 420.013C388.89 420.83 388.886 420.826 387.726 419.931C387.203 419.529 386.637 419.529 386.414 419.966V419.97C385.781 421.107 385.215 422.279 384.711 423.478C384.492 424.224 384.402 425.001 384.449 425.779C384.449 426.689 384.64 427.595 384.621 428.501L383.941 429.298L382.933 428.931L381.609 426.427C380.926 426.865 380.965 427.677 380.652 428.267C379.652 430.119 378.066 431.583 376.144 432.439C375.726 432.626 375.246 432.603 374.847 432.376C374.449 432.15 374.183 431.747 374.129 431.29C373.769 429.857 374.328 428.349 375.539 427.501C376.07 427.072 376.242 426.337 375.961 425.716L374.68 422.357C372.062 422.134 369.437 422.095 366.816 422.236C366.141 422.294 365.574 422.771 365.414 423.431L364.727 426.076C364.613 426.427 364.379 426.849 363.898 426.704L362.988 426.118V426.115C362.457 424.927 361.754 423.829 360.891 422.857C360.484 421.197 359.234 421.06 357.836 421.126L348.066 421.544V421.54C346.894 421.63 345.754 421.993 344.746 422.599L344.125 423.47L344.691 424.372C346.074 424.79 347.289 425.622 348.18 426.763L349.043 427.552L349.727 427.861C351.523 427.318 352.527 429.009 354.02 429.365V429.361C355.535 429.767 357.016 430.286 358.449 430.919C360.461 431.845 362.547 432.607 364.68 433.208C365.719 433.38 366.695 433.826 367.5 434.501C369.309 436.384 371.793 436.142 373.953 436.888L375.074 436.732C375.891 436.322 376.844 436.271 377.699 436.595C381.566 437.747 385.496 438.677 389.469 439.388L392.95 439.931C396.438 440.372 399.903 440.994 403.329 441.802L407.161 442.576L412.559 443.509L414.098 443.786C417.356 443.951 420.614 444.115 423.872 444.224H423.868C425.055 444.392 426.247 443.947 427.028 443.036C427.485 442.54 428.188 442.353 428.833 442.556C430.766 442.849 432.712 443.048 434.665 443.15C436.727 443.49 438.84 443.341 440.837 442.716C441.563 442.443 442.348 443.158 442.454 444.017C442.551 444.685 442.133 445.322 441.481 445.497L438.758 445.74C438.231 445.794 437.79 446.169 437.653 446.681C436.918 448.708 436.907 448.704 434.583 449.962L432.684 455.372L432.68 455.369C432.493 455.994 432.18 456.572 431.766 457.076C430.704 458.396 429.872 459.884 429.301 461.478C428.075 464.068 426.965 466.724 425.993 469.419C425.567 470.919 424.766 472.283 423.673 473.388L422.747 474.619L422.106 474.576L421.95 474.255C422.368 472.755 422.876 471.283 423.477 469.849C424.7 466.685 426.153 463.619 427.817 460.665L428.165 459.568C428.34 458.267 428.833 457.029 429.598 455.966C430.536 454.099 431.184 452.099 431.512 450.036C431.54 449.497 431.165 449.021 430.633 448.915C429.872 448.763 429.094 448.732 428.321 448.822C427.169 449.001 425.993 448.974 424.848 448.747C422.418 448.263 419.942 448.029 417.465 448.044L416.981 448.947L417.969 450.626H417.965C418.653 451.747 418.989 453.048 418.934 454.361C419.028 455.978 418.079 457.474 416.579 458.076C415.313 458.771 413.887 459.126 412.442 459.111C409.7 459.079 406.973 458.732 404.309 458.076C401.958 457.329 399.626 456.482 397.317 455.595V455.599C396.731 455.314 396.204 454.923 395.766 454.443C395.051 453.833 394.7 452.908 394.821 451.978C394.918 450.025 395.2 448.08 395.661 446.177L395.61 445.349L394.668 444.763L392.766 444.329V444.326C386.297 443.447 379.926 441.962 373.735 439.896L371.106 439.189L370.384 439.88L371.235 446.845H371.231C371.321 447.357 371.325 447.88 371.243 448.392C370.821 451.626 370.575 454.876 370.505 458.138C370.442 458.65 370.497 459.169 370.665 459.661C371.11 461.435 371.032 463.302 370.438 465.036L370.247 465.372L369.606 465.642L369.032 465.193L368.755 464.072C368.755 462.767 368.77 461.458 368.88 460.161C368.934 459.259 368.903 458.353 368.79 457.454C368.591 455.396 368.567 453.318 368.532 451.247C368.559 450.728 368.688 450.216 368.907 449.747C369.216 449.165 369.29 448.486 369.118 447.849C368.864 446.837 368.817 445.783 368.977 444.751C369.407 442.826 369.204 440.818 368.399 439.021C367.993 437.533 367.298 436.982 365.598 436.783L364.802 437.47C364.786 439.029 364.919 440.583 365.192 442.118C365.665 444.154 365.759 446.259 365.462 448.325C365.263 449.208 365.177 450.115 365.196 451.021C365.321 452.021 364.973 453.075 365.059 454.087V454.091C365.227 454.986 365.477 455.864 365.802 456.72C366.278 458.361 366.161 460.118 365.47 461.685L364.93 462.071L364.298 461.7C363.751 460.673 363.067 459.653 363.743 458.403L363.915 457.657H363.911C363.673 456.255 363.532 454.837 363.485 453.415C363.114 451.907 363.212 450.321 363.766 448.872C364.001 447.989 364.013 447.06 363.798 446.169C363.567 444.759 363.063 443.388 362.848 441.978C362.638 440.564 362.661 439.126 362.548 437.704L362.177 436.618L361.145 436.2L360.149 436.685L359.876 437.392L359.454 440.517L360.407 442.611H360.411C360.614 443.095 360.723 443.611 360.727 444.13L360.38 449.169C359.684 451.15 359.751 453.321 360.571 455.251C360.806 456.271 361.153 457.259 361.61 458.2C362.079 459.126 362.388 460.13 362.52 461.161C362.692 461.919 362.911 462.669 363.173 463.4C363.434 464.13 363.579 464.9 363.591 465.673C363.419 466.884 364.142 468.044 365.306 468.419L369.567 470.361L370.688 470.712C374.638 471.54 378.599 472.333 382.481 473.45L382.864 473.505V473.509C385.075 473.466 387.282 473.79 389.388 474.474C391.407 474.974 393.454 475.368 395.513 475.654C398.063 476.161 400.641 476.525 403.231 476.736C403.751 476.696 404.274 476.755 404.774 476.903C407.282 477.681 409.942 477.825 412.52 477.329C415.372 477.044 418.235 476.919 421.099 476.958L422.27 476.97H422.274C423.208 476.978 424.087 476.528 424.626 475.767L426.145 473.493C427.411 471.685 428.481 469.747 429.341 467.716C430.048 465.614 430.86 463.552 431.778 461.532C432.954 458.782 434.349 456.126 435.946 453.599C436.349 453.099 436.849 452.685 437.411 452.376L438.13 452.419L438.724 453.345L438.622 454.107L435.903 460.165L434.993 461.896C433.786 465.638 431.7 468.978 430.169 472.568L430.165 472.564C429.337 474.771 428.04 476.771 426.368 478.431C426.028 478.826 425.583 479.111 425.087 479.263C423.915 479.423 422.86 480.044 422.153 480.99L420.72 481.497L415.638 481.72C413.419 481.755 411.2 481.728 408.981 481.732C407.153 481.755 405.329 481.595 403.532 481.259C402.122 480.997 400.692 480.869 399.259 480.869C397.177 480.841 395.099 480.622 393.06 480.208C389.997 479.615 386.864 479.4 383.763 478.986L381.903 478.49L376.22 475.896L374.356 475.388L369.763 474.392L367.962 473.681V473.685C366.802 473.107 365.599 472.611 364.368 472.204C362.446 471.818 360.645 470.958 359.134 469.708C358.485 469.232 357.79 468.818 357.059 468.478L355.681 469.2V469.197C355.399 469.38 355.04 469.388 354.747 469.224C354.458 469.06 354.282 468.747 354.29 468.415L353.938 464.919C353.813 463.599 353.04 462.431 351.876 461.794C351.243 461.302 350.372 461.236 349.673 461.63L348.681 462.255V462.259C348.138 462.654 347.415 462.697 346.829 462.368C345.681 461.743 344.368 461.497 343.071 461.669C341.903 461.673 340.735 461.595 339.575 461.431C338.54 461.337 337.505 461.126 336.47 461.134H336.473C334.638 461.154 332.825 460.704 331.208 459.829C329.391 459.099 327.688 458.118 326.141 456.915C325.755 456.521 325.134 456.482 324.7 456.829C323.47 457.825 321.962 457.536 320.571 457.673C319.923 457.634 319.294 457.427 318.751 457.068C316.536 456.31 314.243 455.814 311.911 455.587C311.376 455.45 310.692 455.888 310.142 456.04C309.227 455.634 309.134 454.419 308.024 454.314C306.72 454.122 305.392 454.521 304.403 455.396L304.067 456.044L304.813 456.829L305.962 456.9V456.896C307.524 456.72 309.102 456.876 310.602 457.353C313.341 458.204 316.177 458.7 319.04 458.825C322.028 459.048 324.974 459.7 327.774 460.767L328.403 461.661L327.579 462.821L327.208 462.935V462.939C325.661 462.614 324.052 463.032 322.864 464.075C322.001 464.728 320.848 464.853 319.864 464.4C318.239 463.915 316.567 463.607 314.876 463.474L313.716 463.4C312.223 464.154 311.044 464.216 310.227 462.431C310.075 462.095 309.317 461.872 308.845 461.876C305.321 461.802 301.817 461.329 298.399 460.47C297.63 460.364 296.884 460.107 296.212 459.716C294.56 458.552 293.525 457.646 294.61 455.122L295.349 453.31C295.564 452.7 295.689 452.056 295.72 451.407C295.708 449.978 295.606 448.548 295.489 447.118H295.485C295.45 446.583 295.083 446.126 294.564 445.974L292.282 445.509C291.755 445.458 291.271 445.197 290.939 444.782C290.606 444.368 290.454 443.841 290.513 443.314C290.689 442.161 290.622 440.982 290.317 439.857C290.177 438.954 290.153 438.044 290.239 437.138C290.278 436.876 290.446 436.65 290.685 436.532C290.923 436.415 291.204 436.419 291.439 436.548L293.274 437.45L293.927 436.614H293.923C294.556 434.083 295.005 431.513 295.267 428.919C295.325 428.009 295.356 427.095 295.337 426.185C295.396 425.724 295.263 425.259 294.97 424.899C294.673 424.544 294.243 424.321 293.782 424.29L291.962 423.923L291.958 423.927C291.505 422.946 290.958 422.009 290.325 421.134C289.286 419.774 288.892 418.032 289.239 416.357L289.681 415.775L290.747 415.876L292.489 417.442C292.845 417.942 293.11 418.528 293.79 418.689L294.517 418.06L294.165 417.485L294.169 417.489C293.599 417.22 292.935 417.247 292.392 417.56L292.39 417.56ZM340.285 389.982L340.914 390.353L340.937 390.123L340.199 390.072C340.133 388.377 338.945 386.935 337.301 386.541L336.676 386.838L336.609 387.197L336.68 387.552C337.633 388.732 338.531 389.998 340.285 389.982L340.285 389.982ZM316.387 437.576C315.801 437.978 315.739 438.674 315.446 439.236C315.071 439.963 314.379 440.291 313.906 439.982L313.91 439.986C313.488 439.658 313.356 439.076 313.594 438.599L314.391 436.826H314.387C314.692 436.236 314.656 435.529 314.297 434.974C313.934 434.42 313.305 434.103 312.641 434.142C311.317 434.322 310.02 433.662 309.379 432.49C308.969 431.834 308.789 431.06 308.867 430.291C308.899 429.9 308.77 429.51 308.512 429.213C308.258 428.912 307.891 428.728 307.496 428.701C306.739 428.568 305.957 428.588 305.203 428.764C303.985 429.24 302.625 429.217 301.418 428.697L300.278 428.521C299.492 428.443 298.735 429.416 299.086 430.088C299.629 431.123 300.293 432.096 300.781 433.154H300.778C301.66 434.643 301.656 436.498 300.77 437.982C298.781 440.924 299.992 441.17 302.18 442.24L303.594 442.892C306.367 444.357 309.496 445.018 312.625 444.803C313.789 444.756 314.949 444.607 316.09 444.353C316.551 444.318 316.981 444.1 317.281 443.748C317.582 443.396 317.731 442.939 317.696 442.479C317.645 441.834 317.891 441.201 318.36 440.76C319.305 439.787 319.262 439.279 318.391 438.584H318.395C317.883 437.998 317.164 437.639 316.387 437.572V437.576ZM390.742 416.56L393.531 416.302C394.32 416.126 394.879 415.427 394.883 414.622C394.699 412.419 394.265 410.244 393.59 408.142C393.359 407.392 392.828 406.771 392.125 406.419C390.015 405.404 387.738 404.775 385.406 404.556C383.965 404.361 382.519 404.865 381.515 405.919C380.832 406.693 380.078 407.408 379.265 408.044C377.695 409.079 376.984 411.017 377.512 412.826L378.144 415.872C378.285 416.634 378.625 417.349 379.125 417.943C379.703 418.798 380.242 419.681 380.73 420.587L381.515 421.919L382.156 421.9L384.172 418.583H384.176C385.012 417.224 386.496 416.404 388.094 416.411C388.738 416.396 389.391 416.482 390.742 416.556L390.742 416.56ZM410.472 447.443H410.476C409.175 446.986 407.831 446.646 406.468 446.435C400.734 446.099 401.671 445.088 400.21 450.58L400.113 450.959C399.902 452.131 400.413 453.318 401.413 453.97C402.3 454.525 403.312 454.841 404.359 454.884C406.308 454.923 408.245 455.177 410.14 455.638C410.573 455.814 411.066 455.787 411.476 455.564C411.886 455.341 412.175 454.943 412.261 454.486C412.523 453.353 412.722 452.205 412.855 451.052L412.675 449.955L410.472 447.443ZM323.999 430.533L322.878 430.42H322.882C321.222 430.056 319.499 430.127 317.874 430.627C317.218 430.787 316.796 431.428 316.917 432.096L317.104 433.236V433.232C317.655 434.267 318.308 435.24 319.05 436.146C319.8 437.096 320.987 437.588 322.186 437.443C324.026 437.396 325.761 436.584 326.979 435.205C327.608 434.154 328.913 433.728 330.042 434.205C331.558 434.732 333.241 434.248 334.245 432.998L334.347 432.299L333.921 431.674H333.925C331.69 430.103 329.261 428.842 326.694 427.916L326.374 428.029L326.233 428.732L327.604 431.932L327.218 432.541C326.772 432.814 326.214 432.83 325.753 432.58C324.78 432.224 324.698 431.154 324.003 430.525L323.999 430.533ZM299.866 418.533L299.87 418.529C300.745 418.287 301.452 417.638 301.772 416.783C302.69 415.045 304.327 413.799 306.245 413.377L309.51 412.201L309.717 411.205C308.671 410.221 307.225 409.779 305.803 410.017C304.878 410.197 304.335 409.638 304.264 408.724C304.194 407.838 304.421 406.904 303.717 406.15C303.374 405.779 303.182 405.263 302.596 405.158C302.182 405.084 301.577 405.635 301.366 406.435C300.987 407.533 300.721 408.666 300.577 409.818C300.417 412.642 300.12 415.455 299.678 418.248L299.866 418.533ZM331.835 416.103L331.421 416.111L331.425 416.107C330.577 416.388 329.773 416.791 329.042 417.303C328.292 417.978 328.831 419.021 328.819 419.904L328.659 421.053H328.655C328.573 421.295 328.39 421.498 328.155 421.607C327.921 421.713 327.651 421.72 327.409 421.627L325.058 420.303L323.956 420.072L321.456 421.045L321.179 421.717L321.175 421.713C321.104 422.498 321.409 423.275 321.999 423.802C322.589 424.33 323.393 424.545 324.171 424.385L325.28 424.076C326.261 423.22 327.597 422.908 328.854 423.236C329.374 423.24 329.89 423.181 330.394 423.052C331.319 423.002 332.147 422.443 332.538 421.599C332.687 421.088 333.081 420.681 333.593 420.525C334.101 420.373 334.655 420.486 335.062 420.83L335.706 420.615L335.69 420.221L334.745 418.564C333.835 417.674 332.804 416.904 331.835 416.096V416.103ZM421.855 424.068L422.73 424.361L423.816 424.388C424.109 424.345 423.988 423.638 423.656 422.994L423.652 422.99C422.41 420.678 420.374 418.892 417.921 417.959C417.281 417.763 416.589 418.049 416.277 418.638C416.019 419.088 415.867 419.584 415.828 420.095C415.757 422.06 415.171 423.967 414.128 425.631C413.593 426.517 412.984 427.357 412.308 428.142L412.433 428.814L413.109 429.049L414.429 428.287C415.746 427.029 416.98 425.685 418.308 424.447V424.443C418.988 423.799 419.956 423.557 420.859 423.807L421.855 424.068ZM360.429 465.83L360.488 465.303C360.409 463.615 360.156 461.939 359.738 460.307C359.308 458.678 359.015 457.018 358.859 455.342C358.765 454.432 358.37 453.576 357.738 452.916L357.378 452.815L357.128 452.982C356.749 455.029 356.851 457.139 357.429 459.143C357.757 459.842 357.171 460.275 356.468 460.522L355.671 461.236V461.233C355.624 462.666 355.991 464.088 356.726 465.318L357.316 465.807L359.593 466.307L360.429 465.83ZM339.491 406.908C338.803 405.279 337.257 404.666 336.135 403.635C335.198 402.857 333.835 402.869 332.905 403.654L330.862 405.314C331.135 406.619 331.874 407.779 332.94 408.576C333.674 409.338 334.756 409.654 335.788 409.412C337.339 409.182 338.698 408.256 339.491 406.9L339.491 406.908ZM317.679 411.455L316.929 411.576L313.941 413.4C312.976 413.928 312.644 414.615 313.488 415.572L315.679 417.795L316.741 418.107L316.738 418.111C318.386 417.717 319.96 417.061 321.398 416.162L321.609 415.119L318.363 411.775L317.679 411.455ZM319.023 399.021L314.792 394.513V394.509C314.273 394.084 313.515 394.123 313.042 394.595L312.148 396.275C311.82 396.931 310.863 397.22 311.07 398.302L312.702 400.283C314.074 401.908 314.581 402.021 316.253 400.966L319.023 399.021ZM408.082 416.533V416.529C407.359 416.006 406.597 415.537 405.804 415.131C404.965 414.818 404.094 414.592 403.203 414.459C402.406 414.357 401.64 414.83 401.375 415.588C400.902 416.4 401.043 417.428 401.711 418.084L404.797 421.002L405.793 421.592C406.09 421.724 406.425 421.728 406.718 421.599C407.015 421.471 407.246 421.224 407.351 420.92L408.082 416.533ZM311.945 419.799L311.91 419.42V419.416C311.132 417.697 309.187 416.834 307.39 417.408L304.773 418.08C304.285 418.263 303.906 418.654 303.742 419.15C303.578 419.642 303.644 420.185 303.925 420.623C304.457 421.338 305.07 421.994 305.753 422.572L306.835 422.756C308.281 422.224 309.703 421.627 311.105 420.99L311.863 420.154L311.945 419.799ZM352.988 399.166C351.781 397.384 349.929 396.142 347.828 395.693L346.73 395.974L345.308 397.767L345.421 398.857L347.91 401.83H347.902C348.132 402.154 348.495 402.361 348.89 402.392C349.288 402.427 349.679 402.279 349.956 401.994L352.988 399.166ZM292.48 409.541L293.816 408.197L295.308 408.056L295.659 407.455L295.308 406.447C293.171 405.912 291.984 404.127 290.413 402.849L289.132 402.064L288.113 402.318C287.601 403.209 287.171 404.146 286.835 405.119L287.304 406.111L288.281 406.638C289.058 406.552 289.831 406.857 290.343 407.451L292.48 409.541ZM321.398 409.31C322.05 410.97 323.081 412.451 324.409 413.642C324.8 413.978 325.308 414.146 325.82 414.103C327.12 413.943 328.335 413.349 329.265 412.423L329.324 410.638L326.87 408.72V408.724C326.253 408.22 325.417 408.08 324.671 408.349L321.398 409.31ZM332.933 399.568L332.679 398.83C332.503 398.048 331.941 397.412 331.191 397.138C330.437 396.865 329.597 396.998 328.96 397.486L326.073 399.501L325.812 400.939L327.343 402.677L328.429 402.931V402.927C330.054 402.439 331.523 401.529 332.683 400.283L332.933 399.568ZM351.253 452.998C351.253 452.67 351.225 452.342 351.175 452.021L350.831 450.908C350.296 449.728 349.893 448.49 349.636 447.221L348.78 446.639C347.311 447.201 346.12 448.314 345.464 449.74C345.206 450.357 345.319 451.06 345.745 451.568C346.968 452.732 348.358 453.709 349.87 454.459C350.542 454.693 351.214 454.291 351.249 453.002L351.253 452.998ZM341.733 399.963L339.847 400.522H339.85C339.116 400.869 338.78 401.725 339.077 402.475C339.655 403.772 340.518 404.92 341.6 405.834C341.991 406.193 342.554 406.291 343.042 406.088L345.729 404.619L346.03 403.244L344.136 400.818C343.503 400.186 342.616 399.873 341.725 399.967L341.733 399.963ZM336.042 393.283L333.421 394.514L333.198 395.166C333.753 396.178 334.37 397.15 335.046 398.084C335.483 398.6 336.19 398.795 336.831 398.576C337.921 398.197 338.987 397.744 340.019 397.225L340.241 396.549L339.972 395.838V395.834C339.101 394.443 337.659 393.51 336.034 393.283H336.042ZM350.003 431.01L349.616 431.479L350.64 432.6V432.596C351.663 433.596 352.417 434.838 352.827 436.209C353.507 437.76 353.589 439.51 353.058 441.116L353.448 442.123L354.991 443.541L355.843 442.166C355.999 441.541 356.011 440.885 355.874 440.256C355.354 438.26 354.741 436.291 354.124 434.319L353.472 433.385L350.003 431.01ZM306.843 400.108L305.062 401.972C304.679 402.358 304.648 402.968 304.984 403.393C305.335 403.936 305.765 404.429 306.257 404.85C306.663 405.159 307.167 405.307 307.675 405.264C308.437 405.104 309.171 404.831 309.847 404.448C310.28 404.151 310.542 403.663 310.55 403.139C310.562 402.612 310.319 402.116 309.902 401.8L306.843 400.108ZM322.667 405.214L322.378 404.487L321.319 403.339C320.78 402.71 319.839 402.624 319.19 403.14L317.593 404.261L317.397 405.288L319.05 406.917L319.784 407.034L319.788 407.038C320.952 406.839 321.983 406.182 322.663 405.214H322.667ZM313.214 427.503H313.21C313.964 427.491 314.71 427.421 315.452 427.288C316.069 427.116 316.647 426.819 317.147 426.413L317.448 425.405C317.311 424.889 316.811 424.55 316.28 424.624C314.757 424.936 313.347 425.659 312.202 426.71L312.171 427.085L312.378 427.343L313.214 427.503ZM315.694 408.855C315.741 408.202 315.468 407.566 314.96 407.156C314.452 406.741 313.776 406.601 313.147 406.784C311.511 407.366 311.296 408.507 312.612 409.679L313.261 410.097H313.257C313.745 410.288 314.288 410.261 314.753 410.023C315.218 409.784 315.558 409.359 315.686 408.855L315.694 408.855ZM373.049 420.039L372.655 419.414C371.706 418.734 370.612 418.285 369.459 418.097L368.706 418.156C368.19 418.261 367.776 418.64 367.62 419.144C367.506 419.55 367.92 420.054 368.514 420.172C369.87 420.57 371.288 420.726 372.698 420.629L373.049 420.039ZM319.94 449.734L318.671 449.917L318.249 450.464L318.382 450.788H318.378C319.14 451.66 320.19 452.222 321.335 452.367L321.694 452.245V452.249C322.128 451.96 322.347 451.437 322.249 450.925L321.659 450.066L319.94 449.734ZM327.764 394.007L327.589 393.288L326.268 391.956L325.249 391.972L324.893 392.581L325.319 394.8L325.944 395.085L327.358 394.593L327.764 394.007ZM398.416 447.816L398.745 446.359L398.491 446.105L397.885 446.335V446.339C397.561 448.367 397.487 450.429 397.663 452.476L398.252 452.671L398.498 452.409C398.065 450.913 398.038 449.331 398.413 447.82L398.416 447.816ZM357.998 449.64V449.644C358.006 448.507 357.373 447.46 356.362 446.945L355.737 447.269V447.265C355.362 448.359 355.784 449.562 356.752 450.187L357.998 449.64ZM301.947 424.417L301.951 424.421C301.846 423.897 301.459 423.479 300.947 423.339C300.412 423.265 299.912 423.608 299.787 424.132C299.69 424.636 299.658 425.147 299.686 425.659C299.733 425.913 299.893 426.136 300.119 426.261C300.346 426.386 300.615 426.401 300.858 426.308C301.584 425.976 302.026 425.218 301.943 424.421L301.947 424.417ZM365.17 417.241L364.6 416.87H364.604C364.284 416.893 363.987 417.05 363.788 417.3C363.585 417.55 363.499 417.87 363.542 418.19L364.073 418.565V418.561C364.733 418.487 365.213 417.905 365.17 417.245L365.17 417.241ZM317.936 446.721H317.944C318.702 447.17 319.604 447.311 320.46 447.116L320.729 446.862L320.561 446.6C319.706 446.299 318.765 446.342 317.936 446.721H317.936ZM288.573 376.498C288.249 376.412 287.999 376.834 288.089 377.311C288.167 377.721 288.355 378.061 288.808 378.072L289.48 377.861L289.21 376.873L288.573 376.498ZM280.413 340.959L280.636 340.666L280.234 339.69L279.648 339.861L280.07 340.834L280.413 340.959ZM348.085 388.104L347.831 388.428L348.488 389.135L349.066 388.842L348.972 388.526L348.085 388.104ZM322.538 396.077L321.593 395.71L321.378 395.967L322.062 396.659L322.538 396.077ZM344.6 395.698L344.674 395.354L344.049 395.296L343.975 395.624L344.6 395.698ZM415.76 455.311L416.014 454.799L415.768 454.709L415.483 455.209L415.76 455.311ZM433.49 445.971L433.311 445.788L433.006 445.78L433.213 446.065L433.49 445.971ZM289.71 396.205L290.159 396.666L290.343 396.385L289.878 395.873L289.71 396.205ZM302.495 394.092L302.159 394.615L302.655 394.85L302.847 394.572L302.495 394.092ZM409.765 422.287L409.652 421.927L409.562 422.197L409.765 422.287Z" fill="#C0C0C0"/>
<path d="M311.75 223.41C312.133 225.019 312.855 226.527 313.867 227.836C314.531 228.805 314.984 229.906 315.195 231.062C315.543 232.016 316.043 232.648 317.16 232.594L317.84 232.894L318.086 233.566C317.605 234.769 317.012 235.926 316.312 237.019C314.074 240.066 312.184 243.328 310.137 246.496H310.133C309.574 247.43 308.414 247.812 307.406 247.398C306.926 247.176 306.676 246.644 306.812 246.133L307.445 245.172C308.223 244.242 308.391 242.941 307.875 241.844C305.496 243.258 302.879 244.226 300.152 244.695L299.012 244.672L298.281 243.867L298.562 243.211L301.363 241.875C302.25 241.52 302.719 240.547 302.445 239.629C301.988 237.875 301.351 236.168 300.547 234.539C299.316 232.406 298.375 230.117 297.75 227.738C297.582 227.109 297.215 226.551 296.703 226.148C295.023 224.598 293.75 222.66 292.996 220.504C291.156 219.68 289.426 218.633 287.844 217.383C286.344 216.137 284.699 215.074 282.941 214.223C281.996 213.777 281.117 213.203 280.332 212.516C277.773 210.508 275.312 208.367 272.684 206.461C271.238 205.352 269.898 204.113 268.684 202.758L268.176 202.164C266.973 199.68 264.871 197.82 263.535 195.418C262.656 193.836 261.273 192.594 260.426 190.938C259.648 189.008 258.754 187.129 257.742 185.309L257.668 183.809C258.316 181.828 259.32 179.981 260.633 178.363C261.652 177.363 262.5 176.188 263.426 175.09C264.863 173.25 266.551 171.613 268.437 170.231C269.816 169.246 271.059 168.082 272.133 166.774C274.008 164.578 276.367 162.906 278.312 160.797H278.309C279.758 159.277 281.562 158.152 283.562 157.52C287.812 155.836 291.754 153.469 295.234 150.504C295.871 150.055 296.41 149.485 296.82 148.824C297.891 147.008 299.523 145.598 301.473 144.801C303.211 143.914 304.887 142.91 306.488 141.797C307.406 141.317 308.125 140.524 308.512 139.563L309.684 138.598C310.383 138.176 311.273 138.258 311.883 138.801C312.656 139.496 313.34 140.285 313.914 141.153C315.301 143.352 316.613 145.602 317.879 147.871C318.137 148.465 318.277 149.102 318.297 149.746C318.391 150.594 317.89 151.074 316.898 151.203H316.508C315.73 151.297 315.215 151.828 315.398 152.422C315.816 154.059 316.383 155.653 317.098 157.18C318.391 159.328 318.867 161.867 318.445 164.336C318.281 165.102 318.223 165.887 318.262 166.672C318.285 169.805 317.672 172.914 316.465 175.805L313.762 183.137H313.758C312.617 186.055 311.105 188.817 309.262 191.352L308.441 192.184C308.059 192.551 307.512 192.688 307.004 192.543C306.492 192.398 306.098 191.992 305.969 191.481C305.519 190.359 305.742 189.082 306.547 188.184L307.746 187.203V187.199C308.473 186.641 309.051 185.906 309.426 185.07C309.777 184.508 309.859 183.816 309.656 183.188C309.449 182.555 308.98 182.047 308.367 181.793L307.324 181.281L307.437 179.289C306.765 178.246 305.98 177.211 305.394 176.078C304.851 175.047 304.523 173.902 304.082 172.82L303.402 171.426H303.406C303.011 171.063 302.816 170.535 302.871 170.004C302.926 169.477 303.23 169.004 303.691 168.731L303.859 168.395L303.39 167.445L302.676 167.461L302.679 167.457C301.519 168.692 300.16 169.719 298.656 170.496C297.035 171.574 295.492 172.777 293.953 173.969L292.965 175.164V175.16C292.133 176.633 290.926 177.86 289.472 178.715C287.008 180.664 284.125 182.012 281.051 182.649C280.137 182.852 279.195 182.926 278.742 183.863C277.992 185.113 277.91 186.656 278.527 187.981C279.265 189.363 280.191 190.637 281.285 191.762C284.215 195.09 286.898 198.625 289.312 202.34C291.48 205.438 293.933 208.324 296.64 210.965C298.015 212.535 299.574 213.93 301.289 215.121L302.398 216.211C304.55 218.652 307.043 220.769 309.8 222.496C310.418 222.863 311.074 223.168 311.75 223.41L311.75 223.41ZM301.688 154.816C303.032 154.914 304.376 154.617 305.551 153.953L305.989 152.988L305.856 152.64C305.563 152.093 305.813 151.687 306.168 151.277L306.747 150.359C306.833 150.082 306.102 149.652 305.508 149.613V149.617C304.997 149.562 304.485 149.558 303.973 149.605L302.93 150.039C301.793 151.089 300.887 152.359 300.258 153.773L300.707 154.699L301.688 154.816ZM278.774 173.48L278.309 172.921L277.618 172.964H277.614C276.907 174.035 275.735 174.71 274.454 174.789L273.821 175.16L273.653 175.843L274.18 176.257C275.754 175.808 277.243 175.101 278.582 174.164L278.774 173.48ZM300.657 163.328L300.415 162.695L299.782 162.281C299.329 162.027 298.751 162.172 298.47 162.609C298.345 163.121 298.591 163.644 299.063 163.875C299.345 164.019 299.673 164.043 299.973 163.941C300.274 163.836 300.52 163.617 300.653 163.328L300.657 163.328ZM312.618 239.027L312.126 237.957L311.13 237.609L310.692 238.906L311.559 239.453L312.618 239.027ZM314.134 147.136C314.079 146.628 313.755 146.191 313.286 145.988L312.927 146.023L312.614 146.652V146.648C312.677 147.167 313.126 147.55 313.645 147.538L314.134 147.136ZM286.099 167.659L285.634 167.054L284.888 167.612L285.427 168.292L286.099 167.659ZM314.587 166.96L314.368 167.057L314.583 167.159L314.587 166.96ZM303.54 163.315L303.817 163.186L303.29 163.128L303.54 163.315ZM287.102 163.026L287.078 163.241L287.352 163.163L287.102 163.026Z" fill="#C0C0C0"/>
<path d="M331.85 117.42L333.764 116.326C336.366 114.838 339.139 113.674 342.026 112.853C343.53 112.436 345.069 112.15 346.623 112.002C348.682 111.674 350.741 111.342 352.803 111.088C353.838 110.963 354.885 110.939 355.924 111.014C358.002 111.225 360.1 111.111 362.143 110.678L364.084 110.463C366.42 110.322 367.206 110.721 368.069 112.775C368.635 113.947 369.006 115.205 369.167 116.498C369.366 118.967 369.354 121.443 369.139 123.912C368.831 127.189 367.416 130.264 365.124 132.631L363.053 134.983C362.6 135.443 362.256 136.002 362.045 136.619C361.444 138.346 360.452 139.916 359.147 141.201C358.573 141.733 358.077 142.338 357.667 143.002C356.733 144.588 355.284 145.807 353.561 146.459L346.065 149.791C345.112 150.244 344.022 150.33 343.006 150.029L339.327 148.736C337.799 149.068 336.459 149.975 335.577 151.264C334.983 152.143 334.092 152.771 333.069 153.037C332.561 153.213 331.999 153.068 331.635 152.674L330.557 151.064C329.249 149.756 328.831 147.896 327.569 146.521H327.573C326.51 145.205 325.577 143.787 324.788 142.291L323.108 139.201C322.487 138.146 322.678 136.799 323.565 135.959L324.147 135.037L323.569 134.439C322.995 134.08 322.776 133.35 323.057 132.732C323.338 131.826 324.206 131.232 325.155 131.299L327.323 132.115C328.19 132.486 329.198 132.24 329.803 131.514C330.272 131.033 330.362 130.303 330.026 129.721L328.96 128.584C327.483 127.142 327.432 124.779 328.85 123.279L330.502 121.099V121.096C330.803 120.654 330.795 120.072 330.479 119.642C330.155 119.088 329.936 118.447 329.292 118.139L328.612 117.756C326.174 116.498 323.991 114.795 322.174 112.74L321.014 111.697C318.795 110.51 317.44 108.307 315.338 106.971C314.252 105.935 314.1 104.26 314.975 103.041L316.627 101.431L316.752 100.689C316.159 98.8065 316.256 96.7713 317.022 94.9549C317.319 94.3728 317.526 93.7518 317.635 93.1111C317.823 91.4041 318.686 89.8494 320.026 88.7791C323.026 85.8729 326.467 83.4666 330.229 81.6502L332.78 80.7049C333.881 80.3142 335.033 80.033 336.092 79.5408C339.096 78.2127 342.448 77.8846 345.651 78.6033C348.115 78.8845 350.537 79.4314 352.881 80.24C353.627 80.4978 354.44 80.486 355.182 80.2087C356.346 79.8884 357.592 80.2634 358.393 81.1696C359.123 81.9079 359.764 82.7283 360.307 83.615C360.76 84.4079 361.116 85.2516 361.369 86.1305C362.393 89.3493 363.217 92.6149 364.534 95.7633C365.475 98.4703 366.01 101.306 366.116 104.174C366.108 104.814 365.983 105.447 365.744 106.041L364.424 106.693L363.463 106.095L362.659 103.912C361.967 101.267 361.057 98.6891 359.94 96.197C358.666 93.4822 357.815 90.5915 357.416 87.6189C357.303 85.4431 355.737 83.615 353.6 83.1775C351.834 82.7283 350.112 82.1306 348.334 81.7205H348.338C345.502 81.2947 342.643 81.0838 339.776 81.0955C339.252 81.0955 338.737 81.2049 338.256 81.408C335.623 82.1619 333.073 83.1853 330.651 84.4549L329.955 84.8143C326.537 86.451 323.502 88.7831 321.041 91.662C320.315 92.4159 319.83 93.369 319.651 94.4003C319.213 96.1815 319.213 98.0409 319.651 99.8183C320.159 101.697 320.526 103.615 320.995 105.725L324.959 109.744L325.678 109.814L326.053 109.232L325.885 108.088C325.51 106.166 325.432 104.201 325.647 102.26L326.096 101.717L326.955 102.322L327.069 102.693V102.689C327.401 105.279 327.955 107.83 328.733 110.322C329.323 112.861 330.381 115.267 331.85 117.42L331.85 117.42ZM339.647 116.572C340.897 116.568 342.139 116.326 343.303 115.865L343.612 115.342L343.311 115.158V115.154C341.928 114.943 340.541 115.529 339.733 116.67C338.721 116.439 337.662 116.631 336.799 117.205L336.537 117.482L337.002 117.854C338.045 117.904 339.037 117.42 339.647 116.572L339.647 116.572ZM355.143 113.748L354.162 113.811C353.088 113.897 352.42 114.858 352.971 115.697C354.49 118.275 355.272 121.221 355.237 124.213L355.369 125.357L356.155 126.1L357.233 125.92L358.053 125.115L358.049 125.111C359.647 122.877 360.291 120.096 359.842 117.385C359.463 114.92 358.908 114.271 356.483 113.85L355.143 113.748ZM352.866 136.771L352.803 136.013C352.764 135.365 352.33 134.802 351.713 134.607C350.795 134.533 349.963 135.142 349.748 136.037L349.815 137.158V137.154C349.944 137.584 350.245 137.943 350.647 138.146C351.045 138.349 351.51 138.377 351.932 138.228C352.561 138.041 352.959 137.42 352.866 136.771L352.866 136.771ZM337.018 126.001C336.447 126.048 335.846 126.95 336.123 127.458L337.572 129.689L338.244 129.978L338.732 129.091V129.087C338.697 128.056 338.334 127.064 337.697 126.251L337.018 126.001ZM334.881 144.931L335.553 144.697L335.611 144.4L334.611 144.451L334.603 144.771L334.881 144.931ZM350.885 124.357L350.717 124.099L350.295 124.435L350.459 124.677L350.885 124.357ZM356.678 141.123L356.385 141.049L356.334 141.369L356.639 141.338L356.678 141.123Z" fill="#C0C0C0"/>
<path d="M376.5 354.48L376.387 360.14C376.379 360.925 376.426 361.707 376.453 362.484C376.664 368.757 376.52 367.257 373.414 371.734H373.418C372.941 372.566 371.93 372.929 371.031 372.589C370.402 372.386 369.711 372.504 369.187 372.91L367.609 374.058V374.054C366.906 374.425 366.074 374.453 365.352 374.128C364.629 373.804 364.094 373.168 363.898 372.398L363.77 371.632C363.871 370.457 363.586 369.277 362.957 368.273C362.543 367.46 362.313 366.566 362.277 365.652C361.918 363.335 361.453 361.039 361.047 358.73C360.523 356.316 360.141 353.867 359.902 351.406C360.012 349.531 359.336 347.691 358.039 346.332L358.973 345.175C359.703 344.601 360.113 343.711 360.078 342.785V342C360.027 338.847 361.141 335.781 363.203 333.394C364.133 332.121 365.406 331.14 366.871 330.558C367.578 330.179 368.422 330.136 369.164 330.449C369.906 330.757 370.465 331.386 370.691 332.156L371.422 334.382H371.426C371.785 335.953 371.149 337.582 369.82 338.496L368.742 338.574L368.105 337.707V337.703C368.129 337.187 368.199 336.672 368.309 336.168C368.383 335.652 368.375 335.132 368.285 334.621L367.566 333.882L366.738 334.496H366.742C366.344 337.335 366.707 340.234 367.793 342.89C369.27 346.074 370.504 349.375 371.777 352.648H371.781C372.16 353.617 372.734 354.503 373.469 355.246L374.152 355.449L374.637 354.96L374.809 351.847L374.93 347.949L374.926 347.945C374.988 347.429 375 346.906 374.965 346.382C374.578 343.281 374.438 340.148 374.539 337.023C374.488 331.558 373.688 326.128 373.969 320.648C374.074 318.171 374.008 315.695 373.77 313.226C373.574 311.031 373.086 308.859 372.707 306.679L371.731 301.304L371.531 298.593C371.524 297.921 371.949 297.32 372.586 297.105C373.258 297.039 373.867 297.496 374 298.156C374.582 300.558 375.156 302.964 375.652 305.39C376.195 308.066 376.453 310.789 376.969 313.476H376.965C377.535 316.156 377.711 318.902 377.492 321.632C377.43 322.41 377.406 323.191 377.43 323.972L377.5 327.492C377.512 328.663 377.5 329.831 377.5 331.077H379.863L380.852 333.988L380.676 334.745H380.68C379.723 336.929 379.856 339.433 381.031 341.507C381.883 343.546 382.871 345.531 383.774 347.546L384.254 349.031L386.531 357.32H386.527C387.094 359.328 387.434 361.394 387.535 363.48C387.555 364.917 387.215 366.339 386.547 367.613C386.363 368.109 385.969 368.5 385.469 368.683C384.973 368.863 384.418 368.816 383.957 368.554C383.043 368.046 381.934 368.039 381.012 368.535C380.692 368.601 380.356 368.527 380.098 368.328C379.836 368.125 379.676 367.82 379.66 367.496C379.496 364.515 379.024 361.558 378.258 358.675C378.086 357.136 377.477 355.679 376.5 354.48L376.5 354.48ZM384.43 361.089H384.434C383.828 356.277 382.453 351.593 380.352 347.222C379.863 346.312 379.32 345.429 378.727 344.586L378.106 344.156L377.461 344.351L377.152 346.625H377.156C377.102 347.289 377.469 347.914 378.074 348.191L378.75 348.57H378.754C379.934 349.199 380.582 350.511 380.363 351.832C380.231 352.597 380.238 353.379 380.383 354.14C380.949 357.066 381.781 359.933 382.867 362.707L383.359 363.281L383.719 363.34L384.016 363.207L384.43 361.089ZM364.2 347.581L364.204 347.577C363.711 348.503 363.528 349.566 363.676 350.605C364.653 354.636 364.735 358.835 365.911 362.832L367.09 366.527L367.618 366.875L367.622 366.879C367.844 366.258 367.883 365.59 367.731 364.949L367.508 363.023L366.239 357.347C365.68 355.48 365.379 353.543 365.344 351.597C365.387 350.175 364.989 348.777 364.204 347.59L364.2 347.581ZM373.008 365.249L372.895 363.878H372.899C372.442 362.542 372.176 361.152 372.118 359.742L371.774 359.07L371.497 358.812L371.161 359.273C371.692 360.984 371.922 362.773 371.84 364.558C371.813 365.324 371.852 366.093 371.954 366.851L372.188 366.999L372.504 366.859L373.008 365.249ZM363.442 345.632L363.778 342.672L363.43 342.257L363.251 342.558L363.442 345.632Z" fill="#C0C0C0"/>
<path d="M272.65 374.18C270.189 374.2 267.744 373.789 265.423 372.973C263.904 372.375 262.978 370.825 263.173 369.203C263.49 366.485 263.646 363.754 263.642 361.016C263.697 359.453 264.107 357.922 264.837 356.539C265.513 355.274 265.865 353.867 265.869 352.438C266.04 348.668 266.451 344.914 267.087 341.196C267.47 339.262 267.279 337.258 266.54 335.43C266.123 334.325 266.107 333.102 266.501 331.985C266.876 330.739 267.201 329.469 267.662 328.254C268.541 325.934 269.044 323.508 269.791 321.153H269.787C270.314 319.817 270.623 318.407 270.705 316.973C270.716 316.45 270.837 315.938 271.06 315.469C271.787 314.227 272.212 312.832 272.294 311.395L272.568 310.672C274.123 307.368 275.123 303.829 275.521 300.195C275.662 299.297 275.982 298.434 276.466 297.664C279.232 293.094 281.439 288.211 283.037 283.113C284.009 280.426 284.998 277.75 286.119 275.113C287.427 272.418 288.279 269.519 288.626 266.543C289.091 262 290.232 257.551 292.009 253.344C293.123 250.992 294.341 248.695 295.392 246.317L296.423 246.055L296.771 246.699H296.775C296.572 247.715 296.29 248.715 295.935 249.684C294.529 253.195 293.4 256.809 292.56 260.496L292.001 263.172C291.646 265.488 291.122 267.773 290.431 270.011C289.435 273.789 288.126 277.476 286.517 281.038C285.724 282.656 285.435 284.511 284.79 286.21C284.146 287.913 283.361 289.57 282.603 291.226C280.669 295.495 278.97 299.863 277.509 304.32C276.693 306.785 276.193 309.359 275.517 311.871C274.743 314.761 273.896 317.628 272.931 320.468C271.892 323.691 271.029 326.968 270.337 330.281C270.056 331.82 269.939 333.386 269.986 334.953C269.935 341.472 269.849 347.996 269.958 354.515C270.04 359.339 270.38 364.155 270.65 368.976C270.724 370.32 271.646 370.991 273.075 370.89L274.626 370.695L281.646 370.171L282.81 370.265V370.261C283.2 370.284 283.54 370.538 283.673 370.909C283.767 371.433 283.501 371.952 283.025 372.191L281.939 372.632H281.943C278.939 373.609 275.806 374.132 272.65 374.179L272.65 374.18Z" fill="#C0C0C0"/>
<path d="M345.44 338.79C345.713 337.384 345.991 336.395 347.084 335.903L348.03 336.274L348.131 336.645H348.135C348.217 339.11 348.823 341.528 349.92 343.731C351.94 348.684 353.393 353.848 354.26 359.122C354.663 361.572 354.795 364.056 354.651 366.529C354.569 367.7 354.397 368.861 354.135 370.001C353.854 371.157 353.112 372.15 352.081 372.743C351.639 373.158 351.002 373.279 350.44 373.06C349.881 372.837 349.499 372.31 349.459 371.708C349.182 370.841 349.014 369.947 348.948 369.036C348.811 367.091 348.448 365.165 347.874 363.302L347.143 363.638C347.045 364.4 347.049 365.173 347.163 365.931C347.483 367.99 347.608 370.075 347.542 372.158C347.491 372.931 347.292 373.689 346.956 374.384C346.745 374.888 346.217 375.177 345.678 375.091L344.717 374.618C344.061 372.802 343.78 370.869 343.889 368.939C344.276 366.49 344.241 363.99 343.784 361.548C343.428 359.626 343.28 357.669 343.335 355.712C343.381 354.544 343.264 353.376 342.979 352.24C342.342 350.232 342.456 348.056 343.299 346.126C343.592 345.388 343.6 344.568 343.327 343.825L342.131 339.286V339.29C341.694 337.091 342.088 334.81 343.229 332.88C343.612 332.196 344.182 331.638 344.878 331.271C346.608 330.286 348.694 330.146 350.538 330.9C352.385 331.654 353.78 333.208 354.327 335.126L354.358 335.9C354.346 336.341 353.811 336.974 353.362 336.958L352.319 336.603L350.659 333.958C350.147 333.271 349.338 332.868 348.479 332.876C347.624 332.884 346.819 333.298 346.319 333.993C345.315 335.376 344.991 337.142 345.44 338.79V338.79ZM351.963 364.376L351.405 365.395C351.331 365.923 352.014 366.466 352.35 366.185L352.729 365.255L351.963 364.376Z" fill="#C0C0C0"/>
<path d="M324.71 345.07V342.062C324.647 341.273 324.897 340.488 325.397 339.875C326.089 339.078 326.397 338.019 326.253 336.972C326.241 335.976 326.667 335.027 327.417 334.371C328.167 333.718 329.171 333.425 330.155 333.574C330.937 333.601 331.702 333.8 332.394 334.16C334.136 335.101 335.441 336.687 336.03 338.574C336.23 339.215 335.991 339.914 335.437 340.293L333.249 341.035C332.819 341.148 332.19 340.527 332.222 340.066L332.409 338.91C332.558 337.844 332.007 336.801 331.042 336.32L330.315 336.187C329.905 336.23 329.605 336.594 329.636 337.004C329.589 337.91 329.671 338.812 329.878 339.695C330.605 342.062 331.394 344.414 332.292 346.719H332.288C333.847 351.148 335.062 355.691 335.933 360.305C336.433 363.406 336.167 366.582 335.159 369.558C334.874 370.441 334.237 371.168 333.401 371.566C332.71 371.976 331.855 371.992 331.155 371.598L329.589 370.457C329.167 370.164 328.733 369.715 328.28 369.683C326.499 369.57 326.308 368.359 326.132 366.984C325.683 362.969 325.448 358.93 325.437 354.89C325.433 352.933 325.3 350.984 325.038 349.047C324.651 347.757 324.542 346.406 324.71 345.07L324.71 345.07Z" fill="#C0C0C0"/>
<path d="M329.95 178.73L329.657 179.898C327.919 183.253 325.798 186.398 323.337 189.265C322.645 190.031 321.852 190.703 320.985 191.257C319.372 192.371 317.595 193.218 315.72 193.777C314.731 194.113 313.817 194.64 313.032 195.328L310.481 197.109L310.446 197.796C311.778 199.23 313.384 200.378 315.173 201.175C317.267 202.226 319.239 203.507 321.052 204.996L322.02 206.199V206.195C322.317 206.644 322.286 207.23 321.946 207.648C321.599 208.05 321.04 208.191 320.54 208.011L318.099 206.859L317.763 206.953L317.556 207.621L318.45 208.851L320.485 210.007L321.642 211.031C321.977 211.441 322.102 211.984 321.977 212.499C321.864 213.121 320.97 213.699 320.501 213.394L317.934 211.624C317.38 211.074 316.747 210.605 316.059 210.226C314.317 209.675 312.872 208.433 312.063 206.792C311.716 206.214 311.059 205.89 310.388 205.972C309.212 206.031 308.052 205.687 307.095 205.003C306.177 204.523 305.227 204.117 304.247 203.789L303.813 202.429L304.68 201.136L304.684 201.132C304.891 200.878 304.985 200.546 304.946 200.218C304.907 199.894 304.739 199.593 304.477 199.394L303.845 198.941V198.937C302.153 198.058 301.356 196.074 301.973 194.265L302.454 193.218L303.786 192.933L306.329 195.882L307.743 196.046L308.356 195.57C311.18 192.503 314.356 189.785 317.825 187.468C320.747 185.492 323.337 183.07 325.505 180.288C326.247 179.39 327.102 178.593 328.052 177.917L329.141 177.945L329.95 178.73Z" fill="#C0C0C0"/>
<path d="M319.75 359.26C320.121 361.619 319.555 364.029 318.164 365.971L316.43 368.076C315.82 368.725 314.91 368.135 314.207 368.518C313.523 368.893 312.801 369.315 312.008 368.873L312.012 368.877C311.195 368.436 310.621 367.647 310.453 366.733C309.683 363.983 309.351 361.131 309.465 358.28C309.539 356.979 309.453 355.674 309.207 354.393C308.969 353.096 309.309 351.756 310.144 350.733L310.863 349.807C311.359 349.186 311.594 348.401 311.516 347.612C311.363 345.924 311.25 344.233 311.004 342.561C310.711 340.76 310.609 338.928 310.707 337.108C310.746 336.174 311.238 335.322 312.023 334.822C313.152 333.92 314.562 333.44 316.008 333.467C317.484 333.522 318.762 334.518 319.176 335.936C319.543 336.928 319.457 338.033 318.941 338.955L317.621 339.576L316.906 338.791L316.738 337.647L316.148 337.377L315.844 337.584L315.555 338.276L315.812 340.596L316.859 344.362C317.652 347.377 318.254 350.444 319.016 353.471C319.383 355.385 319.629 357.319 319.75 359.26L319.75 359.26ZM314.973 350.276C315.102 355.975 315.43 357.76 316.633 359.252C317.031 356.326 316.645 353.35 315.516 350.627L314.973 350.276ZM312.906 355.244L312.562 353.768L312.23 353.697L311.937 353.873L311.781 354.209C311.762 354.725 311.781 355.24 311.844 355.748L312.277 356.323C312.535 356.592 312.891 356.201 312.906 355.244V355.244Z" fill="#C0C0C0"/>
<path d="M369.95 165.75L370.411 166.734L371.903 169.008V169.004C373.43 171.535 373.259 174.742 371.466 177.09C370.497 178.82 368.868 180.086 366.95 180.594C366.184 180.859 365.344 180.5 365.005 179.766L364.145 178.047L363.173 177.488L362.844 177.586L362.661 177.879L363.669 180.39C363.833 180.879 363.899 181.398 363.856 181.91L363.298 182.844L361.946 182.371L361.536 181.719H361.532C361.016 179.695 360.153 177.781 358.977 176.054L358.665 175.34V175.344C358.391 174.433 358.852 173.465 359.727 173.101C360.934 172.523 362.364 172.683 363.415 173.511L366.434 175.984L367.38 176.543L367.376 176.547C368.305 176.344 369.075 175.703 369.442 174.824L369.657 173.715C369.501 172.14 368.743 170.687 367.536 169.66C365.903 168.332 364.833 166.433 364.536 164.347C364.309 163.429 364.758 162.48 365.61 162.066C366.84 161.281 368.376 161.144 369.723 161.699L370.852 161.953L372.094 161.168L372.415 160.047C372.505 158.574 373.466 157.297 374.856 156.804L375.852 156.062L375.13 155.183C372.969 154.269 370.915 153.129 369.001 151.773C368.278 151.211 367.446 150.804 366.559 150.582C364.36 150.125 362.536 148.777 360.399 148.203L359.696 147.867H359.692C359.129 147.652 358.747 147.121 358.719 146.519C358.692 145.914 359.028 145.355 359.571 145.089L360.665 144.82L361.754 145.207H361.751C362.301 145.554 362.899 145.82 363.528 145.992C366.606 146.562 369.536 147.754 372.141 149.488C373.692 150.441 375.38 151.164 377.141 151.625C378.161 151.882 379.067 152.476 379.704 153.312C380.145 153.8 380.368 154.445 380.321 155.101C380.27 155.757 379.954 156.367 379.446 156.785C378.462 157.629 376.997 157.855 376.34 159.078C375.79 160.105 375.462 161.254 374.907 162.277V162.273C374.212 163.547 373.047 164.5 371.657 164.925C371.079 165.117 370.344 164.968 369.95 165.75L369.95 165.75Z" fill="#C0C0C0"/>
<path d="M288.74 290.33C287.998 290.615 287.424 291.217 287.174 291.971C286.834 293.1 286.209 294.119 285.361 294.935C284.881 295.447 284.65 296.596 283.682 296.084C283.014 295.732 283.494 294.892 283.646 294.291C283.764 293.654 283.986 293.041 284.299 292.478C285.193 291.041 285.83 289.463 286.174 287.806C286.58 286.029 287.248 284.322 288.146 282.736C289.275 280.838 290.045 278.752 290.424 276.576L290.943 274.705C291.721 273.513 292.381 272.248 292.912 270.928C293.236 269.537 293.646 268.174 294.146 266.838C294.334 266.217 294.643 265.639 295.057 265.135C295.842 264.365 297.283 264.299 297.244 262.685C297.217 261.557 298.377 260.994 298.885 260.103L302.959 253.025L303.892 251.826C304.674 251.338 305.064 250.408 304.861 249.51C304.81 248.85 305.56 248.416 306.264 248.533C306.998 248.592 307.639 249.06 307.912 249.748C308.185 250.432 308.049 251.213 307.556 251.764C305.916 253.439 304.642 255.439 303.826 257.639C303.588 258.248 303.236 258.807 302.791 259.279C301.369 260.986 300.342 262.986 299.783 265.135C298.806 268.65 297.193 271.955 295.013 274.881C294.228 276.076 293.635 277.385 293.248 278.76C292.935 280.033 292.217 281.17 291.197 281.99L290.584 282.932H290.58C289.615 285.35 288.959 287.877 288.631 290.459L288.74 290.33Z" fill="#C0C0C0"/>
<path d="M277.07 353.6C277.093 355.35 276.242 356.998 274.797 357.991C274.203 358.295 273.48 358.139 273.058 357.623L272.574 356.577C271.64 353.885 271.14 351.061 271.097 348.209C271.019 347.049 270.843 345.901 270.578 344.768C270.32 343.467 270.773 342.127 271.769 341.252C272.011 341.041 272.336 340.944 272.656 340.979C272.976 341.018 273.269 341.186 273.457 341.448L273.937 342.495L275.254 346.967H275.257C275.578 348.62 276.05 350.237 276.672 351.799C276.875 352.381 277.011 352.987 277.07 353.6V353.6Z" fill="#C0C0C0"/>
<path d="M310.98 296.05C311.839 295.8 312.609 295.3 313.058 295.82C313.785 296.741 314.992 297.132 316.121 296.808L317.308 297.644L317.304 297.648C317.82 298.57 317.894 299.679 317.507 300.663C317.179 301.538 316.406 302.167 315.484 302.316C314.468 302.589 313.39 302.499 312.433 302.062C311.832 301.823 311.152 301.898 310.613 302.261C309.613 302.694 309.261 302.464 308.804 301.519C308.082 300.124 307.804 298.538 308.011 296.983C308.136 296.132 307.847 294.987 309.027 294.714C309.91 294.507 310.316 295.425 310.98 296.05L310.98 296.05Z" fill="#C0C0C0"/>
<path d="M329.04 301.33L329.735 300.545L330.571 297.963L331.489 297.443L332.309 298.143C332.86 299.502 332.614 301.053 331.669 302.174L330.774 302.877C329.817 303.26 328.841 303.576 327.841 303.83C327.333 303.92 326.805 303.889 326.309 303.74C325.091 303.314 323.825 303.045 322.536 302.939C321.724 302.857 321.106 302.166 321.118 301.346L321.509 299.08H321.505C321.618 298.537 322.138 298.182 322.681 298.279C323.696 298.576 324.786 298.162 325.352 297.271C325.587 297.037 325.915 296.928 326.239 296.971C326.567 297.014 326.856 297.209 327.02 297.494L327.923 299.205C328.122 299.994 328.505 300.721 329.04 301.33L329.04 301.33Z" fill="#C0C0C0"/>
<path d="M416.19 469.41C416.237 468.707 416.374 468.008 416.596 467.336C417.838 463.765 419.838 460.504 422.463 457.781L423.163 456.437H423.159C423.612 454.804 424.393 453.281 425.452 451.957L426.034 451.465L426.764 451.469L427.139 452.109V452.875V452.871C426.17 456.258 424.467 459.39 422.151 462.043C421.35 463.066 420.682 464.183 420.17 465.375C419.432 467.176 418.526 468.898 417.456 470.523L416.737 470.636L416.495 470.359L416.19 469.41Z" fill="#C0C0C0"/>
<path d="M312.04 210.69L312.946 211.088H312.95C314.313 212.647 315.864 214.038 317.563 215.221L321.606 218.831H321.61C321.911 219.268 321.915 219.842 321.622 220.288L320.27 220.838L319.212 220.381L315.583 217.456V217.452C314.427 216.217 312.931 215.354 311.278 214.979C310.345 214.846 309.821 213.541 310.013 212.436C310.29 211.506 311.083 210.823 312.04 210.69L312.04 210.69Z" fill="#C0C0C0"/>
<path d="M439.41 437.87L438.406 438.808L438.41 438.804C437.949 439.077 437.367 439.034 436.953 438.694L436.668 438.444C435.887 437.116 434.926 435.897 433.82 434.819C433.16 434.011 432.777 433.011 432.73 431.968C432.664 431.307 432.98 430.667 433.547 430.319C434.074 429.905 434.805 429.862 435.375 430.214C436.223 430.788 436.988 431.479 437.648 432.265C438.844 433.882 439.465 435.854 439.41 437.87L439.41 437.87Z" fill="#C0C0C0"/>
<path d="M351.61 305.51L351.543 304.862C351.844 303.233 351.93 301.569 351.801 299.916C351.856 299.416 352.004 298.928 352.235 298.479L353.25 298.307L354.129 299.518L354.133 299.522C354.555 300.858 354.887 302.225 355.129 303.604C355.266 304.654 354.782 305.686 353.887 306.248C353.5 306.608 352.918 306.674 352.461 306.408L351.61 305.51Z" fill="#C0C0C0"/>
<path d="M350.47 302.37C350.267 303.311 350.005 304.241 349.693 305.151C349.415 305.733 349.029 306.257 348.552 306.686C348.021 307.304 347.115 307.421 346.443 306.968C345.939 306.515 345.818 305.768 346.15 305.179C346.822 303.632 347.56 302.116 348.341 300.624L349.279 300.038C349.638 299.913 350.228 300.499 350.326 300.987L350.423 301.362L350.47 302.37Z" fill="#C0C0C0"/>
<path d="M379.99 459.54L379.713 456.872C379.677 455.977 379.732 455.079 379.779 454.185L381.033 453.716C381.822 454.196 382.318 455.04 382.349 455.962C382.42 457.247 382.42 458.536 382.349 459.821C382.314 460.735 381.927 461.602 381.267 462.239L380.631 462.571L379.865 461.849C379.802 461.083 379.791 460.317 379.83 459.552L379.99 459.54Z" fill="#C0C0C0"/>
<path d="M375.74 451.98C375.74 453.531 375.76 455.082 375.728 456.628C375.748 457.031 375.47 457.386 375.08 457.464L374.377 456.773C374.662 455.64 374.615 454.445 374.244 453.335L374.17 452.187C374.334 450.382 374.244 448.562 373.9 446.785C373.892 446.152 373.97 445.523 374.135 444.91L374.392 444.734L374.752 444.851C375.353 445.535 375.693 446.414 375.705 447.324C375.717 448.875 375.705 450.429 375.705 451.98L375.74 451.98Z" fill="#C0C0C0"/>
<path d="M356.76 303.29C356.725 302.653 356.733 302.013 356.787 301.376L357.366 300.493C357.651 300.243 358.42 300.657 358.565 301.173C358.979 302.517 359.319 303.88 359.573 305.263C359.604 306.059 359.166 306.802 358.451 307.157L357.17 306.696L356.885 305.598C356.842 304.833 356.873 304.059 356.873 303.29L356.76 303.29Z" fill="#C0C0C0"/>
<path d="M424.9 434.27C424.966 435.184 424.724 436.094 424.213 436.86C424.013 437.2 423.673 437.434 423.283 437.496C422.892 437.559 422.494 437.446 422.197 437.184L420.736 435.371L421.013 433.95H421.009C421.763 433.43 422.646 433.129 423.56 433.071C424.22 433.133 424.763 433.621 424.9 434.27L424.9 434.27Z" fill="#C0C0C0"/>
<path d="M343.38 302.96L342.857 303.683L342.13 303.694L342.126 303.69C341.099 303.151 340.255 302.323 339.693 301.308C339.31 300.46 339.521 299.468 340.216 298.851L341.607 298.882L341.868 299.159H341.864C342.521 300.358 343.029 301.636 343.38 302.96L343.38 302.96Z" fill="#C0C0C0"/>
<path d="M408.88 436.74C408.942 437.193 408.774 437.65 408.435 437.955C408.095 438.259 407.622 438.377 407.177 438.263L404.938 437.814L404.716 436.799L406.017 435.408C406.575 434.896 407.177 434.248 408.017 434.736C408.747 435.158 408.782 436.006 408.88 436.74V436.74Z" fill="#C0C0C0"/>
<path d="M306.07 296.16L306.398 296.32C307.175 297.203 307.617 298.332 307.652 299.508C307.644 300.316 306.988 300.969 306.179 300.98C305.367 301.027 304.644 300.461 304.5 299.66C304.347 298.488 304.664 297.308 305.375 296.367L306.07 296.16Z" fill="#C0C0C0"/>
<path d="M354.34 411.71L353.735 412.675L352.711 412.855L352.707 412.858C351.793 412.398 351.082 411.612 350.715 410.655C350.582 410.155 350.875 409.64 351.375 409.503C352.403 409.312 353.446 409.761 354.012 410.64L354.34 411.71Z" fill="#C0C0C0"/>
<path d="M354.49 153.74L355.713 153.76L356.467 154.529L356.131 155.549L356.127 155.552C355.17 156.287 353.838 156.279 352.884 155.537L352.732 154.865L353.435 153.994L354.49 153.74Z" fill="#C0C0C0"/>
<path d="M402.68 472.7C404.286 472.77 404.18 475.184 402.571 475.114C400.965 475.044 401.071 472.63 402.68 472.7Z" fill="#C0C0C0"/>
<path d="M362.09 303.29C362.203 304.384 360.563 304.556 360.446 303.458C360.332 302.364 361.977 302.192 362.09 303.29Z" fill="#C0C0C0"/>
<path d="M375.29 462.11C375.345 463.016 373.985 463.102 373.927 462.192C373.872 461.286 375.231 461.2 375.29 462.11Z" fill="#C0C0C0"/>
<path d="M290.34 330.77C290.961 331.004 290.609 331.934 289.988 331.7C289.367 331.461 289.723 330.532 290.34 330.77Z" fill="#C0C0C0"/>
<path d="M390.48 411.84L389.738 414.035L389.179 414.539V414.535C388.019 414.742 386.832 414.367 386.007 413.527C385.371 412.543 385.062 411.379 385.125 410.207C385.265 409.57 385.75 409.063 386.382 408.895C387.699 408.781 388.984 409.356 389.781 410.406L390.48 411.84Z" fill="#C0C0C0"/>
</svg>
