<svg width="700" height="700" viewBox="0 0 700 700" fill="none" xmlns="http://www.w3.org/2000/svg">
<path d="M487.88 371.35L396.458 279.983L487.81 188.561C498.345 178.061 498.345 161.174 487.845 150.639L479.357 142.135C474.368 137.026 467.545 134.245 460.369 134.245H460.334C453.158 134.245 446.42 137.061 441.381 142.12L349.994 233.572L258.572 142.221C248.088 131.721 231.22 131.67 220.685 142.17L212.181 150.588C207.052 155.611 204.255 162.436 204.255 169.592C204.255 176.783 207.071 183.557 212.13 188.596L303.583 279.983L212.216 371.405C201.681 381.905 201.681 398.792 212.181 409.362L220.669 417.85C225.692 422.959 232.497 425.741 239.673 425.741C246.814 425.741 253.638 422.889 258.661 417.866L350.028 326.428L441.415 417.76C446.595 422.994 453.489 425.635 460.403 425.635C467.247 425.635 474.106 423.025 479.337 417.81L487.825 409.342C492.97 404.353 495.751 397.53 495.751 390.354C495.786 383.178 492.97 376.405 487.911 371.35L487.88 371.35Z" fill="#C0C0C0"/>
</svg>
