<svg width="209" height="152" viewBox="0 0 209 152" fill="none" xmlns="http://www.w3.org/2000/svg">
<path d="M23.9209 102.066C24.317 102.066 24.6097 102.083 24.7992 102.117C25.0058 102.135 25.2297 102.212 25.4708 102.35C25.7291 102.488 25.9099 102.72 26.0132 103.047C26.1166 103.374 26.1682 103.814 26.1682 104.365C26.1682 104.916 26.1166 105.355 26.0132 105.682C25.9099 106.009 25.7291 106.242 25.4708 106.379C25.2125 106.5 24.98 106.578 24.7733 106.612C24.5839 106.629 24.2825 106.638 23.8692 106.638H15.9649V109.247H21.0536C21.4669 109.247 21.7683 109.264 21.9577 109.298C22.1644 109.316 22.3969 109.393 22.6552 109.531C23.1029 109.789 23.3268 110.469 23.3268 111.572C23.3268 112.777 22.9996 113.492 22.3452 113.716C22.0697 113.802 21.6305 113.845 21.0278 113.845H15.9649V118.727C15.9649 119.14 15.9476 119.442 15.9132 119.631C15.896 119.82 15.8185 120.044 15.6807 120.303C15.4396 120.768 14.768 121 13.6659 121C12.4604 121 11.7544 120.673 11.5477 120.018C11.4444 119.743 11.3927 119.304 11.3927 118.701V104.339C11.3927 103.461 11.5563 102.866 11.8835 102.556C12.2107 102.229 12.8307 102.066 13.7434 102.066H23.9209ZM38.0175 101.833C40.5662 101.833 42.7791 102.754 44.6562 104.597C46.5333 106.44 47.4718 108.73 47.4718 111.468C47.4718 114.189 46.5763 116.514 44.7854 118.443C42.9944 120.354 40.7901 121.31 38.1725 121.31C35.555 121.31 33.3249 120.363 31.4822 118.469C29.6568 116.574 28.7441 114.318 28.7441 111.701C28.7441 110.271 29.0024 108.937 29.519 107.697C30.0357 106.44 30.7245 105.389 31.5855 104.545C32.4466 103.702 33.4368 103.039 34.5561 102.556C35.6755 102.074 36.8293 101.833 38.0175 101.833ZM33.3162 111.572C33.3162 113.104 33.807 114.353 34.7886 115.317C35.7874 116.264 36.8982 116.738 38.1209 116.738C39.3436 116.738 40.4457 116.273 41.4273 115.343C42.4089 114.413 42.8997 113.164 42.8997 111.597C42.8997 110.03 42.4003 108.773 41.4014 107.826C40.4199 106.879 39.3177 106.405 38.095 106.405C36.8724 106.405 35.7702 106.887 34.7886 107.852C33.807 108.799 33.3162 110.039 33.3162 111.572ZM59.3385 101.833C61.8872 101.833 64.1 102.754 65.9771 104.597C67.8542 106.44 68.7927 108.73 68.7927 111.468C68.7927 114.189 67.8973 116.514 66.1063 118.443C64.3153 120.354 62.111 121.31 59.4935 121.31C56.8759 121.31 54.6458 120.363 52.8032 118.469C50.9777 116.574 50.065 114.318 50.065 111.701C50.065 110.271 50.3233 108.937 50.84 107.697C51.3566 106.44 52.0454 105.389 52.9065 104.545C53.7675 103.702 54.7577 103.039 55.8771 102.556C56.9964 102.074 58.1502 101.833 59.3385 101.833ZM54.6372 111.572C54.6372 113.104 55.128 114.353 56.1096 115.317C57.1084 116.264 58.2191 116.738 59.4418 116.738C60.6645 116.738 61.7666 116.273 62.7482 115.343C63.7298 114.413 64.2206 113.164 64.2206 111.597C64.2206 110.03 63.7212 108.773 62.7224 107.826C61.7408 106.879 60.6387 106.405 59.416 106.405C58.1933 106.405 57.0912 106.887 56.1096 107.852C55.128 108.799 54.6372 110.039 54.6372 111.572ZM74.0724 102.04L78.8512 102.066C81.3482 102.066 83.5439 102.97 85.4382 104.778C87.3325 106.569 88.2796 108.782 88.2796 111.417C88.2796 114.034 87.3497 116.281 85.4899 118.159C83.6472 120.036 81.4085 120.974 78.7737 120.974H74.0466C72.9961 120.974 72.3417 120.759 72.0834 120.328C71.8768 119.967 71.7734 119.416 71.7734 118.675V104.313C71.7734 103.9 71.782 103.598 71.7993 103.409C71.8337 103.219 71.9198 102.996 72.0576 102.737C72.2987 102.272 72.9703 102.04 74.0724 102.04ZM78.8512 116.402C80.0911 116.402 81.2105 115.946 82.2093 115.033C83.2081 114.103 83.7075 112.941 83.7075 111.546C83.7075 110.151 83.2167 108.988 82.2351 108.059C81.2707 107.111 80.1342 106.638 78.8254 106.638H76.3456V116.402H78.8512Z" fill="white"/>
<path d="M95.825 117.177H102.851C103.419 117.177 103.833 117.246 104.091 117.384C104.349 117.504 104.522 117.702 104.608 117.978C104.694 118.253 104.737 118.624 104.737 119.088C104.737 119.536 104.694 119.898 104.608 120.173C104.522 120.449 104.375 120.638 104.169 120.742C103.841 120.914 103.394 121 102.825 121H93.526C92.3206 121 91.6145 120.673 91.4079 120.018C91.3045 119.743 91.2529 119.304 91.2529 118.701V104.339C91.2529 103.943 91.2615 103.65 91.2787 103.461C91.3131 103.254 91.3993 103.021 91.537 102.763C91.7781 102.298 92.4497 102.066 93.5519 102.066C94.7573 102.066 95.472 102.384 95.6959 103.021C95.782 103.314 95.825 103.762 95.825 104.365V117.177ZM116.591 101.833C119.14 101.833 121.353 102.754 123.23 104.597C125.107 106.44 126.045 108.73 126.045 111.468C126.045 114.189 125.15 116.514 123.359 118.443C121.568 120.354 119.364 121.31 116.746 121.31C114.129 121.31 111.898 120.363 110.056 118.469C108.23 116.574 107.318 114.318 107.318 111.701C107.318 110.271 107.576 108.937 108.093 107.697C108.609 106.44 109.298 105.389 110.159 104.545C111.02 103.702 112.01 103.039 113.13 102.556C114.249 102.074 115.403 101.833 116.591 101.833ZM111.89 111.572C111.89 113.104 112.381 114.353 113.362 115.317C114.361 116.264 115.472 116.738 116.695 116.738C117.917 116.738 119.019 116.273 120.001 115.343C120.983 114.413 121.473 113.164 121.473 111.597C121.473 110.03 120.974 108.773 119.975 107.826C118.993 106.879 117.891 106.405 116.669 106.405C115.446 106.405 114.344 106.887 113.362 107.852C112.381 108.799 111.89 110.039 111.89 111.572ZM145.273 102.35C146.289 102.849 146.797 103.4 146.797 104.003C146.797 104.279 146.668 104.692 146.41 105.243L139.28 119.708C139.091 120.087 138.798 120.397 138.402 120.638C138.023 120.862 137.627 120.974 137.214 120.974H136.955C136.525 120.974 136.112 120.862 135.715 120.638C135.337 120.397 135.052 120.087 134.863 119.708L127.734 105.243C127.475 104.692 127.346 104.279 127.346 104.003C127.346 103.4 127.854 102.849 128.87 102.35C129.438 102.057 129.869 101.911 130.162 101.911C130.472 101.911 130.704 101.945 130.859 102.014C131.014 102.083 131.161 102.203 131.298 102.376C131.453 102.582 131.591 102.815 131.712 103.073C131.849 103.314 132.185 104.029 132.719 105.217C133.253 106.388 133.821 107.637 134.424 108.963C135.044 110.289 135.621 111.546 136.155 112.734C136.706 113.905 137.016 114.559 137.085 114.697L142.251 103.383C142.389 103.056 142.509 102.798 142.612 102.608C142.922 102.143 143.301 101.911 143.749 101.911C144.197 101.911 144.705 102.057 145.273 102.35ZM154.087 116.428H162.043C162.439 116.428 162.732 116.445 162.921 116.48C163.128 116.497 163.36 116.574 163.619 116.712C164.083 116.953 164.316 117.625 164.316 118.727C164.316 119.932 163.997 120.638 163.36 120.845C163.067 120.948 162.62 121 162.017 121H151.788C150.582 121 149.876 120.673 149.67 120.018C149.566 119.743 149.515 119.304 149.515 118.701V104.339C149.515 103.461 149.678 102.866 150.005 102.556C150.333 102.229 150.953 102.066 151.865 102.066H162.043C162.439 102.066 162.732 102.083 162.921 102.117C163.128 102.135 163.36 102.212 163.619 102.35C164.083 102.591 164.316 103.262 164.316 104.365C164.316 105.57 163.997 106.276 163.36 106.483C163.067 106.586 162.62 106.638 162.017 106.638H154.087V109.247H159.201C159.597 109.247 159.89 109.264 160.08 109.298C160.286 109.316 160.519 109.393 160.777 109.531C161.242 109.772 161.475 110.444 161.475 111.546C161.475 112.751 161.147 113.457 160.493 113.664C160.2 113.767 159.752 113.819 159.15 113.819H154.087V116.428ZM181.77 117.797C182.028 118.417 182.158 118.865 182.158 119.14C182.158 119.795 181.624 120.346 180.556 120.793C180.005 121.034 179.557 121.155 179.213 121.155C178.886 121.155 178.61 121.077 178.386 120.923C178.18 120.75 178.025 120.578 177.921 120.406C177.749 120.079 177.077 118.52 175.906 115.73L175.106 115.782H171.851V118.701C171.851 119.097 171.834 119.398 171.799 119.605C171.782 119.795 171.704 120.018 171.567 120.277C171.326 120.742 170.654 120.974 169.552 120.974C168.346 120.974 167.64 120.656 167.434 120.018C167.33 119.726 167.279 119.278 167.279 118.675V104.339C167.279 103.943 167.287 103.65 167.305 103.461C167.339 103.254 167.425 103.021 167.563 102.763C167.804 102.298 168.476 102.066 169.578 102.066H175.157C176.673 102.066 178.145 102.617 179.574 103.719C180.263 104.253 180.832 104.976 181.279 105.889C181.727 106.801 181.951 107.817 181.951 108.937C181.951 110.883 181.305 112.484 180.014 113.741C180.392 114.654 180.978 116.006 181.77 117.797ZM171.851 111.21H175.157C175.657 111.21 176.156 111.02 176.655 110.642C177.155 110.263 177.405 109.694 177.405 108.937C177.405 108.179 177.155 107.611 176.655 107.232C176.156 106.836 175.639 106.638 175.106 106.638H171.851V111.21ZM184.898 118.339C184.45 117.788 184.226 117.298 184.226 116.867C184.226 116.419 184.597 115.834 185.337 115.11C185.768 114.697 186.224 114.491 186.706 114.491C187.188 114.491 187.86 114.921 188.721 115.782C188.962 116.075 189.307 116.359 189.754 116.635C190.202 116.893 190.615 117.022 190.994 117.022C192.596 117.022 193.397 116.368 193.397 115.059C193.397 114.663 193.173 114.336 192.725 114.077C192.294 113.802 191.752 113.604 191.098 113.483C190.443 113.363 189.737 113.173 188.979 112.915C188.222 112.639 187.516 112.321 186.861 111.959C186.207 111.597 185.656 111.029 185.208 110.254C184.778 109.462 184.562 108.515 184.562 107.413C184.562 105.897 185.122 104.58 186.241 103.461C187.378 102.324 188.919 101.756 190.865 101.756C191.898 101.756 192.837 101.893 193.681 102.169C194.542 102.427 195.136 102.694 195.463 102.97L196.109 103.461C196.643 103.96 196.91 104.382 196.91 104.726C196.91 105.071 196.703 105.544 196.29 106.147C195.704 107.008 195.101 107.439 194.482 107.439C194.12 107.439 193.672 107.266 193.138 106.922C193.087 106.887 192.983 106.801 192.828 106.664C192.691 106.526 192.561 106.414 192.441 106.328C192.079 106.104 191.614 105.992 191.046 105.992C190.495 105.992 190.03 106.13 189.651 106.405C189.289 106.664 189.109 107.034 189.109 107.516C189.109 107.981 189.324 108.36 189.754 108.653C190.202 108.945 190.753 109.143 191.408 109.247C192.062 109.35 192.777 109.514 193.552 109.738C194.327 109.944 195.041 110.203 195.696 110.512C196.35 110.822 196.892 111.365 197.323 112.14C197.771 112.898 197.995 113.836 197.995 114.955C197.995 116.075 197.771 117.065 197.323 117.926C196.875 118.77 196.29 119.424 195.566 119.889C194.172 120.802 192.682 121.258 191.098 121.258C190.288 121.258 189.522 121.164 188.799 120.974C188.075 120.768 187.49 120.518 187.042 120.225C186.129 119.674 185.492 119.14 185.131 118.624L184.898 118.339Z" fill="#EFF32F"/>
<path d="M114.413 24.5095C109.584 21.8047 105.547 22.3242 102.632 24.5095C102.063 24.9361 101.497 25.2374 100.98 25.4649C101.568 22.6988 103.053 19.0731 106.728 16.4759C107.426 15.9859 107.59 15.0206 107.095 14.3251C106.607 13.6295 105.64 13.4605 104.946 13.9554C100.061 17.4024 98.3707 22.3024 97.8021 25.7177C97.1502 25.4923 96.3321 25.1248 95.5139 24.5123C92.6006 22.3271 88.5609 21.8075 83.7321 24.5123C78.8983 27.2171 75.5639 33.369 77.6169 47.1279C79.6649 60.8873 88.0736 64.0063 91.3467 64.0553C94.7816 64.1067 96.8445 62.2988 99.074 62.2988C101.299 62.2988 103.361 64.1067 106.796 64.0553C110.069 64.0039 118.478 60.8873 120.526 47.1279C122.582 33.3658 119.245 27.2129 114.413 24.5095L114.413 24.5095ZM90.5727 58.8221C90.3474 59.2705 89.8941 59.5276 89.4238 59.5276C89.228 59.5276 89.0317 59.4811 88.8457 59.3881C86.1338 58.0138 82.6447 54.6718 81.4344 46.5574C81.1992 44.9819 81.0324 43.4829 80.9422 42.0981C80.893 41.3899 81.43 40.7774 82.1377 40.7288C82.8459 40.6774 83.4633 41.2188 83.5071 41.927C83.5978 43.24 83.757 44.6712 83.9801 46.1778C85.0804 53.5771 88.2283 56.191 90.0044 57.0901C90.6416 57.4133 90.8937 58.1877 90.5727 58.822L90.5727 58.8221Z" fill="#FFB36D"/>
<path d="M97.3529 21.1243C97.3529 21.1243 99.4256 7.71063 84.2334 8.00477C83.9392 23.1976 97.3529 21.1243 97.3529 21.1243Z" fill="#FFB36D"/>
</svg>
