<svg width="45" height="45" viewBox="0 0 45 45" fill="none" xmlns="http://www.w3.org/2000/svg">
<path d="M17.9184 20.1486H33.7457C34.8033 20.1486 35.6846 19.2623 35.6846 18.1987C35.6846 17.135 34.8033 16.2487 33.7457 16.2487H17.9184C16.8608 16.2487 15.9795 17.135 15.9795 18.1987C15.9798 19.2623 16.8256 20.1486 17.9184 20.1486Z" fill="#B3AAAA"/>
<path d="M24.7569 31.2804H33.7105C34.7681 31.2804 35.6493 30.3941 35.6493 29.3305C35.6493 28.2668 34.7681 27.3806 33.7105 27.3806H24.7569C23.6993 27.3806 22.8181 28.2668 22.8181 29.3305C22.8181 30.4294 23.6993 31.2804 24.7569 31.2804Z" fill="#B3AAAA"/>
<path d="M11.7496 8.98127H33.7457C34.8033 8.98127 35.6846 8.09497 35.6846 7.03136C35.6846 5.96774 34.8033 5.08145 33.7457 5.08145L11.7496 5.0817C10.692 5.0817 9.81073 5.96799 9.81073 7.03161C9.81098 8.09497 10.6568 8.98126 11.7496 8.98126V8.98127Z" fill="#B3AAAA"/>
</svg>
