<svg width="53" height="53" viewBox="0 0 53 53" fill="none" xmlns="http://www.w3.org/2000/svg">
<g clip-path="url(#clip0_10_147)">
<path d="M35.9297 5.74219C29.6502 5.74219 24.5438 10.8486 24.5438 17.1281C24.5438 17.5055 24.6381 17.8746 24.675 18.2438C16.9107 17.5014 10.0447 13.7607 5.38126 8.03906C5.16387 7.76426 4.82754 7.6166 4.47481 7.64121C4.12618 7.66582 3.81446 7.8668 3.64219 8.17031C2.66192 9.85606 2.10001 11.7961 2.10001 13.8797C2.10001 16.4021 3.00235 18.7113 4.39688 20.6063C4.12618 20.4873 3.83087 20.4217 3.57657 20.2781C3.25254 20.1059 2.8629 20.1141 2.54708 20.3027C2.23126 20.4914 2.03848 20.8318 2.03438 21.1969V21.3281C2.03438 25.1959 4.03594 28.5551 6.98907 30.6141C6.95626 30.61 6.92344 30.6223 6.89063 30.6141C6.52969 30.5525 6.16465 30.6797 5.92266 30.9545C5.68067 31.2293 5.60274 31.6107 5.70938 31.9594C6.88243 35.6057 9.87657 38.3906 13.5844 39.4078C10.6313 41.1633 7.20645 42.1969 3.51094 42.1969C2.71114 42.1969 1.94415 42.1559 1.18126 42.0656C0.689068 42 0.217388 42.2871 0.053326 42.7547C-0.114838 43.2223 0.0697323 43.7432 0.492193 44.0016C5.2295 47.0408 10.8527 48.825 16.8984 48.825C26.6971 48.825 34.3834 44.7316 39.5391 38.8828C44.6947 33.034 47.3813 25.4379 47.3813 18.3422C47.3813 18.0428 47.3566 17.7516 47.3484 17.4563C49.2721 15.9838 50.9906 14.257 52.3359 12.2391C52.6025 11.8494 52.5738 11.3285 52.2662 10.9676C51.9627 10.6066 51.45 10.4959 51.0234 10.6969C50.482 10.9389 49.8504 10.9635 49.2844 11.1563C50.0309 10.1596 50.6707 9.08496 51.0563 7.875C51.1875 7.46074 51.044 7.00547 50.7035 6.73477C50.3631 6.46816 49.8873 6.43535 49.5141 6.66094C47.7217 7.72324 45.7365 8.46973 43.6406 8.925C41.6063 7.02188 38.9279 5.74219 35.9297 5.74219ZM35.9297 7.84219C38.608 7.84219 41.0279 8.98652 42.7219 10.7953C42.9762 11.0578 43.3494 11.1686 43.7063 11.0906C45.0762 10.8199 46.3764 10.4221 47.6438 9.90938C46.9137 10.8938 46.0113 11.7346 44.9531 12.3703C44.4732 12.6041 44.2477 13.1578 44.424 13.6623C44.5963 14.1627 45.1213 14.4539 45.6422 14.3391C46.6922 14.2119 47.6273 13.7854 48.6281 13.5188C47.7299 14.4908 46.7455 15.3686 45.675 16.1438C45.3838 16.357 45.2238 16.7016 45.2484 17.0625C45.2648 17.4891 45.2813 17.9115 45.2813 18.3422C45.2813 24.9047 42.7629 32.0291 37.9641 37.4719C33.1652 42.9146 26.1188 46.725 16.8984 46.725C12.7107 46.725 8.75684 45.798 5.18438 44.1656C9.61407 43.8252 13.6992 42.2584 16.9969 39.6703C17.3414 39.3955 17.4768 38.9361 17.3373 38.5178C17.1979 38.0994 16.8123 37.8123 16.3734 37.8C12.9117 37.7385 10.0119 35.7246 8.46563 32.8781C8.52305 32.8781 8.57227 32.8781 8.62969 32.8781C9.66739 32.8781 10.6928 32.7469 11.6484 32.4844C12.1078 32.349 12.4236 31.9225 12.4072 31.4426C12.3908 30.9627 12.0504 30.5525 11.5828 30.45C7.84629 29.6953 5.04493 26.652 4.39688 22.8703C5.45508 23.2354 6.5379 23.5225 7.71094 23.5594C8.19083 23.5881 8.62559 23.2887 8.77325 22.8334C8.9209 22.3781 8.74044 21.8777 8.33438 21.6234C5.84063 19.9541 4.20001 17.1117 4.20001 13.8797C4.20001 12.682 4.51172 11.5828 4.92188 10.5328C10.1719 16.2955 17.5219 20.1223 25.8234 20.5406C26.1516 20.557 26.4715 20.4217 26.6848 20.1715C26.8981 19.9172 26.9801 19.5809 26.9063 19.2609C26.7463 18.5801 26.6438 17.8582 26.6438 17.1281C26.6438 11.9848 30.7863 7.84219 35.9297 7.84219Z" fill="white"/>
</g>
<defs>
<clipPath id="clip0_10_147">
<rect width="52.5" height="52.5" fill="white"/>
</clipPath>
</defs>
</svg>
