<svg width="203" height="25" viewBox="0 0 203 25" fill="none" xmlns="http://www.w3.org/2000/svg">
<path fill-rule="evenodd" clip-rule="evenodd" d="M27.5969 20.1637C27.6416 20.2108 27.7313 20.2108 27.776 20.2108L27.7759 20.2109C27.9103 20.2109 28.0447 20.1638 28.134 20.117L31.4044 17.9457C31.5391 17.8041 31.6734 17.6622 31.7181 17.4735L33.0175 12.1869L36.2888 8.22216C36.4678 8.03351 36.5125 7.79744 36.4678 7.56137C36.4231 7.32531 36.2888 7.13665 36.0647 7.04216L32.615 5.29584L31.6294 2.18056C31.54 1.85 31.2713 1.66134 30.9575 1.66134H26.7463L25.9847 0.481341C25.8503 0.292356 25.6263 0.150782 25.4022 0.150782L20.2053 0.00920677C19.9813 -0.0382039 19.7572 0.103699 19.6228 0.292355L16.711 4.35156C16.5319 4.63474 16.5319 4.96529 16.711 5.24844L18.9957 8.78844C19.0851 8.97743 19.2198 9.07192 19.3988 9.119L24.282 10.5351L25.1779 15.5382C25.1779 15.5853 25.1779 15.6798 25.2226 15.7269L27.1488 19.7861C27.2385 19.975 27.4179 20.1166 27.5969 20.1637ZM28.0447 18.3229L26.5216 15.1134L25.5807 9.7796C25.4913 9.49646 25.3119 9.26039 25.0432 9.1659L19.9807 7.70278L18.1438 4.82358L20.5182 1.51966L24.9535 1.61416L25.715 2.84127C25.8494 3.03026 26.0735 3.17183 26.2975 3.17183H30.3741L31.3151 6.09815C31.3597 6.28681 31.4944 6.42838 31.6735 6.52287L34.496 7.93862L31.7632 11.2425C31.7408 11.2898 31.7184 11.3488 31.696 11.4078C31.6736 11.4668 31.6511 11.5259 31.6288 11.5731L30.3744 16.7653L28.0447 18.3229ZM11.424 24.5532C5.15216 24.5532 0 19.1724 0 12.5172C0 5.90901 5.15216 0.481184 11.424 0.481184C12.8127 0.481184 14.2015 0.764334 15.5009 1.28354C15.8593 1.42512 16.0834 1.89724 15.904 2.27491C15.7696 2.65255 15.3665 2.88861 14.963 2.69963C13.843 2.2275 12.6334 1.99177 11.424 1.99177C10.6826 1.99177 9.95978 2.07722 9.26405 2.23928C9.27787 2.31122 9.2815 2.38667 9.27334 2.46367L9.04928 7.93896C9.04928 8.22211 8.9149 8.45818 8.69084 8.55266C8.60178 8.59974 8.4674 8.64682 8.33271 8.64682L8.3328 8.64678C8.22607 8.64678 8.14753 8.61708 8.05239 8.5811C8.02776 8.57178 8.002 8.56204 7.97436 8.55229L3.67372 6.14517C3.62578 6.11994 3.58185 6.08964 3.54214 6.05517C3.03742 6.73707 2.61056 7.48594 2.27575 8.28685C2.3579 8.31501 2.43676 8.3567 2.50856 8.41077L8.82544 14.2163C9.09419 14.4524 9.13919 14.83 9.0045 15.1602L5.84034 21.2426C7.43524 22.3789 9.35714 23.043 11.424 23.043C16.7999 23.043 21.1904 18.6061 21.3696 12.9422C21.3696 12.5174 21.728 12.2343 22.1312 12.1869C22.5343 12.1869 22.848 12.5645 22.848 12.9893C22.624 19.4559 17.6064 24.5533 11.424 24.5533L11.424 24.5532ZM4.54692 4.88801C5.4858 3.94817 6.59751 3.19823 7.82609 2.69713L7.66085 6.61701L4.54692 4.88801ZM4.66443 20.2625L7.48169 14.9719L1.77593 9.78004C1.5527 10.6531 1.43361 11.5708 1.43361 12.5174C1.43361 15.5784 2.67911 18.3377 4.66443 20.2625ZM127.033 14.3544H127.353L132.032 2.177L136.454 2.30518L136.582 16.0848L137.191 24.3526H132.865L133.025 16.0208L132.673 7.59273L128.827 18.1999L124.886 18.3921L121.296 7.59273L121.008 16.0208L121.232 24.3526H117.259L117.707 16.5655L117.9 2.81791L122.995 2.01677L127.033 14.3544ZM154.626 24.5129L153.056 18.264H145.397L143.699 24.3526L139.597 24.0322L142.417 16.2451L146.711 2.46541L152.447 2.04882L156.581 15.7644L159.241 23.8079L154.626 24.5129ZM149.563 6.21476H149.146L146.39 14.8671H152.095L149.563 6.21476ZM159.708 5.92635L160.06 2.24109H175.282L174.93 5.92635L169.354 5.44566L169.226 16.0208L169.61 24.3526H165.124L165.508 16.5655L165.38 5.47771L159.708 5.92635ZM182.407 2.08086L181.958 16.0208L182.343 24.3526H177.856L178.241 16.5655L177.856 2.88201L182.407 2.08086ZM194.352 24.7051C191.981 24.7051 189.983 23.7117 188.36 21.7249C186.736 19.7381 185.924 17.3026 185.924 14.4185C185.924 10.8934 186.896 7.92387 188.84 5.50976C190.806 3.09564 193.209 1.88859 196.051 1.88859C197.161 1.88859 198.187 2.00609 199.127 2.24109C200.088 2.45473 200.772 2.67905 201.178 2.91405L201.755 3.26655L199.576 7.72091C199.084 7.29363 198.39 6.8984 197.493 6.53522C196.595 6.15067 195.784 5.9584 195.057 5.9584C193.583 5.9584 192.397 6.56726 191.5 7.785C190.624 9.00274 190.186 10.7439 190.186 13.0085C190.186 15.2517 190.646 17.0996 191.564 18.5524C192.483 19.9837 193.733 20.6994 195.314 20.6994C196.339 20.6994 197.268 20.379 198.102 19.7381C198.935 19.0971 199.522 18.2426 199.864 17.1744L202.524 18.7126C201.819 20.5926 200.74 22.0667 199.287 23.1349C197.834 24.1817 196.189 24.7051 194.352 24.7051ZM66.7749 20.3469H67.1274L68.6336 14.8351L71.7099 2.04882L75.3311 2.62564L71.8381 15.3478L69.6911 24.0963L63.8267 24.5129L62.0001 15.9567L60.9105 11.7266L59.9492 15.3478L57.8021 24.0963L52.0339 24.5129L50.1111 15.9567L46.7784 2.84996L50.9443 2.04882L53.54 14.4185L54.9821 20.3469H55.3346L57.033 14.4185L59.3723 5.76612L58.6353 2.84996L62.8653 2.04882L65.3969 14.4185L66.7749 20.3469ZM78.4333 24.3526L78.8178 16.5655L78.4333 2.24109H90.4504L90.0979 5.66998H82.8876L82.6954 11.3421H89.1045L88.752 14.7389H82.5672L82.5351 16.0208L82.7595 20.9558H90.5145L90.162 24.3526H78.4333ZM101.16 2.24109C103.211 2.24109 104.834 2.71109 106.031 3.6511C107.227 4.56975 107.825 5.80885 107.825 7.36841C107.825 9.86797 106.8 11.6091 104.749 12.5919C107.526 13.5532 108.915 15.3264 108.915 17.9114C108.915 19.8556 108.082 21.4792 106.415 22.7824C104.749 24.0642 102.655 24.7051 100.134 24.7051C98.8097 24.7051 96.8335 24.5876 94.2058 24.3526L94.5903 16.5655L94.2058 2.24109H101.16ZM100.743 14.8351H98.1474L98.1154 16.0208L98.3397 21.2442C99.5788 21.351 100.529 21.4044 101.192 21.4044C102.324 21.4044 103.2 21.1267 103.82 20.5712C104.46 19.9944 104.781 19.1612 104.781 18.0717C104.781 16.9821 104.46 16.1703 103.82 15.6362C103.179 15.1021 102.153 14.8351 100.743 14.8351ZM100.006 5.47771H98.4358L98.2436 11.7266H100.327C101.416 11.7266 102.249 11.4382 102.826 10.8614C103.403 10.2632 103.691 9.41933 103.691 8.32978C103.691 6.4284 102.463 5.47771 100.006 5.47771Z" fill="#C0C0C0"/>
</svg>
