<svg width="303" height="353" viewBox="0 0 303 353" fill="none" xmlns="http://www.w3.org/2000/svg">
<path fill-rule="evenodd" clip-rule="evenodd" d="M157.42 351.676C155.627 350.518 154.408 347.682 153.628 345.772C152.86 343.893 152.359 341.978 151.777 340.04C151.465 339.016 151.19 337.868 150.977 336.824C150.526 334.591 150.048 332.376 149.84 330.131L149.736 328.105L149.716 327.936C149.555 327.53 149.268 327 149.055 326.591C148.324 325.173 147.576 323.793 146.562 322.555C145.056 320.721 143.466 318.942 142.131 316.989C140.468 314.572 139.455 311.651 139.195 308.704C139.118 309.027 139.029 309.355 138.94 309.688C139.019 309.34 139.111 308.969 139.185 308.598C139.148 308.134 139.128 307.672 139.133 307.203L139.165 307.382C138.997 306.62 138.878 305.853 138.796 305.086C138.311 304.577 137.828 304.054 137.357 303.525C137.253 303.419 137.258 303.235 137.367 303.129C137.471 303.028 137.652 303.033 137.756 303.139C138.073 303.487 138.39 303.822 138.717 304.16C138.603 302.609 138.608 301.05 138.588 299.488C138.271 297.404 137.548 295.325 136.753 293.461C135.918 291.511 135.009 289.641 134.124 287.732C133.82 287.081 133.495 286.44 133.181 285.789C133.029 285.466 132.759 284.823 132.638 284.631C132.38 284.207 132.162 283.715 131.927 283.271C131.367 282.234 130.852 281.225 130.342 280.17C129.923 279.31 129.492 278.457 129.081 277.595C128.997 277.499 128.92 277.398 128.843 277.294C128.167 276.404 127.793 274.981 127.453 273.911C127.31 273.457 127.04 272.985 126.856 272.536C126.192 270.906 125.429 269.499 125.033 267.816C124.426 265.268 125.739 262.679 126.415 260.305C126.608 259.632 126.789 258.961 126.879 258.267C126.921 257.972 127.074 257.558 127.149 257.245C127.258 256.791 127.381 256.332 127.49 255.87C128.006 253.7 128.645 251.538 129.153 249.369C129.537 247.712 129.975 246.077 130.374 244.427C130.448 244.109 130.515 243.791 130.587 243.471C130.597 242.696 130.587 241.924 130.572 241.167C130.53 239.222 130.609 237.259 130.577 235.312C130.525 232.337 130.448 229.363 130.448 226.386C130.448 225.331 130.426 224.259 130.426 223.195C129.871 222.168 129.309 221.164 128.826 220.212C127.949 218.507 127.235 216.852 126.747 215.149C126.685 215.174 126.628 215.189 126.566 215.195C126.13 215.248 125.729 214.932 125.677 214.491C125.563 213.724 125.516 212.926 125.516 212.112C124.862 211.181 124.213 210.237 123.512 209.334C123.024 208.718 122.551 208.085 122.063 207.465C121.714 207.01 121.022 206.281 120.837 205.757C120.695 205.345 120.832 204.599 120.757 204.43C120.71 204.324 120.718 204.207 120.69 204.122C120.653 204.026 120.591 203.953 120.549 203.837C120.5 203.693 120.292 203.471 120.212 203.312C119.89 202.805 119.866 202.182 120.098 201.672C119.97 201.604 119.843 201.536 119.719 201.465C118.627 200.852 117.396 199.666 116.665 198.642C116.254 198.069 115.937 197.582 115.572 196.979C115.203 196.376 114.904 195.552 114.658 194.883C114.468 194.371 114.307 193.849 114.383 193.301C114.378 193.314 114.369 193.314 114.364 193.309C113.928 193.127 113.715 192.62 113.89 192.176C113.895 192.161 113.905 192.143 113.91 192.128C113.853 191.838 113.806 191.55 113.767 191.255C113.759 191.25 113.749 191.24 113.744 191.232C113.095 190.7 112.446 190.218 111.782 189.756L109.994 188.51L110.623 191.068L110.42 191.116C110.239 190.362 110.051 189.6 109.86 188.853C109.828 188.727 109.642 188.26 109.776 188.18C109.87 188.117 111.064 188.949 111.252 189.075C112.097 189.645 112.909 190.253 113.719 190.869C113.625 190.107 113.583 189.335 113.568 188.561C113.501 188.265 113.469 188.006 113.479 187.836C113.464 187.647 113.497 187.476 113.568 187.307C113.578 186.663 113.61 186 113.655 185.334C113.702 184.529 114.284 183.886 115.022 183.732C114.933 183.457 114.904 183.154 114.956 182.849C115.084 181.915 115.32 180.979 115.463 180.038C115.917 177.069 116.259 174.796 115.657 171.837C115.563 171.382 115.359 170.674 115.151 170.262C115.022 170.013 114.904 169.664 114.767 169.43C114.611 169.17 114.425 168.907 114.269 168.648C114.217 168.572 114.17 168.494 114.113 168.41C114.128 168.504 114.133 168.585 114.146 168.673C114.294 170.023 114.198 171.387 114.269 172.737C114.269 173.282 113.828 173.731 113.293 173.731C112.758 173.731 112.317 173.282 112.317 172.737C112.27 171.753 112.31 170.769 112.211 169.785C112.097 168.739 111.931 167.813 111.718 166.811C111.594 166.743 111.47 166.685 111.344 166.617C110.561 166.228 109.781 165.847 109.008 165.441C107.806 164.815 106.612 164.182 105.453 163.511C105.235 163.458 105.012 163.41 104.794 163.352C104.128 163.869 103.161 163.811 102.564 163.181C102.46 163.077 102.322 162.954 102.233 162.838C102.161 162.754 102.133 162.658 102.076 162.578C101.083 162.209 100.154 161.732 99.3763 161.034C98.9378 160.701 98.8412 160.07 99.1633 159.621C99.2202 159.538 99.2921 159.472 99.3689 159.409C99.2351 159.24 99.1038 159.071 98.975 158.902C98.5489 158.362 98.1278 157.769 97.6918 157.252C97.241 156.722 96.7629 156.225 96.2996 155.71C95.9305 155.299 95.2964 154.87 94.8455 154.537C94.5581 154.32 93.9091 154.002 93.5672 153.864C91.8208 153.172 90.5029 153.029 88.9274 153.034L88.5534 153.049L88.8283 153.039C88.5757 153.102 88.3255 153.16 88.0802 153.198L87.8325 153.22L87.3965 153.717C85.6922 155.446 82.5634 156.326 80.3338 157.07C79.925 157.204 79.4791 157.292 79.0679 157.403C77.4998 157.822 75.9094 158.15 74.3141 158.435C73.1201 158.652 71.9236 158.844 70.7246 159.013C69.9195 159.192 69.0971 159.316 68.235 159.369C68.0541 159.384 67.8733 159.389 67.685 159.389C65.847 159.591 63.9915 159.747 62.1361 159.848C60.35 159.944 57.7514 160.035 56.0322 159.621C55.46 159.485 55.2222 159.124 54.8382 158.733C54.4022 158.304 54.0728 157.812 53.82 157.272C53.6888 157.35 53.5599 157.426 53.4286 157.504C52.7325 157.923 52.0117 158.453 51.3528 158.932C49.3784 160.388 47.305 161.452 44.9369 162.018C42.1971 162.663 38.0676 162.139 35.4142 161.14C34.4209 160.769 33.1178 160.335 32.2384 159.747C31.9337 159.543 31.6092 159.389 31.3095 159.177C30.7843 158.811 30.2765 158.44 29.843 157.981C29.7934 157.981 29.7662 157.966 29.734 157.953C26.2064 156.235 23.4394 153.526 21.096 150.415L18.7947 146.923L17.4025 145.531C15.3043 143.368 13.32 140.929 11.6454 138.416C9.02701 134.5 6.89164 130.368 5.05833 126.081C5.00135 126.013 4.93942 125.95 4.88244 125.887C3.89403 124.812 2.74213 123.458 1.92709 122.237C1.19882 121.152 0.289674 119.658 0.351569 118.288C0.378819 117.655 0.53984 116.999 1.02784 116.648C0.970869 116.5 0.90894 116.343 0.85444 116.189C0.512585 115.331 0.918846 114.342 1.76606 113.994C2.12278 113.845 2.50676 113.835 2.85105 113.941C2.84114 113.707 2.73215 113.505 2.80894 113.22C2.97987 112.569 3.19291 111.918 3.35393 111.267C3.36384 111.222 3.37623 111.174 3.38614 111.121C2.73218 110.677 2.48194 109.781 2.83372 109.029C3.12603 108.29 3.4852 107.675 3.70817 106.887C3.84689 106.423 4.02526 105.929 4.1293 105.46C4.44143 104.085 4.63218 102.808 4.78325 101.423C4.85509 100.754 4.95418 100.121 4.9195 99.4374C4.99629 96.8717 4.81298 94.4068 4.05988 92.0153C3.88896 90.7564 3.55205 89.5277 3.28696 88.395C3.11603 87.681 2.95006 86.9519 2.8039 86.2102C2.34066 85.4811 1.93687 84.7242 1.63963 83.8135C-0.168762 78.253 2.89807 72.8314 6.06644 68.4667C6.97558 67.2128 7.89957 65.959 8.83103 64.7102C9.1828 64.1375 9.542 63.5572 9.90119 62.9795C10.518 61.9854 11.1423 60.9965 11.7641 60.005C11.4792 59.2809 11.281 58.514 11.1893 57.7041C11.1794 57.5881 11.2562 57.472 11.3702 57.4569C11.4792 57.4443 11.5931 57.525 11.6055 57.636C11.6823 58.3222 11.8483 58.905 12.0613 59.5357C13.0126 58.0472 13.9638 56.5562 14.9176 55.0702C14.4915 55.4663 14.0728 55.9104 13.6814 56.3594C13.2504 56.8589 12.4924 56.9094 11.9944 56.4654C11.5015 56.0213 11.4544 55.2494 11.8904 54.7473C12.3462 54.2553 12.8293 53.6095 13.3594 53.2083C13.8548 52.8324 14.2958 52.3657 14.8135 52.0049C15.9629 51.1926 17.1 50.4079 18.2791 49.6461C18.7151 48.4452 19.0792 47.2014 19.3542 45.9046C19.6094 44.9207 20.5978 44.3304 21.5639 44.5928C22.0618 44.7265 22.4557 45.0595 22.6861 45.4884C23.8949 44.7038 25.136 43.9494 26.3523 43.1699C26.4836 43.0866 26.6223 43.0009 26.7586 42.91C26.4142 42.2188 26.0625 41.5452 25.7305 40.8363C25.6736 40.7101 25.7256 40.5512 25.8494 40.4982C25.9733 40.4402 26.1294 40.4932 26.1814 40.6193C26.4935 41.298 26.8056 41.9917 27.1624 42.6477C27.7495 42.2667 28.3787 41.8429 28.998 41.3863L29.1887 41.2223L31.5173 39.209C31.6833 39.0324 31.8443 38.8482 31.9855 38.6691C31.9731 38.6111 31.983 38.5556 32.0103 38.5001C32.0475 38.4345 32.1143 38.3992 32.1911 38.3992C32.1986 38.3866 32.2085 38.3765 32.2184 38.3613C32.5404 37.8996 32.8303 37.4657 33.1077 36.9763L33.4793 36.1437L33.6527 35.0236C33.6824 34.6905 33.6428 34.2869 33.6477 33.9438C33.6675 32.5209 33.7443 31.4133 34.3067 30.1115C34.4776 29.7104 34.7749 29.2941 35.1489 28.8753C35.2059 27.8864 35.409 26.9605 35.8921 25.8479C36.3752 24.7226 37.2793 24.3947 38.2454 24.097C37.7029 23.103 37.21 22.0913 36.769 21.0923C36.6972 20.9384 36.7641 20.7492 36.9152 20.6786C37.0712 20.6104 37.257 20.6735 37.3239 20.8274C37.7772 21.892 38.2851 22.9164 38.8424 23.9078C38.9935 23.8548 39.1422 23.8018 39.2883 23.7438C40.4898 23.262 41.7259 22.3789 42.6499 21.4682C43.5962 20.5322 44.4633 19.5307 45.2733 18.4736C44.976 17.9438 44.6862 17.409 44.431 16.859C44.3642 16.7227 44.4112 16.5486 44.545 16.483C44.6713 16.4099 44.8423 16.4629 44.9141 16.5941C45.1371 17.0759 45.3774 17.5325 45.6374 17.9917C45.7241 17.8707 45.8183 17.747 45.9075 17.6209C46.4376 16.8918 46.9776 16.1602 47.4855 15.421C48.5606 13.8643 50.3169 11.4045 52.2244 9.81768C52.2343 9.73191 52.2294 9.63856 52.2046 9.49476L52.1872 9.37366C52.0634 8.62692 52.5663 7.91293 53.2995 7.7868C53.8024 7.71111 54.2879 7.92303 54.3647 8.56886C54.4688 8.47804 54.4935 8.46795 54.5158 8.45785C54.7338 7.89777 55.3061 7.53699 55.9179 7.60513C57.0723 7.81201 58.3184 7.85994 59.4876 8.02393C61.2786 8.27874 63.191 8.42506 65.0043 8.54868C67.5558 8.72276 70.152 8.89684 72.7082 8.7707C72.9361 8.76061 73.164 8.75808 73.3944 8.75808C74.1994 8.09208 74.9674 7.35787 75.7056 6.65402C76.9566 5.4632 79.1192 3.58622 80.8334 3.31373C82.5377 3.04126 84.252 2.88232 85.9662 2.78645C86.9795 2.07246 88.1685 1.29795 89.1966 0.949772C90.7869 0.414928 92.7712 0.356898 94.4334 0.432586C95.3524 0.477998 96.3656 0.485566 97.2797 0.611707C98.553 0.785784 99.8635 0.891742 101.142 1.05573C104.045 1.42155 106.948 1.87564 109.859 2.21878C110.756 2.06236 111.63 1.88072 112.477 1.63852C113.23 1.42156 113.795 1.12386 114.496 0.858978C114.766 0.727792 115.059 0.684901 115.339 0.702559C115.698 0.467933 116.134 0.367018 116.585 0.457838C116.716 0.515864 116.934 0.52091 117.075 0.568848C117.229 0.616782 117.38 0.697515 117.526 0.737881C117.729 0.800952 118.569 1.20966 118.73 1.32571H119.017C119.376 1.29796 119.661 1.3686 120.013 1.42158C120.471 1.48465 121.195 1.8984 121.541 1.92363C121.646 1.92867 121.816 1.89588 121.958 1.90345C122.191 1.91858 122.413 2.0195 122.612 2.1305C122.961 2.32981 124.108 3.56352 124.289 3.9646C124.368 4.15129 124.415 4.55747 124.435 4.77947C124.497 5.57419 124.321 6.52528 124.081 7.46887C124.083 7.49914 124.088 7.52689 124.093 7.55213C124.289 9.20461 124.653 10.5114 125.25 12.0555C125.371 12.3784 125.552 12.6786 125.693 12.9965C125.973 13.6221 126.377 14.4522 126.768 15.0173C127.224 15.817 127.073 16.806 126.461 17.4317C128.431 19.6518 131.121 21.1655 133.957 22.3942C134.306 22.4421 134.658 22.49 135.007 22.543C134.866 22.2932 134.715 22.0435 134.571 21.7912C134.512 21.6751 134.549 21.5212 134.663 21.4531C134.772 21.3926 134.923 21.4304 134.99 21.5465C135.203 21.9123 135.416 22.2781 135.624 22.6464C137.049 22.9012 138.451 23.2923 139.568 24.0592C140.004 24.362 140.405 24.6798 140.774 25.0179C141.339 25.2349 141.892 25.4569 142.432 25.6789C143.876 26.2869 145.657 27.0664 147.827 28.8476C147.817 28.8274 147.807 28.8173 147.802 28.7996L148.099 28.6533C148.129 28.7265 148.151 28.7946 148.186 28.8526C148.739 29.3193 149.236 29.8264 149.635 30.384C150.894 30.6943 152.14 31.1282 153.148 31.711C153.621 31.986 154.03 32.256 154.426 32.5612C154.971 31.981 155.838 31.8018 156.581 32.1752C156.978 32.261 157.471 32.4048 157.88 32.4628C158.484 32.5461 159.755 32.5612 160.555 32.2913L160.728 32.203L160.733 31.648C160.676 30.3891 160.607 29.0873 160.8 27.8485C160.899 27.1926 161.117 26.2869 161.538 25.7899C162.15 25.0658 164.125 24.6268 165.061 24.541C167.122 24.3619 169.2 24.594 171.217 25.0608C170.962 24.594 171.046 23.986 171.465 23.6202C171.933 23.1989 172.656 23.2493 173.07 23.7312C173.419 24.1399 173.768 24.5511 174.14 24.9396C174.608 25.4367 175.232 25.9967 175.938 26.5467C176.099 26.5997 176.256 26.6527 176.417 26.6956C178.5 27.4096 180.781 27.9797 182.961 28.3253C183.984 28.4893 185 28.6937 186.038 28.7845C187.076 28.8753 188.151 28.9434 189.186 29.0544C189.603 29.1024 190.029 29.0872 190.46 29.1352C194.896 29.6524 199.353 29.9122 203.815 29.9753C203.649 29.8164 203.493 29.6625 203.346 29.4985L203.463 29.3673C203.654 29.5691 203.877 29.7785 204.095 29.9753C205.306 29.9955 206.517 29.9904 207.739 29.9753C208.07 29.9753 208.373 30.1342 208.563 30.389C208.905 30.4042 209.222 30.4521 209.572 30.4723C209.871 30.4925 210.278 30.6741 210.558 30.7574C212.076 31.1964 213.369 32.5789 214.667 33.4569C214.918 33.6259 215.225 33.863 215.495 33.9917C215.728 34.1027 216.074 34.2289 216.263 34.3777C216.538 34.5947 216.689 34.8116 216.808 35.1447C216.912 35.4348 216.855 37.0873 216.77 37.4354C216.741 37.5616 216.627 37.8113 216.617 37.9072C216.612 38.0106 216.612 38.1065 216.617 38.2024C217.556 39.1712 218.482 40.1399 219.406 41.134C220.04 41.8152 220.719 42.524 221.311 43.2456C221.987 44.0655 222.674 44.9056 223.36 45.7255C224.985 47.653 226.58 49.9942 227.764 52.2267C228.247 53.1223 228.953 54.4544 229.105 55.4711C229.166 55.8571 229.127 56.1749 229.132 56.5559C229.251 56.9899 229.171 57.4339 228.948 57.7896C229.489 58.8997 230.066 59.9845 230.68 61.0492C231.946 63.2441 233.35 65.3658 234.758 67.4749C236.098 69.4756 237.52 71.4333 238.862 73.4339C239.915 75.0007 241.037 76.6758 241.87 78.2854C243.282 81.0404 243.381 84.146 243.567 87.2111C243.822 87.7182 244.067 88.2253 244.31 88.7299C244.773 89.7088 245.224 90.7507 245.62 91.7548C245.87 92.3855 246.098 93.0616 246.378 93.6747C245.484 92.0777 244.659 90.4278 243.678 88.8712C243.807 90.2991 244.005 91.6968 244.431 93.0264L245.241 94.9513L249.859 103.105C250.622 104.354 251.407 105.59 252.264 106.766C252.893 107.596 253.614 108.436 254.276 109.246C255.559 110.828 256.785 112.47 258.051 114.072V114.087C258.13 114.102 258.197 114.135 258.264 114.173C258.539 114.332 258.779 114.627 258.992 114.864C259.934 115.891 260.466 116.802 261.18 117.972C261.687 118.808 262.108 119.744 262.51 120.717C262.649 120.886 262.78 121.06 262.919 121.23C264.187 122.854 265.532 124.436 266.815 126.056L268.817 128.548L270.234 128.685C272.332 128.617 274.391 127.829 276.36 127.123C277.834 126.596 279.184 126.056 280.542 125.642C279.741 124.759 278.988 123.765 278.277 122.602C278.998 123.75 279.779 124.739 280.618 125.617C282.241 125.13 283.886 124.822 285.768 124.933C287.592 125.044 289.472 125.748 291.29 126.457C292.985 125.917 294.86 125.511 296.334 125.791C296.859 125.897 297.213 126.023 297.711 126.205C298.11 126.356 298.605 126.755 298.91 127.055C298.952 127.098 298.994 127.141 299.041 127.184C300.012 126.785 301.12 127.267 301.509 128.251C301.898 129.235 301.424 130.362 300.458 130.758C300.439 130.769 300.424 130.776 300.406 130.781C300.434 131.167 300.439 131.558 300.439 131.939C300.429 133.097 299.79 134.669 299.349 135.734C299.306 135.837 299.081 136.453 299.083 136.579C299.098 137.028 299.014 137.479 298.813 137.88C297.622 140.282 296.225 142.591 294.733 144.816C293.544 146.584 292.343 148.335 291.097 150.066C289.918 151.706 288.724 153.335 287.512 154.965C287.356 155.227 287.2 155.505 287.049 155.775C286.494 156.794 286.026 157.72 285.585 158.785C285.283 159.519 284.75 160.404 284.374 161.144C283.616 162.625 282.667 164.201 281.763 165.584C281.01 166.742 280.296 167.915 279.501 169.038C274.415 176.228 268.552 182.598 262.961 189.365C262.222 190.255 261.44 191.128 260.687 192.011C260.204 192.576 259.755 193.174 259.277 193.742C257.387 196 255.707 198.593 254.214 201.136C253.683 202.047 253.027 203.243 252.638 204.217C252.378 204.862 252.051 205.501 251.808 206.152C251.563 206.798 251.335 207.486 251.117 208.147C250.956 208.614 250.825 209.093 250.706 209.57C251.34 210.072 251.33 210.501 251.657 211.238C251.905 211.798 252.098 212.401 252.264 213.014C252.338 213.079 252.42 213.147 252.499 213.211C253.086 213.682 253.718 214.247 254.271 214.767C254.446 214.919 254.471 215.189 254.323 215.365C254.176 215.544 253.911 215.569 253.736 215.416C253.371 215.136 253.017 214.84 252.66 214.545C252.675 214.623 252.695 214.707 252.717 214.782C253.23 216.803 253.106 218.91 253.173 220.971C253.21 222.353 253.148 223.744 253.034 225.121C253.902 225.923 254.788 226.703 255.693 227.442C255.881 227.606 255.906 227.909 255.745 228.103C255.579 228.295 255.279 228.32 255.091 228.156C254.37 227.543 253.661 226.92 252.96 226.299C252.997 226.751 253.032 227.21 253.064 227.669C253.309 231.58 253.287 235.427 253.297 239.342C253.3 241.832 253.272 244.335 253.248 246.828C253.24 247.67 253.252 248.516 253.252 249.363C253.252 249.744 253.282 250.16 253.23 250.541C253.148 251.041 252.695 251.972 252.472 252.456C252.098 253.261 251.761 254.134 251.417 254.959C250.243 257.749 249.002 260.663 247.315 263.194C247.255 263.458 247.188 263.731 247.121 264.001C246.993 264.51 246.757 264.912 246.611 265.351C246.472 265.754 245.459 266.945 245.157 267.336C244.124 268.663 243.002 269.869 241.932 271.151C241.117 272.129 240.185 273.038 239.345 273.996C237.869 275.704 236.288 277.339 234.715 278.974C236.075 280.039 237.49 280.937 238.912 281.911C239.043 281.996 239.075 282.186 238.996 282.314C238.912 282.445 238.726 282.483 238.597 282.397C237.111 281.472 235.682 280.467 234.304 279.403C233.564 280.165 232.835 280.932 232.119 281.704C231.324 282.561 230.507 283.439 229.766 284.345C229.635 284.509 229.474 284.683 229.323 284.862L229.219 285.127L229.124 286.298L229.095 286.689C230.923 288.233 232.783 289.736 234.688 291.207C233.982 291.275 233.338 290.488 232.783 290.107C231.547 289.255 230.284 288.165 229.085 287.128C229.085 287.552 229.095 287.981 229.095 288.402C229.09 290.186 229.285 292.133 229.432 293.917C229.501 294.838 229.392 295.953 229.35 296.889C229.318 297.557 229.184 300.022 228.939 300.519C228.654 301.089 228.186 301.165 227.675 301.435C227.12 301.73 226.491 302.227 225.961 302.631C226.33 302.926 226.59 303.37 226.632 303.88C226.637 303.968 226.637 304.059 226.632 304.142C226.798 304.271 226.964 304.402 227.125 304.531C227.234 304.619 227.262 304.788 227.177 304.899C227.096 305.015 226.932 305.043 226.818 304.957C226.709 304.894 226.6 304.821 226.496 304.745C226.29 305.222 225.899 305.593 225.406 305.747C225.322 306.186 225.235 306.625 225.131 307.089C225.012 307.609 224.487 307.937 223.977 307.81C223.464 307.689 223.142 307.16 223.266 306.635C223.313 306.433 223.355 306.229 223.4 306.027C222.386 306.196 221.41 306.504 220.737 307.334C220.325 307.841 220.092 308.539 219.956 309.264C220.283 309.556 220.615 309.861 220.945 310.149C221.073 310.27 221.083 310.477 220.969 310.608C220.85 310.739 220.647 310.747 220.519 310.631C220.293 310.429 220.07 310.227 219.842 310.025C219.795 310.434 219.763 310.835 219.738 311.191C219.597 313.184 219.634 314.99 219.265 316.968C219.166 317.493 218.913 318.772 218.591 319.173C218.428 319.38 218.252 319.509 218.061 319.693C216.555 321.091 214.927 322.428 213.354 323.755C212.782 324.232 212.215 324.714 211.633 325.201C207.986 329.527 204.05 333.577 199.903 337.507C197.805 339.495 195.514 341.612 193.212 343.358C192.432 343.946 191.654 344.644 190.849 345.195C190.797 345.28 190.74 345.364 190.688 345.449C190.408 345.878 190.106 346.395 189.779 346.781C188.959 347.76 188.146 348.56 187.259 349.463C186.873 349.857 186.499 349.998 186.09 350.041H184.728C183.794 350.056 182.86 350.011 181.928 349.963C181.517 349.94 181.096 349.955 180.682 349.892C179.813 349.766 178.859 349.794 178.002 349.622C177.018 349.428 176.037 349.274 175.066 349.082C174.982 349.09 174.9 349.095 174.821 349.095C170.796 349.249 167.102 350.094 163.178 350.982C161.6 351.343 158.955 352.665 157.419 351.676L157.42 351.676ZM159.694 348.015C160.608 347.723 161.711 347.518 162.677 347.301C163.975 347.016 165.275 346.713 166.588 346.438C166.469 346.317 166.36 346.173 166.251 346.057C165.907 345.682 165.536 345.475 165.129 345.2C164.517 344.794 163.732 344.751 163.056 344.592C162.506 344.511 162.122 343.979 162.199 343.421C162.278 342.861 162.801 342.47 163.348 342.551C163.591 342.601 163.841 342.609 164.079 342.662C164.968 342.851 165.645 343.106 166.403 343.535C164.225 340.989 162.065 338.411 159.84 335.898C158.255 334.099 156.578 332.237 154.863 330.565C154.423 330.133 153.974 329.699 153.533 329.26C153.543 329.424 153.56 329.588 153.595 329.75C153.704 330.343 153.714 330.968 153.85 331.566C153.944 332.005 154.001 332.482 154.083 332.931C154.39 334.702 154.801 336.645 155.289 338.365C155.688 339.778 156.043 341.35 156.578 342.712C156.957 343.676 157.284 344.617 157.695 345.571C157.903 346.063 158.188 346.535 158.406 347.009C158.495 347.201 158.698 347.544 158.941 347.857L159.206 348.142C159.436 348.079 159.649 348.031 159.694 348.015L159.694 348.015ZM181.915 346.771C182.928 346.507 183.993 345.999 184.89 345.179C184.045 344.496 183.183 343.82 182.336 343.146C180.107 341.375 177.867 339.412 175.759 337.487C173.928 335.825 172.214 334.051 170.49 332.27C169.14 330.872 167.768 329.328 166.569 327.794C165.067 325.867 163.529 323.967 162.231 321.878C162.132 321.724 162.164 321.507 162.323 321.407C162.474 321.301 162.687 321.338 162.786 321.492C166.175 326.614 170.287 331.205 174.813 335.312C175.42 335.862 176.002 336.443 176.611 336.982C179.562 339.609 182.579 342.162 185.665 344.619C185.75 344.697 185.807 344.798 185.826 344.904C186.413 344.533 186.973 344.147 187.484 343.786C187.835 343.539 188.18 343.294 188.527 343.04C189.884 340.666 191.073 338.125 192.678 335.925C191.12 334.323 189.582 332.698 188.061 331.056C185.755 328.566 183.525 325.899 181.348 323.291C180.144 321.85 178.942 320.382 177.763 318.916C177.03 318 176.247 317.085 175.556 316.143L175.804 315.937C176.559 316.968 177.456 318.038 178.283 319.009C179.443 320.354 180.552 321.757 181.717 323.099C185.38 327.317 189.155 331.44 193.038 335.448C193.286 335.135 193.541 334.83 193.806 334.538C194.71 333.538 195.614 333.041 196.741 332.396C197.992 331.672 199.157 330.761 200.351 329.951C198.839 328.364 197.333 326.772 195.755 325.253C193.608 323.19 191.42 321.169 189.25 319.115C187.234 317.205 185.249 315.122 183.312 313.116L181.987 311.746L181.836 311.877C181.311 311.287 180.766 310.641 180.268 310.03C180.173 309.919 179.869 309.649 179.757 309.427L179.733 309.268L179.96 309.281L180.079 309.369C180.221 309.498 180.357 309.662 180.392 309.697C180.922 310.217 181.457 310.734 181.997 311.244C183.51 312.677 185.108 314.085 186.693 315.434C191.048 319.128 195.109 323.036 199.156 327.062C199.875 327.781 200.566 328.548 201.272 329.295C202.154 328.644 203.028 327.925 203.878 327.259C204.913 326.444 205.936 325.609 206.954 324.777C206.888 324.794 206.813 324.794 206.746 324.761C205.634 324.232 204.643 323.465 203.697 322.667C201.475 320.808 199.629 318.603 197.806 316.35C196.092 314.239 194.392 312.089 192.74 309.937C191.898 308.842 190.996 307.82 190.117 306.763C189.671 306.223 189.099 305.588 188.596 305.111C188.284 304.821 187.962 304.465 187.64 304.208C187.337 303.968 186.968 303.693 186.693 303.438L186.849 303.229C187.199 303.552 187.645 303.814 187.981 304.165C188.274 304.47 188.63 304.753 188.933 305.068C189.426 305.583 189.909 306.112 190.387 306.64C191.229 307.566 192.002 308.549 192.797 309.508C194.95 312.107 197.001 314.836 199.24 317.369C201.41 319.819 204.066 322.779 206.996 324.259C207.125 324.328 207.177 324.492 207.11 324.628C208.621 323.402 208.924 323.157 209.223 322.905C210.737 321.116 212.362 319.158 213.568 317.19C213.791 316.835 214.019 316.486 214.222 316.116L214.482 315.581L214.752 314.582C214.834 314.223 214.886 313.858 214.891 313.444C214.913 311.953 214.569 310.366 214.725 308.895C214.839 307.836 215.022 306.937 215.51 306.017C213.665 304.271 211.827 302.507 209.999 300.746C204.913 295.862 199.837 290.912 195.011 285.758L195.16 285.609C199.084 289.8 203.223 293.793 207.405 297.719C209.967 300.133 212.602 302.467 215.193 304.856L215.847 305.462C217.064 303.673 219.385 302.462 221.349 301.806C222.003 301.566 222.717 301.745 223.195 302.207C223.2 302.207 223.205 302.202 223.21 302.202C222.94 301.975 222.665 301.745 222.395 301.518C219.34 298.922 216.571 296.276 213.697 293.478C211.386 291.223 209.084 288.879 206.869 286.52C206.064 285.663 205.259 284.747 204.429 283.917C203.307 282.784 202.252 281.543 201.167 280.377C200.243 279.388 199.307 278.351 198.425 277.325L198.677 277.102C200.377 279.09 202.237 281.106 204.055 282.986C206.268 285.287 208.428 287.63 210.719 289.853C214.269 293.307 217.764 296.783 221.53 299.985C222.253 300.608 222.987 301.239 223.73 301.86C223.787 301.817 223.844 301.774 223.901 301.731C224.024 298.805 223.834 295.871 223.977 292.949C223.626 292.641 223.271 292.336 222.922 292.023C219.125 288.731 215.396 285.378 211.75 281.917C207.603 277.976 203.399 274.083 199.255 270.145C205.339 275.907 211.708 281.399 217.998 286.922C219.994 288.68 221.994 290.489 224.02 292.26C224.149 290.373 224.441 288.494 225.065 286.622C225.221 286.155 225.464 285.653 225.749 285.146C225.771 284.871 225.806 284.588 225.838 284.313C223.319 282.065 220.866 279.732 218.711 277.087C218.233 276.706 218.055 276.53 217.874 276.341C217.386 275.859 216.898 275.372 216.435 274.86C211.344 270.056 210.093 268.744 208.85 267.435L209.053 267.226C211.49 269.796 213.93 272.367 216.435 274.86C214.535 273.379 216.487 275.377 218.712 277.087C220.862 279.302 223.351 281.646 225.906 283.917C226.067 283.198 226.614 282.325 226.956 281.712C227.902 280.001 229.537 278.066 230.848 276.53C226.946 273.061 223.371 269.183 219.816 265.361C216.935 262.268 214.086 259.167 211.159 256.13C209.984 254.909 208.674 253.781 207.515 252.562L207.614 252.451C208.186 253.049 208.835 253.607 209.427 254.187C210.061 254.808 210.685 255.436 211.317 256.062C213.029 257.775 214.686 259.553 216.368 261.299C221.283 266.4 225.97 271.461 231.241 276.076C233.126 273.881 235.071 271.739 237.023 269.609C236.01 268.663 234.987 267.727 233.937 266.796C231.013 264.23 227.999 261.768 225.058 259.215C223.49 257.855 221.979 256.405 220.473 254.967C219.034 253.584 217.713 252.055 216.398 250.549C216.311 250.448 216.321 250.289 216.42 250.204C216.514 250.12 216.67 250.13 216.757 250.226C220.242 254.558 224.909 258.511 229.116 262.066C231.694 264.241 234.248 266.41 236.758 268.658C236.961 268.847 237.169 269.034 237.372 269.228C237.952 268.595 238.534 267.959 239.116 267.326C240.02 266.34 240.895 265.336 241.782 264.337C242.141 263.933 242.582 263.441 242.993 262.954C242.51 262.591 242.027 262.235 241.554 261.882C237.256 258.753 233.268 254.914 229.47 251.177C225.942 247.706 222.504 244.118 219.08 240.538C217.297 238.674 215.431 236.875 213.67 234.993V234.723H213.935C215.852 236.759 217.894 238.734 219.853 240.738C223.304 244.262 226.772 247.822 230.374 251.182C231.989 252.691 233.584 254.255 235.262 255.681C236.567 256.801 237.87 257.929 239.181 259.044C240.565 260.214 241.98 261.329 243.409 262.437C243.6 262.192 243.771 261.95 243.912 261.723C243.984 261.382 244.048 261.044 244.14 260.706C244.318 260.002 244.41 259.22 244.551 258.506C244.826 257.093 245.034 255.663 245.252 254.24C242.396 251.533 239.547 248.834 236.691 246.134C230.701 240.475 224.706 234.796 219.167 228.676C219.075 228.58 219.08 228.416 219.177 228.32C219.276 228.227 219.437 228.232 219.526 228.328C225.365 234.743 231.695 240.697 238.073 246.548C240.53 248.801 242.961 251.099 245.388 253.385C245.455 252.961 245.532 252.537 245.606 252.113C245.762 251.283 245.866 250.405 245.98 249.568C246.141 248.425 246.307 247.277 246.473 246.129C245.963 245.69 245.44 245.246 244.92 244.787C243.471 243.533 242.103 242.163 240.731 240.819C239.091 239.219 237.496 237.592 235.905 235.944C232.202 232.11 228.519 228.209 224.654 224.548C223.718 223.665 222.779 222.744 221.813 221.899C221.178 221.347 220.507 220.792 219.885 220.211C219.796 220.126 219.781 219.972 219.868 219.881C219.947 219.783 220.098 219.77 220.195 219.856C221.434 221.019 222.761 222.131 224.025 223.279C225.189 224.346 226.311 225.494 227.458 226.579C228.58 227.639 229.636 228.782 230.733 229.861C233.366 232.452 235.938 235.147 238.539 237.776C241.133 240.394 243.828 242.907 246.587 245.326C246.659 244.865 246.728 244.395 246.8 243.929C247.231 241.093 247.62 238.224 247.989 235.354C246.614 234.12 245.257 232.866 243.88 231.632C240.3 228.454 236.842 225.078 233.433 221.702C227.309 215.64 221.287 208.942 216.414 201.797L216.457 201.517L216.737 201.56C218.872 204.752 221.364 207.751 223.827 210.683C229.925 217.946 237.142 224.538 244.207 230.798C245.502 231.956 246.82 233.094 248.131 234.231C248.235 233.442 248.329 232.645 248.433 231.855C248.648 230.152 248.909 228.406 249.055 226.708C249.065 226.57 249.077 226.433 249.092 226.289C248.913 225.548 248.743 224.804 248.587 224.037C248.43 223.31 248.297 222.561 248.193 221.799C239.235 212.926 231.479 202.847 223.99 192.662C223.906 192.546 223.931 192.375 224.045 192.292C224.151 192.206 224.322 192.228 224.409 192.339C226.767 195.546 229.133 198.753 231.605 201.863C234.541 205.559 237.558 209.101 240.682 212.628C243.05 215.295 245.584 218.005 248.165 220.464C248.165 220.464 248.168 220.47 248.178 220.48C247.876 218.724 247.838 218.025 247.824 217.329C247.625 216.317 247.435 215.295 247.256 214.273C246.919 212.434 246.583 210.64 246.459 208.814C244.048 206.377 241.74 203.831 239.502 201.328C235.673 197.052 231.803 192.688 227.785 188.593C226.559 187.339 225.271 186.148 224.047 184.904L224.039 184.582L224.352 184.571C225.568 185.805 226.841 186.983 228.062 188.217C229.095 189.259 230.089 190.354 231.132 191.386C232.388 192.645 233.589 193.979 234.8 195.281C236.076 196.651 237.362 198.006 238.645 199.375C241.189 202.105 243.783 204.762 246.401 207.396C246.401 207.138 246.406 206.873 246.421 206.603C246.508 204.555 248.269 201.429 249.319 199.693C249.45 199.471 249.589 199.244 249.725 199.022C240.686 190.81 232.217 181.61 225.454 171.415L225.714 171.238C226.722 172.868 227.948 174.467 229.09 176.011C231.313 179.006 233.832 181.948 236.373 184.663C240.815 189.408 245.427 193.899 250.186 198.291C251.487 196.207 252.871 194.159 254.296 192.138C253.575 191.593 252.871 191.033 252.222 190.488C250.976 189.456 249.72 188.455 248.524 187.367C247.315 186.275 246.175 185.165 245.014 184.012C240.758 179.784 236.827 175.318 232.841 170.817C231.771 169.609 230.686 168.415 229.63 167.197L229.858 166.98C237.575 175.656 245.512 184.456 254.742 191.515C256.399 189.191 258.113 186.9 259.825 184.64C261.341 182.636 262.867 180.646 264.395 178.658C263.164 177.878 262.017 177.028 260.831 176.17C259.709 175.37 258.425 174.281 257.407 173.34C256.052 172.076 254.717 170.865 253.419 169.54C250.503 166.551 247.771 163.382 245.09 160.175C245.006 160.074 244.914 159.968 244.825 159.87C244.793 159.842 244.753 159.812 244.736 159.774C244.711 159.746 244.691 159.716 244.664 159.678C243.044 157.753 241.36 155.849 239.749 153.901C239.048 153.056 238.268 152.271 237.557 151.431C235.974 149.557 234.119 147.786 232.424 146.007L232.608 145.818C234.213 147.5 235.865 149.14 237.433 150.858C239.531 153.159 241.558 155.511 243.614 157.854C243.708 157.965 243.807 158.081 243.901 158.192C243.869 158.134 243.839 158.076 243.807 158.013C242.653 156.071 241.397 154.393 240.062 152.579C239.593 151.943 239.038 151.335 238.533 150.722C237.292 149.198 235.927 147.738 234.632 146.262C230.17 141.198 225.748 136.193 223.407 129.712L223.603 129.634C225.927 136.072 230.341 141.108 234.795 146.113C236.093 147.574 237.411 149.03 238.674 150.526C239.063 150.987 239.442 151.494 239.843 151.943C240.284 152.435 240.701 153.056 241.107 153.583C242.39 155.261 243.465 157.012 244.476 158.854C246.966 161.727 249.475 164.712 252.151 167.383C253.439 168.673 254.712 169.921 256.037 171.17C258.381 173.373 261.054 175.467 263.667 177.339C264.041 177.614 264.415 177.879 264.794 178.148C266.298 176.201 267.809 174.256 269.315 172.313C269.238 172.328 269.164 172.318 269.097 172.27C265.763 170.07 262.733 167.467 259.825 164.707C255.782 160.874 252.108 156.812 248.494 152.559C243.188 146.305 237.984 140.018 232.457 133.965L232.576 133.854C235.407 136.95 238.144 140.086 240.924 143.224C244.03 146.734 247.043 150.362 250.223 153.805C251.596 155.281 252.961 156.752 254.343 158.223C258.004 162.123 261.844 165.943 266.038 169.24C267.133 170.098 268.26 171.011 269.409 171.791C269.491 171.844 269.533 171.937 269.538 172.023C269.927 171.531 270.313 171.029 270.707 170.525C272.525 168.176 274.406 165.85 276.194 163.478C278.24 160.774 280.334 158.067 282.412 155.388C282.786 154.903 283.16 154.421 283.519 153.94C283.933 153.173 284.374 152.426 284.869 151.702C285.699 150.478 286.517 149.237 287.347 148.008C288.588 146.172 289.903 144.214 290.832 142.178C291.166 141.436 291.394 140.717 291.674 139.965C291.825 139.549 291.939 139.067 292.024 138.58L292.209 137.327L292.177 136.373C292.204 135.727 292.343 135.089 292.536 134.463C292.365 134.337 292.19 134.216 292.011 134.095C291.102 133.479 290.158 132.896 289.244 132.283C288.776 131.973 288.323 131.67 287.877 131.38C284.213 132.664 280.636 134.004 276.598 134.274C275.887 134.322 275.112 134.317 274.386 134.211C278.605 137.491 283.014 140.528 287.55 143.331C287.798 143.485 287.877 143.818 287.731 144.073C287.582 144.325 287.253 144.406 287.005 144.257C284.639 142.882 282.246 141.277 280.007 139.695C277.143 137.675 274.364 135.538 271.673 133.295C271.54 133.247 271.403 133.204 271.274 133.166C270.987 133.098 270.764 133.078 270.479 133.03L270.645 133.035C269.934 133.035 269.439 133.002 268.753 132.788C268.495 132.712 267.626 132.326 267.435 132.341L267.185 132.311C266.65 132.364 266.142 132.351 265.683 132.013C265.366 131.786 265.054 131.579 264.742 131.352C264.264 131.004 263.59 130.295 263.231 129.823C262.446 128.776 261.792 127.803 261.247 126.592C260.796 125.608 260.394 124.571 259.954 123.569C258.026 121.173 256.072 118.693 254.385 116.021C254.192 115.862 254.026 115.67 253.87 115.476C251.64 112.819 249.552 110.094 247.486 107.302C247.367 107.148 247.402 106.916 247.553 106.797C247.615 106.752 247.689 106.729 247.761 106.729C247.496 106.305 247.226 105.876 246.966 105.445C245.019 103.427 243.252 101.232 241.573 99.009C241.481 98.8249 241.231 98.5347 241.1 98.3128C240.743 97.735 240.347 97.0059 240.129 96.3701C240.005 95.9993 239.822 95.53 239.74 95.1541C239.517 94.1147 239.428 93.0955 239.277 92.0485L238.893 90.0529L238.576 89.2381C238.358 88.7562 237.902 88.128 237.58 87.6941C236.814 86.6496 235.999 85.6405 235.231 84.5834C234.882 84.1066 234.518 83.5288 234.223 82.9309L233.661 81.117L233.688 81.2179L233.656 81.1018L233.304 79.583C233.044 77.8726 233.074 76.0056 232.97 74.3658C232.945 74.0327 232.918 73.6896 232.868 73.339C229.073 68.2705 225.198 63.2449 221.743 57.9367C221.691 57.8585 221.661 57.7727 221.661 57.6844C221.25 57.2757 220.814 56.8417 220.445 56.4128C217.717 53.287 215.874 49.838 214.009 46.1496C213.4 44.9436 212.711 43.6847 212.164 42.4662C211.577 41.1644 210.913 39.9181 210.264 38.6567C209.838 37.8368 209.322 36.8705 208.805 36.1137C208.532 35.71 208.252 35.2862 207.972 34.8648L207.888 34.832L207.499 34.6781C206.865 34.4687 206.238 34.2972 205.594 34.1282C205 33.9692 204.331 33.949 203.744 33.8153C203.199 33.6892 202.366 33.6942 201.806 33.664C200.818 33.6059 199.852 33.6009 198.861 33.6059C195.717 33.6261 192.636 33.9238 189.472 33.7951C187.347 33.7119 185.348 33.4874 183.457 33.061C184.931 35.0061 186.309 36.9109 187.639 38.9645C189.695 42.1433 191.57 45.5367 193.488 48.8112C196.829 54.5255 200.746 60.8047 205.78 65.1015C205.961 65.2655 205.973 65.5556 205.812 65.7373C205.651 65.9215 205.369 65.9366 205.188 65.7676C204.544 65.1797 203.786 64.5616 203.199 63.9259C202.698 63.3809 202.175 62.8536 201.675 62.3037C199.978 60.4292 198.195 58.0753 196.882 55.9006C194.62 52.1441 192.668 48.3041 190.532 44.4768C189.868 43.2936 189.234 42.0372 188.533 40.8892C187.758 39.6152 187.01 38.3462 186.195 37.0974C185.271 35.6745 184.253 34.3626 183.239 33.0078C181.56 32.6143 179.975 32.0592 178.468 31.3074C177.507 31.0602 176.541 30.7801 175.55 30.5051C175.476 30.4875 175.404 30.4673 175.332 30.4471C175.295 30.6742 175.213 30.8962 175.092 31.098C174.574 31.9381 173.477 32.1828 172.657 31.6581C171.279 30.77 169.704 29.4455 168.064 29.2412L167.673 29.2336V29.9652C167.705 31.4739 167.747 33.1718 167.477 34.6678C167.326 35.4625 167.259 36.5045 166.62 37.0494C166.122 37.4732 165.403 37.4455 164.802 37.3496C164.489 37.3017 164.13 37.2865 163.761 37.2865C163.84 37.4076 163.93 37.5464 164.048 37.7154C164.083 37.7583 164.096 37.7835 164.115 37.8063C164.281 38.0661 164.462 38.3285 164.645 38.5883C165.285 39.3729 165.825 40.213 166.392 41.1111C168.329 44.1764 169.986 47.653 172.273 50.5341C172.34 50.6401 172.421 50.736 172.506 50.8268C173.259 51.7678 174.089 52.6307 175.02 53.3926C174.765 53.4405 174.002 52.6458 173.804 52.4439C173.363 51.9999 172.88 51.4676 172.506 50.8268C172.117 50.5417 171.819 50.1658 172.273 50.5341C171.317 49.472 171.099 49.1441 170.92 48.8312C170.546 48.1955 170.09 47.5774 169.706 46.9315C168.297 44.5449 166.937 42.1381 165.475 39.789C165.21 39.3727 164.925 38.9792 164.645 38.5881C164.37 38.0482 164.016 37.5562 164.048 37.7152C163.959 37.589 163.86 37.4402 163.741 37.2863C163.122 37.2863 162.473 37.3241 161.943 37.3241C159.163 37.3241 155.465 37.69 152.43 37.0592C152.462 37.1173 152.495 37.1753 152.534 37.2283C154.033 39.7889 155.539 42.4304 157.295 44.8274C157.932 45.6902 158.537 46.5934 159.205 47.4335C159.646 47.986 160.124 48.536 160.551 49.0961C160.432 49.1289 160.308 49.144 160.189 49.1692C157.055 45.5262 154.338 41.2123 151.974 36.9587C151.402 36.8124 150.852 36.6308 150.349 36.3936C149.455 35.9799 148.754 35.5106 148.202 34.6907C148.093 34.5267 147.949 34.3602 147.907 34.1609C147.865 33.9868 147.818 33.4343 147.776 33.3359C147.709 33.1821 147.657 33.0483 147.58 32.9272C146.378 32.9373 145.17 32.9323 143.963 32.9424C143.341 32.95 142.643 33.0862 142.098 32.7204C141.927 32.6043 141.751 32.4302 141.637 32.2562C141.429 31.9232 141.33 31.5245 141.169 31.1713C141.003 30.8055 140.827 30.4523 140.659 30.0966C140.067 28.8528 139.336 27.8386 138.337 27.0817C138.28 27.0666 138.223 27.0439 138.166 27.0186C138.664 27.8588 139.165 28.7014 139.678 29.5415C142.96 34.9808 146.349 40.3673 149.611 45.8215C150.966 48.0845 152.324 50.3551 153.703 52.603C153.768 52.714 153.731 52.8729 153.622 52.9385C153.508 53.0066 153.352 52.9688 153.29 52.8578C151.122 49.3182 148.977 45.7534 146.827 42.2038C144.318 38.0587 141.766 33.9388 139.261 29.7963C138.635 28.7695 138.025 27.7376 137.418 26.7007C136.764 26.4257 136.108 26.1406 135.454 25.853C134.062 25.5679 132.447 25.5099 131.153 25.2602C130.762 25.187 130.368 25.1037 129.979 25.018C134.255 30.6213 138.409 36.303 142.494 42.0749C141.679 41.583 140.321 39.4083 139.71 38.5353C137.973 36.0478 136.14 33.5729 134.322 31.1461C132.758 29.0597 131.183 26.991 129.595 24.9222C125.423 23.9131 121.413 21.9503 119.941 17.4801C119.426 15.9234 119.421 14.0389 119.671 12.2401C118.18 10.358 116.684 8.47849 115.192 6.59641C112.762 6.50559 110.337 6.25077 107.914 5.94048C105.484 6.16753 103.031 6.19276 100.554 6.21042C97.0368 6.24574 93.4771 6.0868 89.9397 6.07167C90.9207 7.4113 91.9513 8.70804 92.9322 10.0654C94.4335 12.1366 95.952 14.2508 97.5102 16.2792C99.7892 19.2259 102.294 22.5964 105.12 25.0434L105.13 25.3411L104.83 25.3512C102.034 22.9293 99.5762 19.6546 97.3167 16.7278C95.8874 14.8709 94.5423 12.9384 93.1402 11.0513C91.9511 9.46193 90.7249 7.86996 89.5606 6.26799L89.5854 6.0712C89.0454 6.0712 88.5053 6.07625 87.9752 6.08129C87.6234 6.32601 87.3014 6.55811 87.0363 6.73218C85.763 7.5849 84.5219 8.51584 83.2288 9.34589C81.9803 10.1406 80.8135 10.7587 79.4882 11.3945C79.0101 11.6266 78.2868 11.9117 77.7691 12.0302C76.6667 12.3002 75.5643 12.4415 74.4545 12.4995C75.8814 14.5884 77.3009 16.695 78.7599 18.7587C77.8211 18.1986 77.3158 17.1441 76.6915 16.2838C75.7997 15.0653 74.9475 13.7761 74.0953 12.5147C73.9393 12.5172 73.7881 12.5222 73.642 12.5222C73.2754 12.7745 72.8988 13.0091 72.5 13.2362C70.1739 14.5582 67.7635 14.707 65.2591 14.1495C65.2739 14.1672 65.2789 14.1823 65.2937 14.1975C66.3391 15.9433 67.387 17.6942 68.4423 19.4349C70.1986 22.3312 72.163 25.5352 74.5634 27.9344L74.2934 28.0126C73.8302 27.4929 73.3793 27.006 72.926 26.4787C72.1631 25.5906 71.4768 24.5588 70.8179 23.5951C69.4926 21.6575 68.2045 19.5736 67.0352 17.5301C66.406 16.42 65.71 15.2343 65.0138 14.157C65.0039 14.1495 64.994 14.1343 64.9841 14.1192C64.288 14.0662 64.2137 14.046 64.1369 14.0284C63.3566 13.8391 62.6184 13.5843 61.8455 13.3624C61.4144 13.2362 60.9834 13.0823 60.5523 12.9284C60.2749 12.9183 59.995 12.8426 59.7348 12.6963C59.4772 12.5803 59.1998 12.4213 58.853 12.3683C58.5681 12.2876 58.2857 12.2044 58.0008 12.1186C57.5945 11.9975 57.1239 11.9546 56.7076 11.8234C56.6383 11.8108 56.5664 11.7856 56.4946 11.7553C56.3237 11.7856 56.1552 11.8184 55.9273 11.8587C55.4145 11.9596 54.4534 12.6963 53.953 13.1655C53.8019 13.5894 53.5591 14.0763 53.3832 14.4244C53.0958 15.0173 52.6698 15.5572 52.2957 16.0971C51.4089 17.3787 50.4254 18.6098 49.3875 19.7754C48.8475 20.3885 48.3025 20.9864 47.7501 21.5742C48.2604 22.3664 48.8202 23.151 49.3503 23.8902C52.8209 28.8073 56.8513 33.217 60.8618 37.6779C60.9782 37.8116 60.9708 38.0286 60.837 38.1547C60.7007 38.2758 60.4877 38.2657 60.3688 38.1295C59.6058 37.3146 58.8725 36.4366 58.1344 35.599C56.2071 33.4092 54.3368 31.2143 52.469 28.9713C51.2353 27.4777 50.0364 25.8909 48.9414 24.2888C48.4162 23.5269 47.8663 22.77 47.3609 21.9855C45.7135 23.7212 44.0167 25.3888 42.3 27.0766C42.0349 27.3415 41.7599 27.6039 41.4899 27.8536C41.9259 28.4187 42.3842 28.9637 42.8623 29.4935C45.0794 31.9709 47.6508 34.2289 49.9891 36.6153C51.2005 37.8465 52.1715 39.1862 53.2466 40.5258C53.3556 40.6671 53.3259 40.884 53.1897 40.99C53.0485 41.101 52.8354 41.0707 52.7314 40.932C51.5894 39.4612 50.3631 37.8314 49.0131 36.5573C48.1881 35.7778 47.3607 34.9175 46.5507 34.1076C45.5227 33.0909 44.3534 32.0717 43.3972 30.9969C42.815 30.346 42.2279 29.7002 41.6507 29.0392C41.4328 28.8046 41.2247 28.5523 41.0215 28.2975C40.5459 28.7365 40.0777 29.1705 39.6144 29.6043C39.3197 29.8793 39.0026 30.1594 38.6905 30.4243C38.7004 30.5832 38.7053 30.7169 38.7152 30.8229C38.7995 32.6948 38.9605 34.4154 38.5666 36.2445C38.1603 38.124 37.1001 38.9111 35.7822 40.0338C35.5741 40.213 35.371 40.387 35.1629 40.5662C35.3041 40.715 35.4429 40.8689 35.5741 41.0329C37.437 43.3489 38.7103 46.0181 40.5385 48.3188C41.2049 49.1539 41.9257 49.7366 42.763 50.3774C42.8869 50.4758 42.9092 50.6575 42.82 50.7836C42.7258 50.9097 42.545 50.9325 42.4211 50.8416C39.5773 48.889 38.0984 45.2812 36.1563 42.5134C35.7227 41.8902 35.2868 41.3553 34.8136 40.8735C34.4866 41.1586 34.1546 41.4462 33.8178 41.7262C33.7707 41.7691 33.7236 41.8094 33.6345 41.8776C32.4602 43.2374 31.0483 44.3171 29.495 45.3011C29.3489 45.397 29.2102 45.4878 29.069 45.5837C31.0755 48.3815 33.3868 50.8691 35.8216 53.4121C37.2881 54.946 38.6332 56.5833 40.0106 58.2055C40.1022 58.3165 40.0923 58.4855 39.9833 58.5713C39.8793 58.6622 39.7133 58.6546 39.6241 58.5436C38.2741 56.9567 36.9611 55.3925 35.5417 53.8687C33.2156 51.3761 30.8102 48.8457 28.7891 46.0907C28.7321 46.0226 28.6801 45.9519 28.628 45.8788C28.5438 45.9317 28.4571 45.9847 28.3778 46.0327C27.984 46.4767 27.5108 46.7946 27.0377 47.0948L24.7264 48.3335L24.7091 48.3487L23.6414 49.3174C23.198 49.6681 22.7323 49.9936 22.2591 50.3064C22.269 50.3165 22.2789 50.3165 22.2938 50.319C22.6208 50.5561 22.9949 50.8614 23.307 51.1162C24.2063 51.8529 25.0337 52.9529 25.7496 53.8687C27.1467 55.6826 28.3828 57.7841 29.6363 59.7141C30.9542 61.735 32.3513 63.5615 34.2638 65.0197C34.6378 65.3073 35.324 65.7816 35.76 65.9355C35.874 65.9885 35.9211 66.1323 35.8641 66.2433C35.8071 66.3543 35.6709 66.4022 35.5569 66.3442C35.1482 66.2156 34.4818 65.7715 34.1251 65.5117C32.3117 64.1745 30.9195 62.517 29.6611 60.645C27.5208 57.4561 25.8214 54.2269 23.0689 51.5553C22.7097 51.2172 22.3257 50.9523 21.9319 50.7051C19.197 54.666 16.5538 58.7305 13.9972 62.8349C15.5107 64.5277 17.5346 65.7942 19.3529 67.101C20.054 67.6031 20.8194 68.0951 21.4635 68.6778C22.1744 69.3262 22.8928 69.972 23.4576 70.7617C23.6657 71.0519 23.8515 71.3697 24.067 71.6548C24.1388 71.7658 24.1116 71.9147 24.0076 71.9878C23.8986 72.0534 23.7499 72.0257 23.6806 71.9197C23.4576 71.617 23.2669 71.2638 23.0464 70.9737C22.3874 70.1109 21.5501 69.3691 20.7352 68.6753C19.774 67.8504 18.5577 67.1213 17.5296 66.3543C16.6379 65.6883 15.7064 65.0777 14.8716 64.3183C14.4851 63.9727 14.116 63.5968 13.7692 63.2057C13.4199 63.7658 13.0731 64.3234 12.7239 64.8835C12.0277 66.0162 11.2747 67.1364 10.6009 68.2843C10.2094 68.9478 9.65454 69.9418 9.19129 70.5296C9.02531 70.7441 8.90145 71.0418 8.74538 71.2739C8.16819 72.1266 7.68017 73.0525 7.15007 73.8774C6.95189 74.1373 6.67692 74.7504 6.52829 75.0783C5.98577 76.2843 5.65383 77.5659 5.50766 78.8778C5.65381 79.0241 5.79997 79.1679 5.93374 79.3117C6.9519 80.4495 8.03443 81.5268 8.9832 82.7302C12.5628 87.284 15.7859 91.5706 20.584 94.8296C20.7153 94.923 20.7525 95.1197 20.6584 95.256C20.5692 95.3947 20.376 95.4326 20.2372 95.3367C15.5925 92.3143 12.3247 87.7705 8.95855 83.4059C8.22032 82.4522 7.38055 81.4733 6.573 80.5853C6.20638 80.1942 5.8323 79.8133 5.45332 79.4424C5.34928 80.9133 5.45331 82.4068 5.72333 83.8499C5.73324 83.918 5.7481 83.9811 5.76792 84.0769C5.98096 84.632 6.12712 85.2097 6.28318 85.7748C6.5532 86.7612 6.7712 87.7982 6.6944 88.9133C6.74643 89.1832 6.79844 89.4532 6.85542 89.7282C7.15517 91.2621 7.59119 92.8338 7.81657 94.3778C7.89832 94.9227 7.97263 95.4576 8.04448 96.0025C9.42183 97.6701 10.9527 99.204 12.553 100.849C14.3862 102.728 16.3036 104.51 18.045 106.49C18.7412 107.287 19.3382 108.173 20.0145 108.97C20.1433 109.134 20.1061 109.379 19.9451 109.505C19.7841 109.636 19.5413 109.596 19.4174 109.432C18.1021 107.676 16.7198 105.902 15.1616 104.363C14.1584 103.372 13.1675 102.337 12.184 101.326C10.767 99.8751 9.39962 98.4471 8.14365 96.9561C8.20063 97.6272 8.23531 98.3058 8.21549 98.9971C8.20558 99.3302 8.23779 99.7389 8.20558 100.057L7.97768 101.876L7.45746 105.055L7.46242 105.007C7.97273 105.458 8.48552 105.933 8.90661 106.457C9.44169 107.123 10.009 107.802 10.554 108.458C11.2079 109.25 11.8273 110.224 12.4243 111.072C13.3111 112.336 14.1757 113.647 15.0204 114.944C16.856 117.752 18.7363 120.578 21.0054 123.04C21.5058 123.58 22.0285 124.15 22.5908 124.617C22.4818 124.657 22.3579 124.69 22.249 124.725C18.8551 121.685 16.648 117.712 14.1284 113.96C12.4389 111.437 10.6356 108.42 8.53241 106.235C8.16826 105.864 7.80413 105.521 7.43251 105.178L7.26406 106.235C6.93707 107.716 6.48125 109.152 5.78024 110.458C5.72822 110.564 5.67123 110.663 5.60683 110.749C5.50774 111.13 5.40122 111.505 5.29223 111.876C5.5449 113.382 5.48297 115.509 4.77201 117.091C5.099 117.919 5.43592 118.754 5.78021 119.584C8.63149 122.886 11.5868 126.146 14.6979 129.191C16.1272 130.588 17.5714 131.928 19.0429 133.278C21.1609 135.223 23.3954 137.143 25.6871 138.873C27.8522 140.508 30.0148 142.156 32.3262 143.571C32.4451 143.647 32.4823 143.811 32.4104 143.927C32.3361 144.048 32.1751 144.086 32.0612 144.013C31.0158 143.45 29.896 142.658 28.9076 141.984C25.6823 139.784 22.4918 137.282 19.6304 134.605C17.5991 132.7 15.5157 130.815 13.5885 128.794C11.0939 126.186 8.68852 123.562 6.32029 120.858L8.37144 125.548L8.35657 125.52C8.46557 125.631 8.57457 125.747 8.68853 125.868L8.66871 125.871L8.77275 125.858C9.03781 125.896 9.27067 125.987 9.48371 126.123L9.94695 126.514L10.0758 126.632C10.435 127.023 10.7397 127.493 11.0369 127.874C12.0699 129.198 13.145 130.445 14.2053 131.746C15.6247 133.495 17.0987 135.218 18.5479 136.943C21.7807 140.793 25.0259 144.656 28.3204 148.445C29.4104 149.699 30.488 150.968 31.6101 152.192C32.0139 152.631 32.4152 153.133 32.8339 153.547C33.4904 154.203 33.9784 154.947 33.4532 155.858L33.255 156.027L35.1575 156.73C35.9403 156.963 36.7355 157.139 37.5208 157.286C39.8172 157.725 42.6016 157.825 45.0344 157.608C45.1533 156.905 45.6884 156.324 46.4044 156.175C45.8445 155.651 45.3143 155.063 44.7694 154.525C43.7958 153.562 42.8347 152.568 41.8736 151.589C40.3526 150.032 38.8093 148.503 37.3031 146.927C35.5121 145.055 33.7954 143.021 32.1951 140.965C35.3907 145.042 38.9134 148.576 42.565 152.227C43.8655 153.529 45.1363 154.864 46.4418 156.171C46.4567 156.166 46.4716 156.166 46.479 156.161C47.1181 156.209 48.2328 155.28 48.7531 154.985C49.0082 154.831 49.2559 154.632 49.5111 154.468C50.3633 153.928 51.8917 153.133 52.9296 153.128C53.5118 153.128 54.3119 153.113 55.0353 153.264C55.1542 153.254 55.2879 153.249 55.4242 153.254C56.3333 153.287 57.4084 153.484 58.2952 153.716C60.1655 154.203 62.0012 154.695 63.8442 155.23C64.8004 155.515 65.6576 155.833 66.5865 155.964C68.2339 155.772 69.8564 155.583 71.4963 155.346C71.5285 155.336 71.5583 155.328 71.5855 155.313C72.2866 155.038 72.9876 154.816 73.6936 154.518C74.5557 154.15 75.4153 153.759 76.2675 153.365C72.4947 150.567 69.2941 147.096 66.1626 143.546C64.545 141.72 62.8679 139.868 61.1339 138.15C60.2247 137.244 59.2983 136.394 58.3693 135.508C58.2652 135.42 58.2603 135.256 58.3495 135.15C58.4362 135.049 58.5972 135.044 58.7012 135.13C59.2462 135.672 59.8605 136.154 60.3907 136.694C61.7457 138.069 63.1231 139.399 64.4459 140.817C66.8983 143.461 69.326 146.198 71.9272 148.69C73.1955 149.911 74.4886 151.006 75.8387 152.124C76.2128 152.444 76.6042 152.737 77.008 153.027C78.5464 152.313 80.0897 151.604 81.68 151.006C82.4628 150.716 83.2679 150.466 84.0805 150.259C80.6297 147.118 77.1738 143.947 73.8621 140.685C70.4535 137.335 66.755 133.709 63.8594 129.859C63.7529 129.738 63.7727 129.552 63.8966 129.446C64.0155 129.345 64.1988 129.362 64.3028 129.484C66.0592 131.817 68.1153 133.934 70.1317 136.033C72.1061 138.077 74.2761 140.118 76.4015 141.997C78.4601 143.826 80.4641 145.706 82.5054 147.558C83.3947 148.373 84.289 149.187 85.1858 150.012C86.1568 149.821 87.1353 149.7 88.1213 149.652C88.2972 149.599 88.4755 149.541 88.6266 149.488C89.9098 149.081 90.9478 148.529 92.0948 148.181C91.6117 147.752 91.1361 147.318 90.658 146.879C86.1841 142.81 81.9604 138.458 77.8085 134.04L77.8134 133.77L78.0785 133.775C80.3972 136.288 82.8843 138.715 85.3467 141.086C87.7942 143.455 90.2714 145.746 92.8033 147.991C93.2219 147.91 93.6555 147.857 94.1311 147.847C95.1443 147.832 96.8536 148.377 97.406 149.293C97.624 149.656 97.8469 150.567 97.9708 151.006C98.06 151.319 98.2532 151.7 98.387 152.005C98.657 152.646 98.9542 153.201 99.2912 153.726C99.799 154.185 100.304 154.636 100.817 155.085C100.485 154.853 100.153 154.631 99.8163 154.402L100.285 154.985L100.626 155.058C101.929 155.678 103.282 156.201 104.59 156.826C105.893 157.459 107.218 158.123 108.482 158.872C108.591 158.539 108.819 158.239 109.146 158.057C109.827 157.676 110.699 157.931 111.073 158.625C111.261 159.117 111.551 159.629 111.774 160.111C111.848 160.285 111.92 160.449 111.994 160.613C112.626 160.651 113.193 161.09 113.369 161.741C113.421 161.948 113.431 162.155 113.406 162.354L113.369 162.465L113.733 162.836C114.023 163.174 114.41 163.56 114.784 163.984C114.95 163.762 115.163 163.583 115.433 163.461C116.248 163.111 117.199 163.497 117.546 164.324C117.717 164.788 117.947 165.238 118.108 165.709C118.403 166.557 118.626 167.523 118.799 168.414C119.079 169.837 119.235 171.333 119.27 172.995C119.946 173.815 120.613 174.671 121.286 175.49C123.868 178.672 126.654 182.216 130.118 184.454C130.274 184.555 130.306 184.772 130.207 184.926C130.108 185.085 129.895 185.12 129.739 185.019C129.625 184.951 129.506 184.883 129.382 184.802V184.888C128.461 185.829 127.536 186.768 126.612 187.709H126.315V187.411C127.239 186.47 128.166 185.524 129.09 184.585C128.79 184.376 128.508 184.141 128.255 183.932C127.479 183.281 126.689 182.66 125.983 181.931C125.002 180.925 124.081 179.906 123.167 178.846C121.901 177.38 120.68 175.826 119.473 174.312C119.401 174.232 119.339 174.148 119.27 174.068C119.26 174.857 119.216 175.692 119.156 176.57C119.131 177.226 119.121 177.877 119.027 178.523C118.995 178.725 118.97 178.927 118.948 179.131C118.965 179.739 118.876 180.355 118.554 181.74C118.512 181.947 118.472 182.148 118.435 182.355C120.476 184.26 122.533 186.157 124.566 188.057C124.68 188.163 124.69 188.342 124.586 188.453C124.487 188.567 124.311 188.577 124.197 188.471C122.243 186.649 120.278 184.83 118.316 183.004C118.289 183.158 118.259 183.316 118.237 183.47C118.212 183.602 118.175 183.725 117.999 183.725C118.076 184.835 117.563 186.841 116.964 188.746C116.971 189.268 117.011 189.783 117.08 190.252C117.13 190.575 117.167 190.92 117.214 191.248C117.469 191.624 117.724 191.972 117.947 192.268C119.369 194.205 120.955 196.067 122.555 197.899C123.241 198.459 123.932 199.019 124.628 199.564C124.933 199.803 125.24 200.046 125.557 200.29C126.263 200.368 127.091 200.384 127.484 200.976C127.621 201.188 127.673 201.428 127.755 201.67C127.772 201.738 127.797 201.809 127.811 201.887C129.214 202.798 130.69 203.608 132.159 204.12C132.362 204.201 132.461 204.448 132.384 204.65C132.305 204.857 132.062 204.963 131.859 204.882C130.571 204.448 129.271 203.782 127.99 202.987C128.029 203.595 128.005 204.231 127.958 204.849C128.039 204.993 128.124 205.127 128.203 205.268C128.768 206.242 129.588 207.574 129.905 208.643C130.13 209.433 129.937 210.581 130.056 211.479C130.254 213.008 130.586 214.262 131.126 215.707C131.304 216.189 131.517 216.681 131.75 217.168C131.849 217.156 131.953 217.146 132.057 217.146C132.853 217.173 133.484 217.865 133.455 218.674C133.427 219.219 133.403 219.759 133.385 220.299C135.047 223.357 136.544 226.147 136.97 229.674C137.002 229.944 136.965 230.315 136.97 230.6C136.977 231.304 137.017 232.182 136.868 232.861C136.821 233.108 136.747 233.368 136.66 233.605C136.613 233.754 136.472 233.991 136.442 234.135C136.249 234.564 135.927 234.897 135.543 235.098C135.355 236.251 135.169 237.409 134.99 238.565C136.903 240.601 138.934 242.432 140.965 244.425C142.992 246.416 145.209 248.548 146.794 250.929C146.879 251.055 146.851 251.234 146.727 251.325C146.604 251.414 146.425 251.383 146.339 251.257C145.402 249.948 144.503 248.78 143.445 247.536C142.472 246.398 141.268 245.22 140.193 244.176C138.409 242.452 136.623 240.737 134.933 238.913V238.923C134.743 240.119 134.611 241.368 134.383 242.548C134.203 243.489 134.014 244.42 133.816 245.346C134.99 246.416 136.12 247.511 137.23 248.684C139.464 251.045 141.595 253.646 143.663 256.162C145.152 257.971 146.634 259.812 148.177 261.573C149.366 262.923 150.498 264.318 151.747 265.605C151.913 265.789 151.903 266.082 151.724 266.251C151.543 266.42 151.254 266.41 151.09 266.228C148.271 263.349 145.796 259.88 143.282 256.732C141.625 254.658 140.02 252.604 138.281 250.604C137.756 249.996 137.225 249.358 136.671 248.785C135.672 247.763 134.711 246.802 133.708 245.858C133.294 247.728 132.853 249.59 132.42 251.457C132.789 251.86 132.935 252.456 132.754 253.003C132.182 254.6 131.615 256.202 131.08 257.807C131.065 257.86 131.045 257.913 131.032 257.966C131.761 258.546 132.494 259.119 133.22 259.716C134.411 260.71 135.672 261.931 136.742 263.059C137.486 263.844 138.306 264.626 139.002 265.446C139.854 266.445 140.753 267.409 141.615 268.403C144.863 272.164 147.917 275.8 151.638 279.07C151.782 279.196 151.789 279.418 151.673 279.556C151.554 279.695 151.336 279.71 151.2 279.589C149.485 278.192 147.87 276.466 146.354 274.849C143.803 272.129 141.42 269.188 138.972 266.367C137.112 264.212 135.085 262.151 132.962 260.262C132.276 259.654 131.563 259.101 130.847 258.541C130.691 259.038 130.544 259.535 130.396 260.034L130.349 260.297C130.155 261.086 129.9 261.881 129.61 262.726C129.44 263.415 129.271 264.187 129.17 264.848C129.048 265.691 128.944 266.468 128.847 267.313C128.843 267.351 128.84 267.389 128.835 267.429L129.028 268.055C129.318 268.842 129.719 269.616 130.037 270.355C130.629 271.73 131.164 272.949 131.57 274.382L131.538 274.276C131.922 275.664 133.834 276.784 134.889 277.72C136.222 278.905 136.898 279.735 137.334 281.292L137.362 281.408L137.508 281.572C137.669 281.761 137.822 281.953 137.984 282.195C138.152 282.455 138.31 282.793 138.427 283.159C138.779 283.515 139.128 283.886 139.485 284.259C141.263 286.186 142.973 288.197 144.712 290.17C145.403 290.952 146.069 291.79 146.795 292.539C147.533 293.301 148.205 294.139 148.953 294.905C150.905 296.904 152.609 298.657 154.848 300.279C155.602 300.824 156.81 301.508 157.727 301.692C157.851 301.73 157.923 301.864 157.886 301.99C157.846 302.121 157.715 302.186 157.586 302.149C154.167 301.311 150.189 296.762 147.907 294.343C146.817 293.19 145.799 291.949 144.749 290.763C142.67 288.409 140.666 286.017 138.536 283.719C138.479 283.661 138.417 283.598 138.357 283.545C138.608 283.939 138.63 284.211 138.613 284.451L138.603 284.567L139.698 287.806C140.047 288.989 140.364 290.228 140.659 291.472C144.843 297.444 149.762 303.122 155.044 308.105L155.049 308.438L154.722 308.443C149.669 303.539 145.004 298.238 140.894 292.486C140.983 292.862 141.065 293.233 141.149 293.589C141.315 294.328 141.506 295.07 141.657 295.814C141.771 296.359 141.954 296.921 141.999 297.476C142.026 297.936 141.84 298.48 141.729 298.919C141.803 300.007 142.016 301.089 142.271 302.184C142.566 303.44 142.789 304.831 143.02 306.11C143.121 306.652 143.277 307.189 143.409 307.724C143.522 308.186 143.646 308.678 143.773 309.175C143.944 309.079 144.134 309.011 144.337 308.988C145.096 308.91 145.787 309.47 145.861 310.242C145.881 310.555 145.906 310.873 145.928 311.181C147.003 312.169 148.093 313.148 149.185 314.117C150.558 315.338 151.938 316.564 153.3 317.793C154.125 318.54 154.982 319.264 155.72 320.104L155.745 320.422L155.43 320.445C154.266 319.655 153.226 318.646 152.168 317.715C150.739 316.461 149.341 315.179 147.949 313.888C147.3 313.295 146.654 312.697 146.01 312.099C146.166 313.789 146.396 315.454 146.8 317.094C147.174 317.543 147.553 317.985 147.939 318.449C149.252 320.031 150.422 321.428 151.477 323.2C151.908 323.914 152.282 324.68 152.634 325.389C152.998 326.126 153.394 326.807 153.466 327.635C153.481 327.847 153.491 328.059 153.496 328.273C154.026 328.803 154.578 329.317 155.108 329.84C156.709 331.406 158.391 333.094 159.882 334.762C161.081 336.104 162.317 337.416 163.519 338.745C165.384 340.802 167.202 342.928 169.003 345.05L170.943 345.603C171 345.623 171.067 345.638 171.134 345.656C171.706 345.585 172.278 345.527 172.858 345.489C173.529 345.439 174.158 345.489 174.822 345.484C175.176 345.484 175.508 345.59 175.783 345.772C176.517 345.855 176.995 346.014 177.564 346.39L177.889 346.65L177.971 346.713C178.065 346.723 178.164 346.733 178.261 346.743L178.687 346.733L179.524 346.718C179.883 346.728 180.2 346.834 180.532 346.887L181.201 346.902H181.285C181.498 346.872 181.687 346.834 181.914 346.771L181.915 346.771ZM166.392 335.159C162.917 331.44 159.575 327.169 157.336 322.56C157.244 322.381 157.321 322.153 157.497 322.063C157.67 321.974 157.893 322.048 157.98 322.232C160.583 327.618 164.391 331.803 168.411 336.11C170.101 337.919 171.872 339.538 173.618 341.269C175.02 342.662 176.559 344.052 178.05 345.354C178.231 345.513 178.246 345.803 178.085 345.984C177.929 346.168 177.649 346.184 177.468 346.025C173.566 342.601 169.95 338.958 166.392 335.159L166.392 335.159ZM183.285 336.973C176.916 330.661 171.3 323.271 165.793 316.187C165.716 316.086 165.736 315.937 165.83 315.856C165.929 315.778 166.075 315.798 166.157 315.894C171.228 322.391 176.266 328.798 181.997 334.71C183.458 336.221 184.965 337.639 186.543 339.016C187.36 339.73 188.217 340.507 189.079 341.163C189.235 341.289 189.26 341.529 189.136 341.688C189.01 341.847 188.777 341.872 188.616 341.746C186.756 340.194 185.012 338.683 183.285 336.973L183.285 336.973ZM207.47 315.372C204.128 313.074 200.989 309.514 198.389 306.398C195.827 303.33 193.343 300.164 190.871 297.028L190.989 296.932C193.873 300.578 196.808 304.17 199.881 307.667C203.183 311.419 207.297 315.127 211.848 317.18C211.994 317.249 212.051 317.433 211.989 317.577C211.922 317.725 211.744 317.783 211.6 317.72C210.094 317.016 208.841 316.313 207.471 315.372L207.47 315.372ZM208.372 308.874C204.398 304.89 200.705 300.657 197.053 296.373L197.276 296.176C202.627 302.451 208.257 308.536 214.716 313.647C214.867 313.769 214.891 314.001 214.768 314.15C214.649 314.298 214.421 314.324 214.275 314.202C212.211 312.588 210.222 310.731 208.371 308.874L208.372 308.874ZM268.09 310.557C267.052 310.42 266.125 309.817 265.306 308.811C264.055 307.297 263.425 305.021 263.046 302.758C262.947 302.668 262.843 302.569 262.749 302.478C262.338 302.107 261.592 301.636 261.367 301.144C261.223 300.828 261.218 300.579 261.206 300.251C261.124 298.699 261.632 297.478 262.256 296.305C262.199 295.974 262.132 295.651 262.063 295.361L261.788 294.685L261.533 294.425C261.062 293.79 260.708 292.854 260.958 292.225C261.134 291.791 261.466 291.416 261.758 291.07C261.877 290.934 261.959 290.669 262.053 290.515C262.162 290.515 262.308 290.399 262.417 290.462L262.823 290.644L263.247 289.71C263.519 289.183 263.933 288.58 264.339 287.944C264.079 287.992 263.824 288.04 263.559 288.093C263.212 288.171 262.863 288.345 262.516 288.431C262.179 288.537 261.815 288.345 261.706 288.002C261.602 287.659 261.793 287.283 262.127 287.177C262.801 287.023 263.43 286.748 264.131 286.612C263.72 286.102 263.302 285.59 262.905 285.076L263.128 284.886C263.569 285.457 264.065 285.991 264.501 286.564H264.491L265.174 286.506C265.4 286.06 265.571 285.605 265.643 285.177C265.774 284.326 265.774 283.643 265.551 282.843L265.259 282.081L264.917 281.531C264.553 280.759 264.33 279.697 264.307 279.018C264.235 277.008 264.714 275.002 265.514 273.155L265.945 272.285C265.742 271.49 265.652 270.708 265.841 269.817C266.064 268.738 267.384 267.834 268.132 267.163L268.521 266.775L268.541 266.601C268.543 266.225 268.697 265.872 268.957 265.602C269.185 265.367 269.876 265.004 270.188 264.825C270.255 264.797 270.319 264.759 270.371 264.729C272.556 262.791 275.254 261.542 278.014 260.463L276.537 261.02C277.744 260.374 278.98 259.786 280.33 259.252L282.101 258.676L282.674 257.602C283.025 257.062 283.409 256.542 283.726 256.093C283.806 255.977 283.9 255.851 284.066 255.725C284.096 255.677 284.108 255.654 284.128 255.629C284.891 254.418 285.614 253.179 286.387 251.966C286.885 251.183 287.541 250.48 288.153 249.786C288.708 249.158 290.108 247.957 290.933 247.856C291.703 247.765 292.669 248.439 293.301 249.057C293.888 248.888 294.445 248.792 294.829 248.85C295.236 248.918 295.607 249.188 295.833 249.533C296.16 250.025 296.558 252.306 296.677 252.939C296.752 253.328 296.841 253.729 296.908 254.12C297.49 257.564 297.708 261.05 296.34 264.332C296.085 264.945 295.781 265.563 295.389 266.093L295.072 266.464C297.368 268.581 299.665 270.718 301.988 272.807C302.082 272.887 302.087 273.044 302.003 273.14C301.921 273.23 301.77 273.235 301.676 273.155C299.35 271.071 297.054 268.934 294.762 266.817L294.18 267.496L293.095 270.014C292.699 270.829 292.29 271.633 291.874 272.436C291.505 273.854 291.074 275.289 290.626 276.659C290.487 277.05 290.346 277.436 290.204 277.822C290.45 277.986 290.695 278.145 290.953 278.294C291.126 278.41 291.178 278.66 291.064 278.839C290.955 279.018 290.71 279.071 290.534 278.955C290.331 278.829 290.128 278.695 289.934 278.559C289.877 278.728 289.82 278.897 289.768 279.066L289.801 278.955C289.516 279.802 289.228 280.749 288.986 281.606C288.844 282.113 288.612 282.673 288.441 283.178C287.826 285.002 287.13 286.806 286.439 288.605C285.587 290.837 284.643 293.032 283.721 295.235C282.911 297.165 281.992 299.027 281.103 300.922C279.914 303.462 278.45 306.028 276.538 308.059C275.794 308.844 273.275 310.097 272.324 310.415C271.598 310.663 270.897 310.827 270.216 310.895C270.132 310.96 270.037 311.023 269.936 311.076C269.269 311.414 268.469 311.207 268.09 310.557L268.09 310.557ZM270.661 307.199C271.159 307.027 271.627 306.896 272.115 306.669L273.998 305.594L274.491 305.165C274.704 304.953 274.974 304.577 275.155 304.33C275.492 303.876 275.794 303.394 276.084 302.912C276.027 302.584 276.074 302.239 276.235 301.918C277.258 299.749 278.512 297.667 279.341 295.394C279.671 294.473 279.936 293.552 280.263 292.646C280.548 291.821 280.761 290.86 280.964 289.949C277.523 287.096 274.325 283.637 271.405 280.304C270.803 279.631 270.193 278.944 269.586 278.266C269.728 280.108 269.663 281.974 269.108 283.675C268.875 284.366 268.652 284.929 268.271 285.411C270.78 288.42 273.498 291.334 276.272 294.069C275.789 294.076 275.534 293.653 275.217 293.355C274.625 292.805 274.008 292.164 273.461 291.569C271.637 289.616 269.827 287.653 268.105 285.605C268.09 285.62 268.075 285.632 268.065 285.642C268.08 285.663 268.075 285.678 268.07 285.69C267.758 286.52 267.404 287.209 266.886 287.933C266.683 288.228 266.448 288.531 266.19 288.844C267.01 289.949 267.81 291.059 268.568 292.207C269.435 293.532 270.362 294.942 271.305 296.213C271.925 297.043 272.502 297.994 273.171 298.784C273.337 299.029 273.275 299.387 273.03 299.556C272.787 299.725 272.437 299.662 272.272 299.41C270.76 296.97 269.336 294.483 267.825 292.043C267.218 291.064 266.569 290.118 265.945 289.154C265.799 289.341 265.647 289.535 265.499 289.722C265.804 289.863 266.034 290.161 266.074 290.519C266.083 290.769 266.126 291.039 266.153 291.291C266.292 292.467 265.826 294.011 265.363 295.081C265.343 295.114 265.335 295.149 265.32 295.202C265.799 296.446 265.878 297.775 266.049 299.122C266.163 300.076 266.282 301.007 266.443 301.938C267.166 302.831 267.83 303.795 268.308 304.635C268.672 305.276 269.123 305.954 269.425 306.625C269.524 306.847 269.633 307.09 269.752 307.339C270.054 307.314 270.367 307.309 270.661 307.198V307.199ZM225.947 299.9L225.994 299.859L226.596 299.408L226.378 296.408C226.312 295.871 226.198 295.326 226.118 294.781C226.108 294.773 226.094 294.763 226.084 294.753C225.99 296.466 225.99 298.187 225.947 299.9V299.9ZM136.257 289.599C135.888 288.199 135.425 286.821 134.932 285.467C134.855 285.252 134.776 284.273 134.87 284.299L134.694 284.056C134.325 283.691 134.04 283.441 133.867 282.906C133.634 282.197 133.77 281.877 133.17 281.304C133.141 281.279 133.113 281.251 133.084 281.226C133.27 281.68 133.44 282.147 133.614 282.578C134.402 284.541 135.093 286.546 135.836 288.542C136.012 289.019 136.18 289.488 136.351 289.96C136.319 289.834 136.284 289.718 136.257 289.599L136.257 289.599ZM281.291 288.562C281.487 287.573 281.665 286.559 282.002 285.595C282.381 284.505 282.797 283.436 283.248 282.389C282.783 281.882 282.314 281.377 281.846 280.86C281.108 280.06 280.315 279.094 279.525 278.367C278.655 277.567 277.845 276.748 276.954 275.96C276.433 275.501 275.841 275.103 275.306 274.643C275.17 274.537 275.14 274.331 275.249 274.192C275.353 274.056 275.556 274.028 275.695 274.136C276.215 274.58 276.812 274.976 277.32 275.436C278.276 276.293 279.238 277.181 280.112 278.12C281.259 279.351 282.356 280.633 283.456 281.912C284.383 279.785 285.44 277.731 286.533 275.675C284.009 273.087 282.044 270.014 280.023 266.845C279.909 266.664 279.951 266.406 280.132 266.293C280.312 266.177 280.563 266.22 280.682 266.401C282.512 269.277 284.487 272.406 286.912 274.966C287.145 274.543 287.375 274.119 287.608 273.685C287.888 273.178 288.158 272.658 288.408 272.141C289.25 268.886 289.976 265.637 290.694 262.342C290.974 261.078 291.244 259.723 291.561 258.517C291.586 258.262 291.638 258.013 291.666 257.76C291.723 257.251 291.723 256.686 291.713 256.121L291.695 254.612L291.457 253.189C289.966 254.047 288.564 255.225 287.457 256.396C287.103 256.993 286.776 257.581 286.471 258.109C285.832 259.221 284.63 261.232 283.493 261.827C283.097 262.034 282.75 262.115 282.314 262.289C281.264 262.713 280.169 263.076 279.104 263.47C278.232 263.793 277.228 264.168 276.401 264.57C275.856 264.829 275.331 265.114 274.796 265.394C274.781 265.405 274.756 265.42 274.739 265.432L274.142 265.791L273.134 266.394C271.803 267.372 270.656 268.742 269.933 270.16C269.799 270.41 269.507 271.109 269.45 271.374C269.373 271.737 269.227 272.33 269.093 272.658C269.019 272.829 268.932 272.998 268.838 273.162C268.952 273.695 269.066 274.224 269.15 274.732C269.284 275.594 269.415 276.495 269.514 277.406C270.319 278.309 271.134 279.21 271.944 280.088C274.838 283.271 277.855 286.367 281.154 289.119C281.201 288.927 281.249 288.743 281.291 288.562L281.291 288.562ZM140.195 276.241C138.942 274.76 137.607 273.448 136.18 272.151C135.858 271.856 135.446 271.5 135.092 271.258C134.728 271.008 134.386 270.718 134.027 270.478C133.566 270.173 133.076 269.918 132.615 269.611L132.553 269.353L132.801 269.29C133.301 269.623 133.883 269.913 134.359 270.269C136.157 271.611 137.877 273.029 139.353 274.734C140.366 275.903 141.379 277.045 142.37 278.241C145.42 281.917 148.241 285.683 152.232 288.34L152.284 288.628L152.002 288.679C147.307 285.52 143.824 280.538 140.195 276.241L140.195 276.241ZM267.695 279.124C267.596 278.435 267.469 277.754 267.318 277.083C267.251 277.457 267.199 277.827 267.16 278.145C267.085 278.743 267.209 279.853 267.464 280.373C267.606 280.658 267.705 280.845 267.804 281.077C267.819 280.358 267.771 279.674 267.695 279.124V279.124ZM214.61 246.317C206.683 239.444 198.927 232.348 192.848 223.687L192.89 223.397L193.175 223.439C197.525 229.646 202.762 234.825 208.341 239.878C212.711 243.844 217.197 247.667 221.641 251.549C221.78 251.67 221.795 251.882 221.676 252.018C221.562 252.152 221.354 252.167 221.22 252.051C218.996 250.169 216.813 248.221 214.611 246.317L214.61 246.317ZM143.996 234.994C142.363 232.815 141.055 230.496 139.215 228.475C138.935 228.162 138.474 227.678 138.14 227.453C137.937 227.312 137.746 227.153 137.548 227.014C137.33 226.858 137.003 226.744 136.765 226.588C136.656 226.53 136.614 226.391 136.666 226.285C136.723 226.174 136.861 226.131 136.97 226.184C137.51 226.507 138.249 226.85 138.685 227.317C138.831 227.481 139.049 227.655 139.215 227.799C139.492 228.051 139.755 228.392 140.027 228.667C140.701 229.343 141.444 230.456 142.016 231.238C143.557 233.332 145.232 236.074 147.246 237.734C147.788 238.186 148.249 238.413 148.831 238.766C149.007 238.862 149.072 239.099 148.972 239.276C148.878 239.455 148.645 239.523 148.472 239.422C146.805 238.746 145.071 236.422 143.996 234.994L143.996 234.994ZM219.823 234.581C219.419 234.265 218.974 233.983 218.562 233.677C217.611 232.968 216.697 232.174 215.808 231.382C212.213 228.2 209.023 224.406 205.797 220.851C204.281 219.176 202.738 217.581 201.19 215.946V215.651H201.475C202.525 216.789 203.622 217.884 204.675 219.022C207.42 221.999 210.083 225.041 212.884 227.973C215.409 230.612 218.416 233.548 221.465 235.516C221.19 235.572 220.083 234.787 219.823 234.58L219.823 234.581ZM146.209 223.243C145.097 222.226 144.141 221.179 143.145 220.054C141.644 218.358 140.296 216.491 138.797 214.804C138.158 214.085 137.524 213.318 136.853 212.634C136.27 212.036 135.636 211.491 135.054 210.906C134.831 210.689 134.541 210.472 134.296 210.28C133.325 209.536 132.426 208.882 131.351 208.292C130.863 208.022 130.333 207.8 129.835 207.55C129.721 207.492 129.664 207.344 129.721 207.222C129.773 207.106 129.924 207.048 130.038 207.106C130.452 207.318 130.883 207.518 131.299 207.714C132.562 208.312 134.192 209.455 135.252 210.376C138.582 213.295 141.213 216.835 144.205 220.084C144.728 220.657 145.27 221.191 145.835 221.704L146.588 222.364L146.479 221.502C146.427 220.851 146.444 220.185 146.573 219.327C147.15 220.551 147.42 221.285 147.581 222.645C147.628 223.043 147.933 223.782 147.43 223.984C147.034 224.153 146.484 223.497 146.209 223.242L146.209 223.243ZM135.981 203.441C134.276 202.063 133.035 200.239 131.403 198.763C130.843 198.254 129.924 197.668 129.22 197.386C128.958 197.275 128.685 197.192 128.423 197.065C128.249 197.005 128.162 196.79 128.224 196.614C128.291 196.435 128.499 196.344 128.675 196.41C129.111 196.609 129.537 196.753 129.973 196.965C131.118 197.515 131.975 198.292 132.889 199.164C133.605 199.843 134.343 200.726 135.019 201.47C135.683 202.207 136.526 202.838 137.326 203.408C137.705 203.673 138.557 204.306 138.963 204.44C138.822 204.634 138.396 204.488 138.188 204.455C137.393 204.324 136.61 203.948 135.981 203.441H135.981ZM250.277 178.356C245.981 174.657 242.374 170.542 238.614 166.294C237.714 165.272 236.833 164.212 235.911 163.218C235.019 162.255 234.162 161.23 233.246 160.3C232.936 159.992 232.661 159.644 232.349 159.346C231.843 158.874 231.375 158.342 230.877 157.85C230.233 157.209 229.552 156.596 228.913 155.95L228.903 155.647L229.2 155.637C229.817 156.26 230.466 156.843 231.085 157.456C232.701 159.056 234.333 160.769 235.834 162.472C237.796 164.699 239.775 166.937 241.777 169.112C245.367 173.002 248.775 176.582 253.019 179.758C254.111 180.578 255.31 181.365 256.495 182.049C256.844 182.251 257.186 182.493 257.545 182.672C258.261 183.023 258.984 183.386 259.69 183.752C259.836 183.827 259.903 184.017 259.829 184.165C259.757 184.319 259.571 184.382 259.42 184.312C256.101 182.662 253.103 180.795 250.277 178.355L250.277 178.356ZM219.49 177.69C217.292 174.932 215.142 172.102 212.987 169.304L213.24 169.107C216.69 173.585 220.151 178.066 223.637 182.522C221.994 181.187 220.8 179.345 219.49 177.69L219.49 177.69ZM235.721 177.18C235.282 176.668 234.863 176.133 234.442 175.606C232.557 173.272 230.717 170.901 228.822 168.58C227.459 166.917 226.082 165.224 224.759 163.526C223.949 162.484 223.069 161.495 222.24 160.474C220.716 158.584 219.116 156.727 217.538 154.88C215.942 153.024 214.263 151.245 212.606 149.441C212.021 148.8 211.387 148.197 210.805 147.554C210.678 147.425 210.681 147.213 210.81 147.087C210.934 146.961 211.142 146.966 211.266 147.092C212.316 148.25 213.443 149.373 214.513 150.526C217.151 153.357 219.765 156.462 222.17 159.495C224.907 162.949 227.687 166.372 230.352 169.887C232.676 172.949 235.029 176.05 237.435 179.04C236.773 178.659 236.223 177.768 235.72 177.18L235.721 177.18ZM264.739 157.194C259.923 152.913 255.585 148.283 251.166 143.596C249.482 141.812 247.815 139.998 246.153 138.189C248.37 141.903 250.577 145.627 252.833 149.315C252.895 149.426 252.863 149.585 252.712 149.669C252.64 149.722 252.484 149.681 252.417 149.565C249.846 145.357 247.327 141.099 244.795 136.86C244.76 136.812 244.75 136.739 244.765 136.671C241.128 132.717 237.487 128.754 233.68 124.972C233.548 124.846 233.548 124.629 233.677 124.501C233.799 124.364 234.012 124.364 234.14 124.496C235.783 126.193 237.445 127.861 239.075 129.569C242.38 133.03 245.627 136.547 248.905 140.034C256.911 148.564 264.979 156.94 274.38 163.892C274.579 164.044 274.626 164.336 274.479 164.541C274.331 164.742 274.043 164.79 273.845 164.637C270.652 162.366 267.67 159.805 264.739 157.194L264.739 157.194ZM120.77 160.012C119.167 158.415 117.582 156.78 116.006 155.156L116.133 155.025C118.657 157.626 121.204 160.219 123.762 162.79C122.63 162.04 121.731 160.966 120.77 160.012L120.77 160.012ZM110.106 155.827C108.865 154.997 107.507 154.076 106.345 153.125C104.084 151.263 101.701 149.341 99.6423 147.226C98.094 145.645 96.4789 144.05 95.0669 142.327C94.1479 141.209 93.2536 140.109 92.3544 138.972L92.3866 138.702L92.6516 138.734C93.5335 139.94 94.6359 141.32 95.659 142.405C96.1891 142.97 96.6969 143.573 97.2271 144.141C97.9851 144.951 98.7927 145.713 99.5557 146.515C100.599 147.607 101.835 148.611 102.964 149.623C104.812 151.278 106.953 152.928 108.969 154.374C111.858 156.442 114.714 158.453 117.733 160.32C118.335 160.691 118.922 161.092 119.539 161.443C116.279 159.702 113.178 157.896 110.106 155.827L110.106 155.827ZM270.214 148.385C258.581 138.765 248.67 126.824 239.189 115.073C239.073 114.926 239.09 114.702 239.239 114.586C239.38 114.465 239.603 114.485 239.717 114.629C242.155 117.666 244.632 120.661 247.146 123.633C249.24 126.11 251.355 128.633 253.567 130.994C255.933 133.527 258.286 136.002 260.716 138.474C263.092 140.904 265.631 143.157 268.16 145.425C272.166 149.013 276.754 152.547 281.294 155.4C281.507 155.542 281.569 155.834 281.433 156.051C281.289 156.268 281.002 156.331 280.789 156.192C277.108 153.892 273.563 151.152 270.214 148.384L270.214 148.385ZM45.7569 152.071C44.3498 150.819 43.0765 149.538 41.7933 148.163C40.463 146.735 39.1551 145.183 37.7728 143.828C36.8216 142.892 35.8604 141.977 34.9042 141.046L35.0405 140.897C35.6152 141.454 36.2147 141.987 36.7943 142.537C37.9165 143.606 39.004 144.782 40.0642 145.92C42.4943 148.534 45.2688 151.569 48.2665 153.496C48.3607 153.564 48.3855 153.708 48.3186 153.806C48.2517 153.897 48.1105 153.922 48.0163 153.854C47.2905 153.433 46.3962 152.633 45.7571 152.07L45.7569 152.071ZM57.4395 152.348C55.9383 151.442 54.442 150.405 53.0771 149.295C49.1656 146.104 45.5166 142.32 42.4155 138.301C42.3288 138.2 42.3437 138.041 42.4477 137.96C42.5468 137.872 42.6979 137.887 42.7846 137.993C44.0332 139.651 45.517 141.296 46.9315 142.814C48.0586 144.02 49.3319 145.362 50.5829 146.427C51.5589 147.252 52.5325 148.077 53.5135 148.902C54.2913 149.558 55.2178 150.141 56.0526 150.729C57.098 151.47 58.2672 152.056 59.3845 152.676C59.5405 152.759 59.6074 152.966 59.5281 153.125C59.4414 153.284 59.2383 153.352 59.0822 153.267C58.5571 153.04 57.9402 152.654 57.4399 152.348L57.4395 152.348ZM65.6019 151.697L65.3368 151.692C64.6928 151.071 64.0784 150.395 63.4566 149.75C62.4905 148.738 61.4972 147.739 60.5211 146.732C58.8788 145.024 57.2339 143.311 55.5964 141.601C53.689 139.603 51.9178 137.501 50.1317 135.399L50.3125 135.248C52.76 138.316 55.5296 141.162 58.2498 143.982C60.6626 146.48 63.1348 148.987 65.6074 151.427L65.6019 151.697ZM244.805 145.168C243.272 143.702 241.79 142.151 240.331 140.612C238.114 138.283 235.847 135.998 233.484 133.841C233.474 133.836 233.469 133.831 233.464 133.826C233.462 133.823 233.452 133.818 233.447 133.808C231.577 132.105 229.577 130.619 227.68 128.957C228.693 129.771 229.738 130.576 230.752 131.391C231.23 131.787 231.718 132.191 233.447 133.808C232.659 133.006 233.088 133.379 233.464 133.826H233.474C233.479 133.831 233.484 133.836 233.484 133.841C234.366 134.522 235.174 135.284 235.951 136.046C239.459 139.507 242.783 143.269 246.41 146.586C246.093 146.528 245.1 145.453 244.805 145.168L244.805 145.168ZM27.6913 139.873C26.7475 138.833 25.8582 137.751 24.9342 136.696C23.3487 134.898 21.7385 133.114 20.1383 131.318C15.2458 125.83 10.4177 120.444 6.32545 114.306C6.24122 114.18 6.26848 114.001 6.39234 113.915C6.52116 113.829 6.69456 113.857 6.77631 113.988C10.8068 120.121 15.8823 125.586 20.8396 130.942C22.4399 132.67 24.0971 134.401 25.6603 136.167C26.5645 137.193 27.4687 138.23 28.3877 139.242C28.5537 139.434 28.5388 139.744 28.3506 139.913C28.1598 140.082 27.8626 140.067 27.6916 139.873L27.6913 139.873ZM293.084 133.051C293.547 132.027 294.746 131.585 295.75 132.057C296.03 132.191 296.265 132.385 296.451 132.612C296.478 132.529 296.508 132.438 296.545 132.352L296.602 131.633C295.906 131.656 295.18 131.598 294.38 131.469C293.183 131.275 291.957 130.856 290.758 130.407C289.936 130.665 289.131 130.942 288.331 131.217C289.084 131.656 289.854 132.085 290.592 132.544C291.167 132.9 291.771 133.238 292.331 133.614C292.463 133.712 292.596 133.803 292.733 133.899C292.837 133.609 292.96 133.331 293.084 133.051L293.084 133.051ZM277.832 130.513L279.298 130.38C280.634 130.099 281.956 129.703 283.307 129.275C283.636 129.174 283.968 129.063 284.305 128.952C284.218 128.889 284.139 128.831 284.055 128.767L284.015 128.762L280.517 129.645C279.776 129.898 279.033 130.18 278.285 130.47L277.832 130.513ZM284.872 128.757L284.585 128.762L284.377 128.767C284.431 128.808 284.483 128.841 284.533 128.873C284.644 128.841 284.753 128.803 284.872 128.757V128.757ZM22.9864 86.0954C21.8395 84.9702 20.8114 83.5625 19.6422 82.4776C18.9387 81.8167 18.1856 80.9891 17.5267 80.2701C16.3748 79.0112 15.1486 77.78 14.0834 76.4404C13.1173 75.2143 12.0917 74.0588 11.1255 72.8276C10.7168 72.318 10.2065 71.7579 9.84978 71.218L9.88446 70.9127L10.1867 70.9481C10.8307 71.937 11.7919 72.9386 12.5351 73.8897C14.5862 76.4933 16.9817 79.0591 19.3251 81.3926C20.3259 82.3917 21.2672 83.4462 22.2532 84.4604C22.6396 84.859 22.9964 85.3434 23.3927 85.7193C23.4918 85.8354 23.4844 86.012 23.3754 86.1129C23.2664 86.2188 23.0855 86.2113 22.9864 86.0952L22.9864 86.0954ZM239.732 84.3673C239.695 83.7416 239.576 83.1235 239.472 82.5029C238.387 80.916 237.285 79.3443 236.158 77.7801C236.192 78.3023 236.244 78.822 236.324 79.3443C236.381 79.7303 236.522 80.1062 236.594 80.4467C236.636 80.6511 236.651 80.9109 236.74 81.1178C236.827 81.3197 236.891 81.5619 237.005 81.7687C237.637 82.8839 238.61 84.1756 239.45 85.1595C239.566 85.3033 239.685 85.4572 239.804 85.6085C239.777 85.1923 239.752 84.7785 239.732 84.3673L239.732 84.3673ZM237.144 77.177L236.457 75.9534C236.319 75.7112 236.183 75.4766 236.039 75.2293C236.044 75.3303 236.044 75.4362 236.049 75.5346C236.292 75.8575 236.527 76.1805 236.765 76.4983L237.144 77.177ZM232.073 70.2818L232.038 70.191L231.436 69.1239C230.74 67.928 229.883 66.8155 229.179 65.6373C228.828 65.0545 228.33 64.3178 227.918 63.7805C227.299 62.9757 226.749 62.0397 226.147 61.2071C225.159 59.8372 224.26 58.3714 223.274 56.9965C222.526 55.9545 221.867 54.8218 221.133 53.7697C219.679 51.6833 218.339 49.3926 217.061 47.1827C216.048 45.4192 214.888 43.2773 214.249 41.3347C214.197 41.1833 214.14 41.0294 214.083 40.8705C213.642 40.4163 213.196 39.9648 212.753 39.5056C211.809 38.5519 210.858 37.5151 209.887 36.6018L208.22 34.9594L208.519 35.0779C209.56 36.5689 210.526 38.1608 211.398 39.6847C212.364 41.3901 213.231 43.1511 214.13 44.8919C214.836 46.2618 215.485 47.7225 216.256 49.0546C217.304 50.8585 218.292 52.4983 219.506 54.1987C220.276 55.2835 221.218 56.2548 222.142 57.2085C222.28 57.2135 222.417 57.2816 222.506 57.4053C225.441 61.9237 228.785 66.1598 232.11 70.3882L232.073 70.2818ZM195.564 63.5359C190.114 57.8115 185.98 51.3028 182.055 44.4154C180.487 41.6655 178.914 38.7642 177.542 35.9031C177.485 35.782 177.527 35.623 177.651 35.5599C177.77 35.4994 177.926 35.5473 177.988 35.6684C178.845 37.4571 179.816 39.2357 180.762 40.9816C182.826 44.776 185.013 48.5575 187.443 52.12C190.037 55.9345 192.774 59.8173 196.01 63.1021C196.123 63.2232 196.119 63.425 196 63.5461C195.881 63.6622 195.683 63.6571 195.564 63.536L195.564 63.5359ZM209.059 57.5618C203.325 52.3092 199.532 45.4191 195.49 38.7965C195.385 38.6325 195.44 38.4054 195.601 38.3045C195.762 38.2036 195.985 38.2566 196.089 38.4206C197.449 40.6583 198.804 42.934 200.233 45.1291C201.148 46.5368 202.042 47.9875 203.04 49.3397C204.583 51.411 206.025 53.4369 207.871 55.2558C209.689 57.0496 211.753 58.9544 214.022 60.1351C214.21 60.2562 214.277 60.516 214.158 60.7103C214.046 60.902 213.784 60.9701 213.596 60.8541C211.995 59.8803 210.452 58.8383 209.06 57.5617L209.059 57.5618ZM185.858 58.2883C184.057 56.1818 182.466 53.9868 180.918 51.6858C179.194 49.1352 177.519 46.5114 175.961 43.8548C174.616 41.5691 173.219 39.2985 171.926 36.9874C171.316 35.8925 170.623 34.8329 170.028 33.7329L170.249 33.6017C170.789 34.6058 171.421 35.6579 172.013 36.6317C172.664 37.6963 173.276 38.8115 173.91 39.8963C174.891 41.5589 175.894 43.2138 176.875 44.8739C177.921 46.6575 179.063 48.4841 180.222 50.1921C182.149 53.043 183.958 55.6743 186.17 58.3034C186.071 58.3034 185.957 58.2983 185.858 58.2882L185.858 58.2883ZM62.0048 22.2743C61.2963 21.1995 60.4194 20.1778 59.3344 19.4688C58.8513 19.156 58.2642 18.8507 57.7391 18.6337C57.536 18.5479 57.256 18.4798 57.0727 18.3789C56.9439 18.336 56.877 18.1846 56.9191 18.056C56.9637 17.9197 57.1099 17.8567 57.2362 17.897C57.6301 18.0837 58.0809 18.2099 58.4872 18.4067C59.9686 19.1307 61.3558 20.3164 62.265 21.7167C62.8521 22.6173 63.3599 23.5205 63.8132 24.4994C64.757 26.4949 65.52 28.6368 66.8553 30.3953C67.3433 31.0412 67.8437 31.5054 68.4456 32.0301C68.5645 32.1411 68.5744 32.3404 68.4679 32.459C68.3614 32.5801 68.1657 32.5902 68.0468 32.4842C64.8933 30.0093 64.1328 25.5109 62.0049 22.2739L62.0048 22.2743ZM143.812 29.5272L143.939 29.7971H144.318C144.149 29.7013 143.978 29.6105 143.812 29.5272V29.5272ZM120.772 26.6209C120.353 26.2777 119.922 25.7555 119.553 25.3569C119.147 24.9179 118.731 24.4739 118.337 24.0148C117.646 23.2049 116.982 22.3901 116.595 21.4162C115.629 20.2885 114.777 19.0775 114.113 17.7026C112.434 15.6793 111.765 14.4859 111.131 13.2422L111.319 13.1514C112.129 14.7761 113.021 16.3327 114.113 17.7026C114.123 18.4746 115.188 20.0363 116.595 21.4163C118.101 23.4901 119.818 25.405 121.693 27.2416C121.319 27.3349 121.022 26.8278 120.772 26.6209V26.6209ZM114.133 26.5174L113.957 26.4897L113.692 26.4468C113.598 26.3686 113.318 25.8186 113.194 25.6849C112.939 25.3998 112.721 24.928 112.485 24.6126C112.062 24.05 111.628 23.4899 111.205 22.9248C110.397 21.8349 109.401 20.6442 108.482 19.6476C106.991 18.0179 105.562 16.219 104.226 14.448C103.488 13.4641 102.631 12.2682 102.076 11.1632L102.351 10.9942C102.871 12.0286 103.634 13.068 104.306 13.9989C105.604 15.7977 107.068 17.5435 108.534 19.2036C109.656 20.4675 110.771 21.8071 111.792 23.1619C112.124 23.5959 112.528 24.0727 112.825 24.5268C113.256 25.1878 113.672 25.8765 114.133 26.5174L114.133 26.5174ZM123.678 17.5006C123.569 17.8715 123.749 18.1314 123.963 18.3786C124.369 18.8756 124.743 19.2087 125.256 19.5164C121.032 13.9459 119.454 11.9554 123.678 17.5006H123.678ZM120.393 9.04643C120.398 9.03381 120.403 9.01363 120.41 8.9657C120.336 8.77648 120.306 8.56961 120.284 8.36273L120.103 6.50087L119.043 6.58664C117.854 6.64467 116.67 6.64467 115.485 6.60683C116.893 8.3804 118.314 10.1565 119.729 11.9301C119.885 10.9083 120.123 9.92438 120.393 9.04647L120.393 9.04643ZM52.1754 10.2296L52.2051 10.1792L52.1754 10.2296ZM52.2051 10.1792L52.6684 9.47022C52.5222 9.58123 52.3736 9.69223 52.2324 9.81837C52.2225 9.91929 52.2051 10.0152 52.2051 10.1791V10.1792Z" fill="#BCACAC" fill-opacity="0.52"/>
</svg>
