<svg width="335" height="305" viewBox="0 0 335 305" fill="none" xmlns="http://www.w3.org/2000/svg">
<path fill-rule="evenodd" clip-rule="evenodd" d="M186.222 29.9538L194.91 61.4254C196.337 66.593 188.289 68.6886 186.862 63.521L178.174 32.0493C176.748 26.8817 184.796 24.7861 186.222 29.9538ZM164.757 119.187C174.085 119.187 181.65 126.53 181.65 135.585C181.65 144.644 174.085 151.988 164.757 151.988C155.425 151.988 147.859 144.644 147.859 135.585C147.859 126.53 155.425 119.187 164.757 119.187ZM150.408 157.419C137.933 156.683 132.914 165.908 132.625 176.339C132.485 181.63 132.485 190.25 132.734 195.65C133.339 208.487 138.347 212.146 142.227 222.909C146.592 235.019 145.188 252.836 147.712 266.329C150.581 281.63 176.051 280.67 180.925 268.85C184.84 259.347 190.742 175.745 191.285 176.17C204.633 186.537 226.026 182.724 240.704 176.697C254.465 171.045 246.584 159.541 239.334 160.12C238.492 160.188 237.534 160.341 236.517 160.545C227.799 162.301 216.087 167.224 207.635 164.643C202.971 163.215 199.846 161.001 195.651 159.071C194.281 158.437 193.488 158.369 190.672 158.139C187.855 157.914 183.018 157.527 180.601 157.344C178.179 157.157 178.179 157.178 177.929 158.105C177.675 159.037 177.171 160.873 175.99 164.605C174.808 168.337 172.945 173.96 172.018 176.774C171.085 179.589 171.085 179.589 170.675 177.574C170.293 175.734 168.279 167.437 169.068 166.116C169.125 166.018 169.971 164.905 170.311 164.484C171.196 163.405 171.405 163.795 169.535 159.867C169.114 158.991 169.255 159.012 167.788 159.05C166.322 159.089 163.401 159.089 161.956 159.123C160.512 159.157 160.547 159.229 160.275 159.965C160.008 160.701 159.429 162.103 159.142 162.805C158.853 163.507 158.853 163.507 159.194 163.978C159.536 164.45 160.224 165.397 160.564 165.869C161.266 166.835 159.387 175.364 159.102 177.032C158.743 179.17 158.743 179.17 157.527 175.604C156.31 172.043 153.875 164.914 152.63 161.275C151.383 157.633 151.326 157.48 150.406 157.429L150.408 157.419ZM268.632 229.06H279.045V246.576H268.632V229.06ZM252.435 208.709V248.744H309.895V254.069H246.948V208.707H252.434L252.435 208.709ZM296.166 216.951H306.579V246.576H296.166V216.951ZM282.4 223.416H292.813V246.578H282.4V223.416ZM254.866 235.879H265.279V246.578H254.866V235.879ZM65.2848 228.86C74.1655 228.86 81.3629 235.849 81.3629 244.467C81.3629 253.088 74.1632 260.074 65.2848 260.074C56.4041 260.074 49.2067 253.086 49.2067 244.467C49.2067 235.847 56.4064 228.86 65.2848 228.86ZM170.054 0C201.2 0 226.453 24.5129 226.453 54.7466C226.453 58.8611 225.984 62.8692 225.096 66.7241C269.012 87.9311 296.886 131.367 297.009 179.017C319.691 186.616 335 207.38 335 230.78C335 261.01 309.752 285.521 278.607 285.521C267.633 285.521 257.391 282.477 248.729 277.216C201.426 314.263 133.58 314.26 86.2762 277.216C77.6105 282.477 67.3686 285.521 56.3991 285.521C25.2528 285.521 0 261.009 0 230.78C0 207.387 15.3134 186.614 37.9953 179.017C38.118 129.553 68.1092 84.8114 114.565 64.5837C113.969 61.3925 113.658 58.1053 113.658 54.7482C113.658 24.5145 138.91 0.0016339 170.051 0.0016339L170.054 0ZM220.401 79.4402C210.734 97.9725 191.532 109.346 170.054 109.491C147.763 109.346 127.956 97.0793 118.731 77.4638C78.9626 95.4258 53.0573 133.626 51.8566 176.206C52.7552 176.138 53.6516 176.091 54.559 176.061H54.6335L54.7738 176.053H54.8439L55.0543 176.048L55.1288 176.044H55.2691L55.5496 176.036H55.703L56.4 176.031C87.8925 176.031 113.226 201.029 112.788 231.584C112.494 245.457 107.17 258.422 97.2114 268.555C138.547 299.282 196.448 299.282 237.783 268.555C228.849 259.458 223.105 247.383 222.303 234.02L222.298 233.935C222.281 233.693 222.272 233.45 222.259 233.207V233.169L222.241 232.765L222.224 232.267L222.219 232.11L222.211 231.582L222.206 231.484V231.446L222.202 230.778C222.202 199.77 248.531 175.16 280.436 176.064C281.343 176.094 282.244 176.141 283.138 176.209C281.987 135.191 257.955 98.2117 220.399 79.4436L220.401 79.4402ZM55.9115 189.451C32.5984 189.689 13.822 208.153 13.822 230.779C13.822 253.605 32.8834 272.103 56.398 272.103C79.7195 272.103 98.5576 254.001 98.9649 231.392C99.3638 208.102 79.8469 189.257 55.9138 189.453L55.9115 189.451ZM279.163 189.455C255.288 189.455 236.023 207.489 236.023 230.779L236.028 231.085V231.392L236.036 231.702V231.864L236.054 232.311V232.375C236.926 254.549 255.729 272.103 278.599 272.103C302.114 272.103 321.175 253.604 321.175 230.779C321.175 208.166 302.451 189.748 279.165 189.455L279.163 189.455ZM170.045 13.424C146.53 13.424 127.469 31.9269 127.469 54.7524C127.469 77.7017 146.464 95.9278 170.045 96.0765C193.608 95.9659 212.621 77.6674 212.621 54.7524C212.621 31.9269 193.56 13.424 170.045 13.424ZM46.7885 249.152C44.1168 248.616 41.695 247.869 39.628 246.946C32.5512 243.793 28.0295 237.004 34.7099 230.994C30.4405 227.161 30.4405 221.961 34.7099 218.123C28.032 212.121 32.5467 205.337 39.628 202.184C48.9385 198.035 63.5505 198.035 72.8587 202.184C79.9445 205.337 84.4527 212.121 77.7769 218.123C81.8973 221.821 82.0945 226.88 78.0749 230.722C76.521 229.358 74.7392 228.239 72.7864 227.429C75.9731 225.274 75.4142 223.361 72.3305 221.431C67.2414 223.561 61.0759 224.361 55.7788 224.31C50.5078 224.28 44.875 223.408 40.1586 221.431C35.7883 224.173 37.4606 226.422 41.4057 228.399C44.5748 229.979 48.5223 230.792 52.033 231.115C50.387 232.658 49.0194 234.481 48.0222 236.509C45.3768 236.058 42.6328 235.345 40.1582 234.307C35.3409 237.33 38.0213 239.785 42.1372 241.621C43.3448 242.161 44.7213 242.629 46.2313 243.01C46.0692 245.072 46.2533 247.15 46.788 249.152L46.7885 249.152ZM41.4079 215.523C45.8176 217.725 51.3164 218.432 56.388 218.432C61.1571 218.402 66.7656 217.678 71.0875 215.523C76.8318 212.653 75.7208 209.905 70.3511 207.511C62.6846 204.095 49.8063 204.095 42.1376 207.511C36.7657 209.905 35.6656 212.649 41.4055 215.523H41.4079ZM61.611 246.804C61.8258 248.278 62.2817 249.406 63.8312 249.893V245.583C61.2164 244.859 58.6939 243.93 58.6939 240.809C58.6939 237.875 61.1683 236.349 63.8312 236.018V233.735H66.7702V236.073C69.9745 236.605 71.2851 237.896 71.8111 241.017L68.4009 241.481C68.2431 240.389 67.9406 239.513 66.7725 239.079V242.785C68.9488 243.381 71.5065 243.957 72.2013 246.359C72.3197 246.772 72.3766 247.219 72.3766 247.702C72.3766 250.75 69.6743 252.586 66.7725 252.929V255.216H63.8334V252.903C60.3662 252.465 58.7794 250.642 58.1722 247.34L61.6131 246.799L61.611 246.804ZM66.7702 250.008C69.3674 249.484 69.7794 247.214 66.7702 246.349V250.008ZM63.8312 238.943C61.44 239.394 61.4751 241.311 63.8312 241.994V238.943ZM189.831 35.9254C197.744 38.6465 200.415 48.3284 194.969 54.5258L189.831 35.9254ZM152.932 77.6645C154.438 80.6706 157.333 81.6812 157.548 77.9581C157.64 76.3817 157.32 73.7499 157.149 72.0287C156.973 70.3033 156.951 69.4821 156.531 69.1375C154.578 67.5397 154.617 68.8268 153.578 65.4186C154.795 64.7506 157.528 62.0189 157.528 62.0189L184.83 63.9996L176.019 32.0873L154.106 49.7602C151.031 50.1474 147.968 49.9686 145.173 51.4728C133.848 57.5721 134.024 67.5563 148.802 66.6947C150.164 70.2391 151.237 74.2983 152.927 77.6664L152.932 77.6645Z" fill="black"/>
</svg>
