<svg width="62" height="62" viewBox="0 0 62 62" fill="none" xmlns="http://www.w3.org/2000/svg">
<path d="M37.2222 35.8623H37.2208C33.5073 35.8599 29.2486 33.7875 25.5364 30.1761C25.5302 30.1699 25.524 30.1637 25.5177 30.1575C21.9064 26.4458 19.8339 22.1871 19.8315 18.4731C19.8315 17.1057 20.5318 15.6679 21.8037 14.4234C22.6787 13.5671 23.9702 12.7031 24.8839 12.7031C26.2918 12.7031 26.6661 13.3688 27.2331 14.3767C27.3712 14.6223 27.5279 14.9005 27.7303 15.2371C27.8424 15.4229 27.997 15.6582 28.1607 15.9076C29.2007 17.4919 29.8553 18.5998 29.4983 19.5262C29.218 20.2473 28.477 20.8389 27.7604 21.4111C27.4951 21.6229 27.1148 21.9266 26.9463 22.11C27.0764 22.8335 28.0241 24.3648 29.6768 26.0172C31.3272 27.6675 32.8567 28.6148 33.5819 28.7469C33.7646 28.5784 34.066 28.201 34.2763 27.9373C34.8506 27.2177 35.4447 26.4735 36.1681 26.195C36.3349 26.1306 36.5179 26.0977 36.711 26.0977C37.5365 26.0977 38.5063 26.6925 39.7861 27.5325C40.0352 27.6961 40.2708 27.8508 40.458 27.9636C40.7932 28.1653 41.0717 28.322 41.317 28.4601C42.3245 29.0271 42.9902 29.4019 42.9902 30.8093C42.9902 31.7226 42.1256 33.0142 41.2689 33.8889C40.0248 35.1601 38.5876 35.861 37.222 35.862L37.2222 35.8623ZM26.8974 28.7967C30.1991 32.0054 34.0578 33.9224 37.2204 33.9248C39.133 33.9224 40.9525 31.4414 41.0529 30.7927C41.0522 30.6602 41.0446 30.5906 41.0387 30.5574C40.9397 30.4716 40.6366 30.301 40.3668 30.1492C40.1225 30.0115 39.8184 29.8405 39.4575 29.6233C39.2378 29.4908 38.9877 29.3264 38.7226 29.1524C38.2206 28.823 37.2117 28.1608 36.782 28.0498C36.517 28.2352 36.0524 28.8175 35.7901 29.1458C35.1255 29.9783 34.5515 30.6972 33.7423 30.7003C31.7701 30.6983 29.083 28.1636 28.3062 27.3869C27.5295 26.6102 24.9948 23.9229 24.9927 21.9553C24.9927 21.1405 25.7148 20.5641 26.5511 19.8968C26.8777 19.6362 27.4565 19.174 27.643 18.91C27.5316 18.4796 26.87 17.4718 26.5407 16.9704C26.3667 16.7054 26.2027 16.4553 26.0709 16.237C25.8529 15.8747 25.6816 15.5706 25.5443 15.3264C25.3924 15.0565 25.2218 14.7531 25.136 14.6545C25.1031 14.6489 25.0333 14.641 24.9008 14.6403C24.2513 14.7399 21.769 16.5591 21.769 18.4721C21.771 21.6357 23.6881 25.4948 26.8971 28.7968L26.8974 28.7967Z" fill="white"/>
<path d="M12.3043 44.7117C12.0601 44.7117 11.8193 44.6193 11.6352 44.4439C11.3557 44.1772 11.2612 43.7696 11.3954 43.407L14.5906 34.7702C12.2507 31.1076 11.155 26.7518 11.5002 22.4482C11.8642 17.9113 13.8221 13.6557 17.0127 10.4654C20.6086 6.86953 25.4232 4.88916 30.5695 4.88916C35.9007 4.88916 40.9385 6.99096 44.7551 10.8079C52.4982 18.5509 52.6518 30.9959 45.0976 38.5511C41.5021 42.1462 36.6878 44.1266 31.5426 44.1266H31.5423C27.8123 44.1266 24.1801 43.0841 21.0032 41.1068L12.6816 44.6366C12.5598 44.6878 12.4311 44.7127 12.3038 44.7127L12.3043 44.7117ZM21.0958 39.0452C21.2826 39.0452 21.468 39.0991 21.6289 39.2047C24.5912 41.156 28.0192 42.1874 31.5427 42.1874C36.1709 42.1874 40.4982 40.4091 43.7284 37.1793C50.5273 30.3804 50.3736 19.1639 43.3859 12.1765C39.935 8.72565 35.3836 6.82553 30.5696 6.82553C25.9406 6.82553 21.6123 8.60422 18.383 11.8343C12.5214 17.696 11.7177 27.0624 16.4718 34.1056C16.6466 34.3644 16.6857 34.691 16.5774 34.9837L13.9908 41.9754L20.7174 39.1224C20.8388 39.0708 20.9675 39.0452 21.0955 39.0452L21.0958 39.0452Z" fill="white"/>
</svg>
