<svg width="65" height="65" viewBox="0 0 65 65" fill="none" xmlns="http://www.w3.org/2000/svg">
<g clip-path="url(#clip0_10_151)">
<path d="M-93.34 0H2.86001V51.48H-93.34V0Z" fill="white"/>
<path d="M19.643 24.3324C19.8781 23.1934 20.231 22.097 20.6949 21.0585L12.0443 12.2922H53.2172L45.0552 20.5688C45.423 21.7241 45.624 22.9736 45.624 24.2947V24.3285L57.9935 11.842C58.4324 11.4045 58.5622 10.7462 58.3265 10.1753C58.0889 9.60543 57.5325 9.22998 56.9122 9.22998H8.34796C7.73169 9.22998 7.17313 9.60576 6.93625 10.1753C6.70011 10.7462 6.8307 11.4045 7.27068 11.842L19.643 24.3324Z" fill="white"/>
<path d="M58.4824 15.0752L55.4652 18.0902V39.1901H9.79531V18.1283L6.76111 15.0973C6.74769 15.1789 6.73572 15.262 6.73572 15.3447V40.7216C6.73572 41.1257 6.89858 41.5189 7.1844 41.8032C7.46878 42.0865 7.86234 42.2498 8.26638 42.2498H56.995C57.3976 42.2498 57.7923 42.0865 58.076 41.8032C58.3611 41.5189 58.5243 41.1257 58.5243 40.7216V15.4236C58.5243 15.3021 58.5083 15.185 58.4826 15.0747L58.4824 15.0752Z" fill="white"/>
<path d="M38.0259 20.63C37.2033 20.2183 35.8111 19.9023 34.4176 19.9023C29.9241 19.9023 26.9498 23.4473 26.9498 27.3382C26.9498 29.871 28.5005 31.3894 30.4628 31.3894C32.2343 31.3894 33.6577 30.5359 34.7038 28.7934H34.797C34.8608 30.5994 35.9678 31.3894 37.3622 31.3894C40.5566 31.3894 43.1832 28.5402 43.1832 23.8582C43.1832 18.5719 39.355 14.71 33.7861 14.71C26.6952 14.71 22.0749 20.3126 22.0749 26.8009C22.0749 32.9726 26.5998 36.7719 31.8231 36.7719C34.0067 36.7719 35.7162 36.4541 37.5515 35.5676L37.015 33.9531C35.7477 34.6184 34.0375 35.0003 32.3305 35.0003C27.6463 35.0003 24.2283 31.8663 24.2283 26.5818C24.2283 20.3444 28.5013 16.4205 33.5013 16.4205C38.4072 16.4205 41.096 19.648 41.096 24.0155C41.096 27.6544 39.355 29.587 37.8674 29.5228C36.9188 29.5228 36.6334 28.5406 37.0146 26.4212L38.0259 20.63ZM34.6703 25.4713C34.3537 27.3385 32.9304 29.2403 31.4432 29.2403C30.2724 29.2403 29.6698 28.3527 29.6698 27.0538C29.6698 24.3653 31.5694 22.0228 33.9742 22.0228C34.5118 22.0228 34.9238 22.1189 35.2415 22.2136L34.6703 25.4713Z" fill="white"/>
</g>
<defs>
<clipPath id="clip0_10_151">
<rect width="65" height="65" fill="white"/>
</clipPath>
</defs>
</svg>
