<svg width="345" height="352" viewBox="0 0 345 352" fill="none" xmlns="http://www.w3.org/2000/svg">
<path d="M213.466 274.836H231.633C232.818 274.836 233.789 273.846 233.789 272.636V255.201C240.85 253.716 247.75 250.856 253.842 246.731L265.971 259.051C266.833 259.931 268.181 259.931 269.044 259.051L281.873 245.961C282.304 245.521 282.52 244.971 282.52 244.421C282.52 243.871 282.304 243.266 281.873 242.881L269.744 230.507C273.787 224.292 276.591 217.252 278.046 209.992H295.188C296.374 209.992 297.344 209.002 297.344 207.792V189.257C297.344 188.047 296.374 187.057 295.188 187.057H278.046C276.591 179.796 273.734 172.756 269.691 166.542L281.819 154.167C282.251 153.727 282.466 153.177 282.466 152.627C282.466 152.077 282.251 151.472 281.819 151.087L268.99 137.997C268.127 137.117 266.78 137.117 265.917 137.997L253.788 150.372C247.697 146.247 240.959 143.387 233.735 141.847V124.357C233.735 123.147 232.765 122.157 231.579 122.157H213.466C212.28 122.157 211.31 123.147 211.31 124.357V141.847C204.087 143.332 197.294 146.192 191.203 150.372L179.074 137.997C178.643 137.557 178.104 137.337 177.565 137.337C177.026 137.337 176.433 137.557 176.055 137.997L163.226 151.087C162.363 151.967 162.363 153.342 163.226 154.222L175.355 166.597C171.312 172.812 168.455 179.797 166.999 187.112H149.857C148.671 187.112 147.701 188.102 147.701 189.312V207.847C147.701 209.057 148.671 210.047 149.857 210.047H166.999C168.455 217.362 171.312 224.402 175.355 230.562L163.226 242.936C162.795 243.376 162.579 243.926 162.579 244.476C162.579 245.026 162.795 245.631 163.226 246.016L176.055 259.052C176.918 259.932 178.266 259.932 179.128 259.052L191.257 246.677C197.402 250.857 204.141 253.717 211.364 255.147V272.637C211.31 273.847 212.226 274.837 213.466 274.837V274.836ZM229.476 270.436H215.623V253.331C215.623 252.231 214.868 251.351 213.844 251.186C206.027 249.866 198.75 246.786 192.227 242.056C191.365 241.451 190.179 241.561 189.478 242.276L177.619 254.376L167.808 244.366L179.667 232.267C180.422 231.497 180.53 230.287 179.883 229.407C175.355 222.917 172.282 215.327 170.935 207.352C170.773 206.307 169.857 205.537 168.832 205.537H152.014V191.402H168.779C169.857 191.402 170.719 190.632 170.881 189.587C172.175 181.722 175.301 174.077 179.829 167.532C180.422 166.652 180.368 165.442 179.614 164.672L167.755 152.572L177.565 142.562L189.424 154.662C190.179 155.432 191.365 155.542 192.228 154.882C198.643 150.207 205.92 147.127 213.844 145.752C214.868 145.587 215.623 144.652 215.623 143.607V126.502H229.476V143.607C229.476 144.652 230.231 145.587 231.255 145.752C239.126 147.127 246.403 150.207 252.818 154.882C253.68 155.487 254.866 155.432 255.567 154.662L267.48 142.562L277.291 152.572L265.432 164.672C264.677 165.442 264.57 166.652 265.216 167.532C269.799 174.077 272.871 181.667 274.165 189.587C274.327 190.632 275.243 191.402 276.267 191.402H293.032V205.537H276.267C275.189 205.537 274.326 206.307 274.165 207.352C272.871 215.217 269.798 222.862 265.216 229.407C264.624 230.287 264.731 231.497 265.432 232.212L277.291 244.311L267.48 254.321L255.567 242.221C254.812 241.451 253.626 241.341 252.818 242.001C246.403 246.676 238.91 249.811 231.255 251.131C230.231 251.296 229.476 252.231 229.476 253.276L229.476 270.436Z" fill="black"/>
<path d="M222.525 234.08C241.716 234.08 257.348 218.13 257.348 198.55C257.348 178.97 241.715 163.02 222.525 163.02C203.28 163.02 187.647 178.97 187.647 198.55C187.647 218.13 203.28 234.08 222.525 234.08ZM222.525 167.366C239.344 167.366 253.036 181.336 253.036 198.496C253.036 215.656 239.344 229.626 222.525 229.626C205.652 229.626 191.96 215.656 191.96 198.496C191.96 181.336 205.652 167.366 222.525 167.366Z" fill="black"/>
<path d="M105.55 191.453H121.453C122.639 191.453 123.609 190.463 123.609 189.253V174.183C129.755 172.918 135.63 170.388 140.913 166.922L151.371 177.537C152.233 178.417 153.581 178.417 154.39 177.537L165.656 166.097C166.087 165.712 166.303 165.107 166.303 164.557C166.303 164.007 166.087 163.402 165.656 163.017L155.198 152.347C158.648 147.012 161.074 140.962 162.314 134.692H177.084C178.27 134.692 179.24 133.702 179.24 132.492V116.267C179.24 115.057 178.27 114.067 177.084 114.067H162.314C161.074 107.742 158.648 101.857 155.198 96.467L165.656 85.7968C166.518 84.9168 166.518 83.5418 165.656 82.6618L154.39 71.167C153.958 70.727 153.419 70.507 152.88 70.507C152.341 70.507 151.748 70.727 151.371 71.167L140.913 81.8371C135.63 78.3171 129.754 75.7873 123.663 74.5221V59.452C123.663 58.242 122.692 57.252 121.507 57.252H105.604C104.418 57.252 103.448 58.242 103.448 59.452V74.5221C97.3024 75.7871 91.5345 78.2621 86.1978 81.8371L75.7399 71.167C75.3086 70.727 74.7695 70.507 74.2305 70.507C73.6375 70.507 73.0984 70.727 72.7211 71.167L61.4549 82.6618C60.5924 83.5418 60.5924 84.9168 61.4549 85.7968L71.9128 96.467C68.4089 101.912 65.9833 107.797 64.7432 114.067H49.9728C48.7869 114.067 47.8165 115.057 47.8165 116.267V132.492C47.8165 133.702 48.7869 134.692 49.9728 134.692H64.689C65.9828 140.962 68.4086 147.012 71.8586 152.347L61.4007 163.017C60.9694 163.457 60.7538 164.007 60.7538 164.557C60.7538 165.107 60.9694 165.712 61.4007 166.097L72.6669 177.537C73.5294 178.417 74.8771 178.417 75.6857 177.537L86.1436 166.922C91.4265 170.442 97.1944 172.917 103.394 174.183V189.253C103.394 190.463 104.364 191.453 105.55 191.453H105.55ZM119.297 187.053H107.707V172.368C107.707 171.268 106.952 170.388 105.928 170.223C99.1356 169.068 92.8285 166.428 87.1685 162.303C86.306 161.698 85.1201 161.808 84.4193 162.523L74.231 172.918L66.0372 164.558L76.2256 154.163C76.9803 153.393 77.0881 152.183 76.4412 151.358C72.5061 145.693 69.8108 139.038 68.625 132.163C68.4633 131.118 67.5469 130.348 66.5226 130.348H52.1297V118.522H66.5226C67.6008 118.522 68.4633 117.753 68.625 116.707C69.757 109.832 72.3445 103.397 76.4412 97.5677C77.0342 96.6877 76.9264 95.4777 76.2256 94.7627L66.0372 84.3677L74.1773 75.8975L84.3656 86.2926C85.1203 87.0626 86.3062 87.1726 87.1148 86.5126C92.829 82.3876 99.1361 79.6929 105.874 78.5378C106.898 78.3728 107.653 77.4378 107.653 76.3928V61.7079H119.243V76.3928C119.243 77.4928 119.998 78.3728 121.022 78.5378C127.706 79.6928 134.229 82.4428 139.835 86.5126C140.698 87.1176 141.884 87.0076 142.584 86.2926L152.881 75.8975L161.074 84.2575L150.886 94.6526C150.131 95.4226 150.024 96.6326 150.67 97.4576C154.66 103.232 157.301 109.667 158.433 116.597C158.595 117.642 159.511 118.412 160.535 118.412H174.928V130.238H160.535C159.457 130.238 158.595 131.008 158.433 132.053C157.301 138.928 154.606 145.582 150.67 151.248C150.077 152.128 150.185 153.338 150.886 154.053L161.074 164.448L152.881 172.808L142.692 162.413C141.938 161.643 140.752 161.533 139.943 162.193C134.391 166.208 127.868 168.958 121.13 170.113C120.106 170.278 119.351 171.213 119.351 172.258L119.297 187.053Z" fill="black"/>
<path d="M113.525 155.76C130.505 155.76 144.305 141.68 144.305 124.355C144.305 107.03 130.505 92.9502 113.525 92.9502C96.5444 92.9502 82.7444 107.03 82.7444 124.355C82.7444 141.68 96.5444 155.76 113.525 155.76ZM113.525 97.4035C128.134 97.4035 139.993 109.503 139.993 124.408C139.993 139.314 128.134 151.413 113.525 151.413C98.916 151.413 87.0569 139.314 87.0569 124.408C87.0569 109.503 98.916 97.4035 113.525 97.4035Z" fill="black"/>
<path d="M207.271 112.147H219.616C220.802 112.147 221.772 111.157 221.772 109.947V98.6173C226.354 97.5723 230.72 95.7573 234.656 93.1723L242.472 101.147C243.334 102.027 244.682 102.027 245.545 101.147L254.277 92.237C255.14 91.357 255.14 89.982 254.277 89.157L246.461 81.1269C248.995 77.1119 250.828 72.6568 251.798 68.037H262.849C264.035 68.037 265.005 67.047 265.005 65.837V53.242C265.005 52.032 264.035 51.042 262.849 51.042H251.744C250.774 46.367 248.995 41.9669 246.408 37.8968L254.224 29.8667C255.086 28.9867 255.086 27.6116 254.224 26.7316L245.491 17.8215C245.06 17.3815 244.52 17.1615 243.981 17.1615C243.388 17.1615 242.849 17.3815 242.472 17.8215L234.656 25.8516C230.775 23.2667 226.354 21.4516 221.772 20.4067V9.13164C221.772 7.92167 220.802 6.93164 219.616 6.93164H207.271C206.085 6.93164 205.115 7.92167 205.115 9.13164V20.4067C200.479 21.4517 196.167 23.2667 192.231 25.8516L184.361 17.8215C183.93 17.3815 183.39 17.1615 182.851 17.1615C182.258 17.1615 181.719 17.3815 181.342 17.8215L172.663 26.7316C171.801 27.6116 171.801 28.9867 172.663 29.8116L180.48 37.8418C177.946 41.8568 176.113 46.2566 175.143 50.987H164.092C162.906 50.987 161.936 51.977 161.936 53.187V65.782C161.936 66.992 162.906 67.982 164.092 67.982H175.143C176.167 72.657 178 77.1119 180.48 81.0719L172.663 89.102C171.801 89.982 171.801 91.357 172.663 92.182L181.342 101.092C181.719 101.532 182.312 101.752 182.851 101.752C183.444 101.752 183.983 101.532 184.361 101.092L192.231 93.1173C196.166 95.7023 200.533 97.5173 205.115 98.5623V109.892C205.115 111.157 206.085 112.147 207.271 112.147H207.271ZM217.459 107.747H209.427V96.802C209.427 95.757 208.673 94.822 207.648 94.657C202.42 93.722 197.568 91.687 193.255 88.6071C192.393 88.0021 191.207 88.1121 190.506 88.8271L182.905 96.5269L177.245 90.7521L184.792 82.997C185.547 82.227 185.655 81.017 185.008 80.137C181.989 75.847 179.941 70.7869 179.024 65.452C178.862 64.4071 177.946 63.637 176.922 63.637H166.248V55.442H176.922C177.946 55.442 178.862 54.672 179.024 53.627C179.94 48.2921 181.935 43.342 185.008 38.942C185.601 38.062 185.547 36.852 184.792 36.137L177.245 28.382L182.905 22.6072L190.452 30.2521C191.207 31.0221 192.393 31.1321 193.255 30.4721C197.568 27.3371 202.419 25.3022 207.648 24.3669C208.672 24.2019 209.427 23.2669 209.427 22.2219V11.332H217.459V22.2219C217.459 23.2669 218.214 24.2019 219.238 24.3669C224.413 25.3019 229.426 27.3919 233.631 30.4721C234.493 31.0771 235.679 31.0221 236.434 30.2521L243.981 22.497L249.641 28.2718L242.094 36.0269C241.339 36.7969 241.231 37.9519 241.878 38.8319C245.005 43.3419 247 48.2368 247.808 53.5168C247.97 54.5618 248.886 55.3869 249.91 55.3869H260.692V63.5819H249.964C248.886 63.5819 248.023 64.3519 247.862 65.3969C246.999 70.6221 244.951 75.6819 241.932 80.0271C241.339 80.9071 241.393 82.117 242.148 82.832L249.694 90.5871L244.034 96.3619L236.488 88.6622C235.733 87.8922 234.601 87.7822 233.739 88.4422C229.48 91.5222 224.467 93.6121 219.292 94.4921C218.268 94.6571 217.513 95.592 217.513 96.637V107.747H217.459Z" fill="black"/>
<path d="M213.466 84.3693C226.889 84.3693 237.832 73.2044 237.832 59.5091C237.832 45.7589 226.889 34.594 213.466 34.594C199.99 34.594 189.047 45.7589 189.047 59.5091C189.047 73.2039 199.99 84.3693 213.466 84.3693ZM213.466 38.9945C224.517 38.9945 233.52 48.1797 233.52 59.5096C233.52 70.7846 224.517 79.9698 213.466 79.9698C202.362 79.9698 193.359 70.7846 193.359 59.5096C193.359 48.2345 202.362 38.9945 213.466 38.9945Z" fill="black"/>
</svg>
