<svg width="266" height="224" viewBox="0 0 266 224" fill="none" xmlns="http://www.w3.org/2000/svg">
<path fill-rule="evenodd" clip-rule="evenodd" d="M200.172 152.911C192.567 151.397 184.673 154.634 177.653 155.155C163.599 156.209 147.31 151.346 140.121 160.776C140.908 169.813 158.471 163.78 161.389 170.894C173.029 167.006 202.648 176.327 206.427 158.526C204.863 156.189 201.517 155.449 200.172 152.91V152.911Z" fill="black"/>
<path fill-rule="evenodd" clip-rule="evenodd" d="M263.969 6.74683C237.51 2.94258 211.123 5.34977 187.656 4.4986C172.069 3.93184 161.033 0.920239 151.377 4.4986C150.793 0.596058 158.169 3.85238 158.884 1.12519C157.06 0.512427 152.415 2.43647 152.629 0H151.377C155.005 3.96315 146.634 3.99035 145.122 1.12519V0H136.365C139.181 2.6289 130.051 4.9001 127.608 3.37342C126.733 2.8255 135.949 1.06453 130.11 0H127.608C123.641 4.09909 115.896 -0.242598 111.344 4.49646C113.674 -0.591879 106.846 2.54313 106.341 0H105.089C103.269 1.73795 100.205 2.3612 96.3324 2.24823V0H86.3235C67.9327 4.00084 50.0023 -0.593967 35.0298 4.49646C35.2392 3.18517 37.0055 3.27298 38.7834 3.37127C30.0613 0.480998 3.49814 -2.15186 0 8.99292V73.0797C1.45907 94.2631 2.38758 116.357 2.5016 139.415C2.64123 168.067 -2.06415 202.313 5.0032 223.74C96.5911 224.836 178.218 222.232 265.219 220.362C266.978 155.751 265.415 77.9846 263.969 6.75037L263.969 6.74683ZM253.962 212.499C222.4 211.075 208.003 211.558 177.649 209.126C177.758 206.946 158.606 213.024 150.127 208C153.41 212.671 145.836 209.874 142.627 205.756C136.772 206.116 134.056 209.297 127.615 209.13C127.927 207.906 130.1 208.366 130.116 206.882C105.596 210.91 64.3951 202.946 43.7947 211.378C40.8556 211.363 44.2531 208.314 46.2963 209.134C38.7543 206.666 27.7493 209.935 18.774 206.886C19.6188 193.821 22.125 177.058 17.522 167.539C21.5409 122.973 16.4632 66.2525 18.774 19.1271C86.4016 16.128 152.73 16.7994 231.451 16.8789C239.588 16.883 248.434 12.8697 255.219 19.1271C252.592 78.9253 258.028 148.687 253.962 212.501V212.499Z" fill="black"/>
<path fill-rule="evenodd" clip-rule="evenodd" d="M86.3275 70.8348C85.5153 66.8068 79.6975 58.2423 68.8141 59.5915C54.4373 72.7504 80.7824 80.6122 90.0812 88.8251C91.14 89.7579 90.3674 92.2927 91.3331 93.3216C100.143 102.7 113.205 105.97 116.354 114.683C113.112 116.266 110.578 118.487 107.597 120.304C96.9277 136.954 75.1274 143.592 67.5646 163.029C76.9218 172.543 87.0445 152.386 92.5854 155.155C89.146 152.353 97.7724 150.887 97.5886 147.286C96.5763 155.751 108.77 144.086 106.345 139.416C115.353 140.947 120.759 130.013 125.111 123.676C128.906 127.738 137.13 115.604 132.618 107.937C116.692 96.0157 103.846 81.3261 86.328 70.8355L86.3275 70.8348Z" fill="black"/>
</svg>
