<svg width="256" height="245" viewBox="0 0 256 245" fill="none" xmlns="http://www.w3.org/2000/svg">
<path d="M215.593 188.604L36.8392 17.9039C33.6109 14.821 28.5924 14.6252 25.6198 17.4596L17.732 24.9879C14.764 27.8222 14.9691 32.6191 18.1973 35.7021L196.951 206.408C200.18 209.49 205.198 209.693 208.171 206.852L216.054 199.319C219.026 196.485 218.817 191.692 215.593 188.607L215.593 188.604Z" fill="black"/>
<path d="M227.589 202.847C224.877 200.248 220.647 200.069 218.14 202.449L211.479 208.77C208.972 211.156 209.139 215.191 211.849 217.794L232.502 223.978L232.773 224.056C233.128 224.124 233.496 224.037 233.757 223.787C234.021 223.536 234.107 223.18 234.039 222.835L233.973 222.631L227.589 202.847Z" fill="black"/>
<path d="M91.2004 127.036L101.868 137.227C102.585 137.916 102.585 139.024 101.868 139.706C101.152 140.388 99.9895 140.39 99.2751 139.706L88.6026 129.518L74.7657 142.73L91.284 158.505C92.0006 159.193 92.0006 160.303 91.284 160.985C90.5674 161.668 89.4009 161.67 88.6864 160.985L72.1681 145.211L58.3288 158.425L69.0012 168.619C69.7179 169.303 69.7179 170.413 69.0012 171.097C68.2846 171.782 67.1203 171.786 66.408 171.097L55.7334 160.905L41.8919 174.128L52.5643 184.319C53.2809 185.004 53.2809 186.116 52.5643 186.796C51.8477 187.484 50.6834 187.484 49.9667 186.796L39.2988 176.608L25.4533 189.824L36.128 200.012C36.8424 200.696 36.8424 201.81 36.128 202.493C35.407 203.177 34.2449 203.177 33.5304 202.493L22.8625 192.301L9.02328 205.517L25.7353 221.476C26.4519 222.161 26.4519 223.27 25.7353 223.955C25.0186 224.639 23.8521 224.643 23.1377 223.955L6.42117 207.999L0 214.127L32.3243 245L129.057 152.623L96.7324 121.759L91.2004 127.036Z" fill="black"/>
<path d="M256 30.8689L223.676 0L217.834 5.57626L234.546 21.5358C235.263 22.2201 235.263 23.332 234.546 24.0164C233.83 24.7008 232.668 24.7008 231.951 24.0164L215.239 8.05689L201.4 21.273L212.072 31.4606C212.789 32.1449 212.789 33.2547 212.072 33.9391C211.351 34.6235 210.191 34.6235 209.477 33.9391L198.804 23.7515L184.965 36.9676L195.633 47.1595C196.354 47.8439 196.354 48.9536 195.633 49.6381C194.916 50.3224 193.754 50.3224 193.038 49.6381L182.37 39.4505L168.53 52.6666L179.198 62.8542C179.915 63.5385 179.915 64.6525 179.198 65.3348C178.482 66.0171 177.32 66.0192 176.601 65.3348L165.933 55.1429L152.094 68.359L168.612 84.1336C169.333 84.818 169.333 85.9299 168.612 86.6122C167.891 87.3007 166.731 87.3007 166.017 86.6122L149.498 70.8419L135.661 84.0558L146.329 94.2499C147.046 94.9342 147.046 96.044 146.329 96.7263C145.608 97.4107 144.448 97.4107 143.734 96.7263L133.057 86.5425L126.947 92.3775L159.271 123.246L256 30.8689Z" fill="black"/>
</svg>
