<svg width="201" height="83" viewBox="0 0 201 83" fill="none" xmlns="http://www.w3.org/2000/svg">
<path d="M83.7008 54C83.5808 54 83.5208 53.94 83.5208 53.82L83.5568 49.896L92.3768 33.048H84.0248C83.9288 33.048 83.8808 33 83.8808 32.904V29.124C83.8808 29.004 83.9288 28.944 84.0248 28.944H97.0568C97.1768 28.944 97.2368 29.004 97.2368 29.124V33.012L88.4528 49.788H97.1288C97.2248 49.788 97.2728 49.848 97.2728 49.968L97.3088 53.82C97.3088 53.94 97.2488 54 97.1288 54H83.7008ZM101.559 54C101.439 54 101.379 53.94 101.379 53.82L101.415 29.088C101.415 28.992 101.463 28.944 101.559 28.944H105.591C105.687 28.944 105.735 28.992 105.735 29.088L105.771 53.82C105.771 53.94 105.723 54 105.627 54H101.559ZM110.882 54C110.786 54 110.738 53.94 110.738 53.82L110.81 29.088C110.81 28.992 110.858 28.944 110.954 28.944H115.346C115.442 28.944 115.526 28.992 115.598 29.088L118.874 33.84L122.15 29.088C122.222 28.992 122.306 28.944 122.402 28.944H126.83C126.926 28.944 126.974 28.992 126.974 29.088L127.046 53.82C127.046 53.94 126.998 54 126.902 54H122.834C122.738 54 122.69 53.94 122.69 53.82L122.654 35.46L118.874 40.932L115.13 35.46L115.094 53.82C115.094 53.94 115.046 54 114.95 54H110.882Z" fill="#FA0000"/>
<path d="M132.018 54C131.922 54 131.874 53.94 131.874 53.82L131.946 29.088C131.946 28.992 131.994 28.944 132.09 28.944H139.002C140.37 28.944 141.594 29.28 142.674 29.952C143.754 30.6 144.606 31.464 145.23 32.544C145.854 33.624 146.166 34.8 146.166 36.072C146.166 37.104 145.926 38.064 145.446 38.952C144.99 39.84 144.438 40.56 143.79 41.112C144.486 41.808 145.026 42.612 145.41 43.524C145.794 44.436 145.986 45.396 145.986 46.404C145.986 47.796 145.65 49.068 144.978 50.22C144.306 51.372 143.394 52.296 142.242 52.992C141.114 53.664 139.854 54 138.462 54H132.018ZM136.266 38.88H139.002C139.842 38.88 140.514 38.592 141.018 38.016C141.546 37.416 141.81 36.768 141.81 36.072C141.81 35.304 141.534 34.644 140.982 34.092C140.43 33.516 139.77 33.228 139.002 33.228H136.266V38.88ZM136.23 49.608H138.462C139.326 49.608 140.07 49.296 140.694 48.672C141.318 48.024 141.63 47.268 141.63 46.404C141.63 45.54 141.318 44.796 140.694 44.172C140.07 43.548 139.326 43.236 138.462 43.236H136.266L136.23 49.608ZM148.446 53.82L152.91 29.088C152.934 28.992 152.994 28.944 153.09 28.944H158.31C158.406 28.944 158.466 28.992 158.49 29.088L162.774 53.82C162.798 53.94 162.75 54 162.63 54H158.634C158.538 54 158.478 53.94 158.454 53.82L158.058 51.192H153.162L152.766 53.82C152.742 53.94 152.682 54 152.586 54H148.59C148.494 54 148.446 53.94 148.446 53.82ZM153.882 47.34H157.338L155.862 37.224L155.646 35.892L155.502 37.224L153.882 47.34ZM167.157 54C166.965 54 166.869 53.916 166.869 53.748L166.833 29.232C166.833 29.04 166.929 28.944 167.121 28.944H170.361L176.445 43.128L176.265 29.232C176.265 29.04 176.373 28.944 176.589 28.944H180.153C180.297 28.944 180.369 29.04 180.369 29.232L180.405 53.784C180.405 53.928 180.345 54 180.225 54H177.057L170.829 40.752L171.081 53.712C171.081 53.904 170.973 54 170.757 54H167.157ZM185.476 54C185.38 54 185.332 53.94 185.332 53.82L185.404 29.124C185.404 29.004 185.452 28.944 185.548 28.944H189.58C189.676 28.944 189.724 29.004 189.724 29.124V37.656L195.376 29.088C195.448 28.992 195.532 28.944 195.628 28.944H199.768C199.864 28.944 199.888 28.992 199.84 29.088L193.612 39.024L200.596 53.856C200.644 53.952 200.584 54 200.416 54H196.024C195.904 54 195.832 53.952 195.808 53.856L190.948 43.272L189.688 45.252V53.82C189.688 53.94 189.64 54 189.544 54H185.476Z" fill="#FBFBFB"/>
<path d="M41.5 3.98417C41.1693 4.00362 40.9331 4.07541 40.7529 4.19167L12.8649 22.7837C12.379 23.0926 12.1368 23.7475 12.3045 24.2982C12.4726 24.8489 13.0363 25.2467 13.6115 25.2319H19.5872V49.1359H13.6115C12.9163 49.1359 12.2836 49.7686 12.2836 50.4638V54.448C11.5884 54.448 10.9557 55.0807 10.9557 55.7759V61.088C10.9557 61.7833 11.5884 62.4159 12.2836 62.4159H70.7156C71.4108 62.4159 72.0435 61.7832 72.0435 61.088V55.7759C72.0435 55.0807 71.4108 54.448 70.7156 54.448V50.4638C70.7156 49.7686 70.0829 49.1359 69.3877 49.1359H63.4119V25.2319H69.3877C69.9634 25.2472 70.5271 24.8489 70.6947 24.2982C70.8629 23.7475 70.6206 23.0925 70.1343 22.7837L42.2463 4.19167C41.9855 4.02076 41.784 3.98278 41.4992 3.98417H41.5ZM41.5 6.91004L64.989 22.5757H18.011L41.5 6.91004ZM41.5 11.952C39.3152 11.952 37.5158 13.7515 37.5158 15.9363C37.5158 18.1211 39.3152 19.9205 41.5 19.9205C43.6848 19.9205 45.4842 18.1211 45.4842 15.9363C45.4842 13.7515 43.6848 11.952 41.5 11.952ZM41.5 14.6078C42.2489 14.6078 42.8279 15.1868 42.8279 15.9357C42.8279 16.6851 42.2489 17.2636 41.5 17.2636C40.7511 17.2636 40.1721 16.6846 40.1721 15.9357C40.1721 15.1867 40.7511 14.6078 41.5 14.6078ZM22.244 25.232H24.8998V49.136H22.244V25.232ZM27.5561 25.232H31.5403V49.136H27.5561V25.232ZM34.1961 25.232H36.8519V49.136H34.1961V25.232ZM39.5082 25.232H43.4925V49.136H39.5082V25.232ZM46.1482 25.232H48.804V49.136H46.1482V25.232ZM51.4604 25.232H55.4446V49.136H51.4604V25.232ZM58.1003 25.232H60.7561V49.136H58.1003V25.232ZM14.9404 51.792H68.0603V54.4478H14.9404V51.792ZM13.6125 57.1042H69.3885V59.7599H13.6125V57.1042Z" fill="#1A8400"/>
</svg>
