<svg width="242" height="112" viewBox="0 0 242 112" fill="none" xmlns="http://www.w3.org/2000/svg">
<ellipse cx="24" cy="57.5" rx="16" ry="14.5" fill="#E6FF9F"/>
<path d="M25.7187 57.0522C27.6706 56.4954 29.4701 55.339 30.9777 54.0105L23.5269 67.422L17.4138 54.996C18.325 55.808 19.2576 56.3949 20.2004 56.7865C22.0863 57.5697 23.9672 57.5519 25.7187 57.0522Z" stroke="#228300"/>
<path d="M51.2545 63.2545L57.3249 52.9994H51.487V49.228H63.1111V52.9994L57.1699 63.2286H63.3694V67H51.2545V63.2545ZM67.2703 49.228H73.2374V67H67.2703V49.228ZM77.8955 49.228H83.2684L87.7114 57.8557L92.0511 49.228H97.424V67H92.0511V57.5199L88.7705 63.7194H86.5748L83.2684 57.5199V67H77.8955V49.228Z" fill="white"/>
<path d="M104.856 53.1544H101.162V49.228H114.569V53.1544H110.875V67H104.856V53.1544ZM131.75 67.4133C128.513 67.4133 126.532 65.9151 125.809 62.9187L125.163 60.258H123.949V67H118.292V49.228H126.119C127.6 49.228 128.9 49.4519 130.02 49.8997C131.156 50.3302 132.035 50.9415 132.654 51.7337C133.274 52.5258 133.584 53.4386 133.584 54.4718C133.584 55.6256 133.3 56.5986 132.732 57.3907C132.181 58.1657 131.32 58.8029 130.149 59.3023C130.269 59.9567 130.407 60.5508 130.562 61.0846C130.769 61.739 131.053 62.1954 131.415 62.4537C131.776 62.712 132.301 62.8412 132.99 62.8412C133.231 62.8412 133.61 62.8067 134.127 62.7378V66.9483C133.317 67.2583 132.525 67.4133 131.75 67.4133ZM124.931 56.6416C126.205 56.6416 127.101 56.5039 127.617 56.2283C128.151 55.9356 128.418 55.4448 128.418 54.756C128.418 54.1704 128.203 53.7485 127.772 53.4902C127.342 53.2147 126.662 53.0769 125.732 53.0769H123.949V56.6416H124.931ZM140.978 49.228H148.831L153.972 67H147.901L147.23 63.5903H142.632L141.883 67H136.07L140.978 49.228ZM146.61 60.413L144.931 52.6378L143.174 60.413H146.61ZM156.974 49.228H164.697C166.557 49.228 168.202 49.5983 169.631 50.3388C171.078 51.0793 172.197 52.1125 172.989 53.4386C173.798 54.7646 174.203 56.28 174.203 57.9849C174.203 59.7758 173.807 61.3516 173.015 62.712C172.24 64.0724 171.129 65.1315 169.683 65.8893C168.253 66.6298 166.592 67 164.697 67H156.974V49.228ZM164.439 62.3504C165.73 62.3504 166.712 61.9457 167.384 61.1363C168.073 60.3097 168.417 59.242 168.417 57.9332C168.417 56.6933 168.081 55.7117 167.41 54.9884C166.755 54.2479 165.765 53.8777 164.439 53.8777H162.682V62.3504H164.439ZM177.992 49.228H190.468V53.1544H184.269V56.3833H189.926V59.6381H184.269V63.0736H190.468V67H177.992V49.228Z" fill="#FF0404"/>
</svg>
